M48
; DRILL file {KiCad 8.0.4-unknown-202407162209~ee573a1480~ubuntu24.04.1} date 2024-08-25T10:10:22+0100
; FORMAT={-:-/ absolute / inch / decimal}
; #@! TF.CreationDate,2024-08-25T10:10:22+01:00
; #@! TF.GenerationSoftware,Kicad,Pcbnew,8.0.4-unknown-202407162209~ee573a1480~ubuntu24.04.1
; #@! TF.FileFunction,Plated,1,2,PTH
FMAT,2
INCH
; #@! TA.AperFunction,Plated,PTH,ComponentDrill
T1C0.0394
; #@! TA.AperFunction,Plated,PTH,ComponentDrill
T2C0.0400
; #@! TA.AperFunction,Plated,PTH,ComponentDrill
T3C0.0433
%
G90
G05
T1
X5.714Y-2.63
X5.714Y-3.23
X5.814Y-2.63
X5.814Y-3.23
X5.914Y-2.63
X5.914Y-3.23
X6.014Y-2.63
X6.014Y-3.23
X6.114Y-2.63
X6.114Y-3.23
X6.214Y-2.63
X6.214Y-3.23
X6.314Y-2.63
X6.314Y-3.23
X6.414Y-2.63
X6.414Y-3.23
X6.514Y-2.63
X6.514Y-3.23
X6.614Y-2.63
X6.614Y-3.23
X6.714Y-2.63
X6.714Y-3.23
X6.814Y-2.63
X6.814Y-3.23
X6.914Y-2.63
X6.914Y-3.23
X7.014Y-2.63
X7.014Y-3.23
X7.114Y-2.63
X7.114Y-3.23
X7.214Y-2.63
X7.214Y-3.23
X7.314Y-2.63
X7.314Y-3.23
X7.414Y-2.63
X7.414Y-3.23
X7.514Y-2.63
X7.514Y-3.23
X7.614Y-2.63
X7.614Y-3.23
T2
X5.16Y-2.24
X5.26Y-2.24
X5.36Y-2.24
X5.46Y-2.24
X5.52Y-4.14
X5.56Y-2.24
X5.62Y-4.14
X5.66Y-2.24
X5.72Y-4.14
X5.76Y-2.24
X5.82Y-4.14
X5.86Y-2.24
X5.92Y-4.14
X5.96Y-2.24
X6.02Y-4.14
X6.06Y-2.24
X6.12Y-4.14
X6.22Y-2.24
X6.22Y-4.14
X6.32Y-2.24
X6.42Y-2.24
X6.42Y-4.14
X6.52Y-2.24
X6.52Y-4.14
X6.62Y-2.24
X6.62Y-4.14
X6.72Y-2.24
X6.72Y-4.14
X6.82Y-2.24
X6.82Y-4.14
X6.92Y-2.24
X6.92Y-4.14
X7.02Y-4.14
X7.12Y-4.14
X8.12Y-2.24
X8.12Y-2.34
X8.12Y-2.44
X8.12Y-2.54
X8.12Y-2.64
X8.12Y-2.74
X8.12Y-2.84
X8.12Y-2.94
X8.12Y-3.04
X8.12Y-3.14
X8.12Y-3.24
X8.12Y-3.34
X8.12Y-3.44
X8.12Y-3.54
X8.12Y-3.64
X8.12Y-3.74
X8.12Y-3.84
X8.12Y-3.94
X8.22Y-2.24
X8.22Y-2.34
X8.22Y-2.44
X8.22Y-2.54
X8.22Y-2.64
X8.22Y-2.74
X8.22Y-2.84
X8.22Y-2.94
X8.22Y-3.04
X8.22Y-3.14
X8.22Y-3.24
X8.22Y-3.34
X8.22Y-3.44
X8.22Y-3.54
X8.22Y-3.64
X8.22Y-3.74
X8.22Y-3.84
X8.22Y-3.94
T3
X5.672Y-3.674
X5.672Y-3.8512
X5.928Y-3.674
X5.928Y-3.8512
M30
