G04 #@! TF.GenerationSoftware,KiCad,Pcbnew,8.0.4-unknown-202407162209~ee573a1480~ubuntu24.04.1*
G04 #@! TF.CreationDate,2024-08-25T10:10:19+01:00*
G04 #@! TF.ProjectId,ZXMUX Tester,5a584d55-5820-4546-9573-7465722e6b69,1.1*
G04 #@! TF.SameCoordinates,Original*
G04 #@! TF.FileFunction,Legend,Top*
G04 #@! TF.FilePolarity,Positive*
%FSLAX46Y46*%
G04 Gerber Fmt 4.6, Leading zero omitted, Abs format (unit mm)*
G04 Created by KiCad (PCBNEW 8.0.4-unknown-202407162209~ee573a1480~ubuntu24.04.1) date 2024-08-25 10:10:19*
%MOMM*%
%LPD*%
G01*
G04 APERTURE LIST*
%ADD10C,0.150000*%
%ADD11C,0.187500*%
%ADD12C,0.250000*%
%ADD13C,0.225000*%
%ADD14C,0.120000*%
%ADD15C,0.127000*%
G04 APERTURE END LIST*
D10*
X164166779Y-93976819D02*
X164166779Y-92976819D01*
X164166779Y-92976819D02*
X164547731Y-92976819D01*
X164547731Y-92976819D02*
X164642969Y-93024438D01*
X164642969Y-93024438D02*
X164690588Y-93072057D01*
X164690588Y-93072057D02*
X164738207Y-93167295D01*
X164738207Y-93167295D02*
X164738207Y-93310152D01*
X164738207Y-93310152D02*
X164690588Y-93405390D01*
X164690588Y-93405390D02*
X164642969Y-93453009D01*
X164642969Y-93453009D02*
X164547731Y-93500628D01*
X164547731Y-93500628D02*
X164166779Y-93500628D01*
X165119160Y-93691104D02*
X165595350Y-93691104D01*
X165023922Y-93976819D02*
X165357255Y-92976819D01*
X165357255Y-92976819D02*
X165690588Y-93976819D01*
X165976303Y-93929200D02*
X166119160Y-93976819D01*
X166119160Y-93976819D02*
X166357255Y-93976819D01*
X166357255Y-93976819D02*
X166452493Y-93929200D01*
X166452493Y-93929200D02*
X166500112Y-93881580D01*
X166500112Y-93881580D02*
X166547731Y-93786342D01*
X166547731Y-93786342D02*
X166547731Y-93691104D01*
X166547731Y-93691104D02*
X166500112Y-93595866D01*
X166500112Y-93595866D02*
X166452493Y-93548247D01*
X166452493Y-93548247D02*
X166357255Y-93500628D01*
X166357255Y-93500628D02*
X166166779Y-93453009D01*
X166166779Y-93453009D02*
X166071541Y-93405390D01*
X166071541Y-93405390D02*
X166023922Y-93357771D01*
X166023922Y-93357771D02*
X165976303Y-93262533D01*
X165976303Y-93262533D02*
X165976303Y-93167295D01*
X165976303Y-93167295D02*
X166023922Y-93072057D01*
X166023922Y-93072057D02*
X166071541Y-93024438D01*
X166071541Y-93024438D02*
X166166779Y-92976819D01*
X166166779Y-92976819D02*
X166404874Y-92976819D01*
X166404874Y-92976819D02*
X166547731Y-93024438D01*
X166928684Y-93929200D02*
X167071541Y-93976819D01*
X167071541Y-93976819D02*
X167309636Y-93976819D01*
X167309636Y-93976819D02*
X167404874Y-93929200D01*
X167404874Y-93929200D02*
X167452493Y-93881580D01*
X167452493Y-93881580D02*
X167500112Y-93786342D01*
X167500112Y-93786342D02*
X167500112Y-93691104D01*
X167500112Y-93691104D02*
X167452493Y-93595866D01*
X167452493Y-93595866D02*
X167404874Y-93548247D01*
X167404874Y-93548247D02*
X167309636Y-93500628D01*
X167309636Y-93500628D02*
X167119160Y-93453009D01*
X167119160Y-93453009D02*
X167023922Y-93405390D01*
X167023922Y-93405390D02*
X166976303Y-93357771D01*
X166976303Y-93357771D02*
X166928684Y-93262533D01*
X166928684Y-93262533D02*
X166928684Y-93167295D01*
X166928684Y-93167295D02*
X166976303Y-93072057D01*
X166976303Y-93072057D02*
X167023922Y-93024438D01*
X167023922Y-93024438D02*
X167119160Y-92976819D01*
X167119160Y-92976819D02*
X167357255Y-92976819D01*
X167357255Y-92976819D02*
X167500112Y-93024438D01*
D11*
X137132497Y-61528678D02*
X137132497Y-60028678D01*
X137132497Y-60028678D02*
X137703926Y-60028678D01*
X137703926Y-60028678D02*
X137846783Y-60100107D01*
X137846783Y-60100107D02*
X137918212Y-60171535D01*
X137918212Y-60171535D02*
X137989640Y-60314392D01*
X137989640Y-60314392D02*
X137989640Y-60528678D01*
X137989640Y-60528678D02*
X137918212Y-60671535D01*
X137918212Y-60671535D02*
X137846783Y-60742964D01*
X137846783Y-60742964D02*
X137703926Y-60814392D01*
X137703926Y-60814392D02*
X137132497Y-60814392D01*
X138632497Y-61528678D02*
X138632497Y-60528678D01*
X138632497Y-60028678D02*
X138561069Y-60100107D01*
X138561069Y-60100107D02*
X138632497Y-60171535D01*
X138632497Y-60171535D02*
X138703926Y-60100107D01*
X138703926Y-60100107D02*
X138632497Y-60028678D01*
X138632497Y-60028678D02*
X138632497Y-60171535D01*
X139346783Y-60528678D02*
X139346783Y-61528678D01*
X139346783Y-60671535D02*
X139418212Y-60600107D01*
X139418212Y-60600107D02*
X139561069Y-60528678D01*
X139561069Y-60528678D02*
X139775355Y-60528678D01*
X139775355Y-60528678D02*
X139918212Y-60600107D01*
X139918212Y-60600107D02*
X139989641Y-60742964D01*
X139989641Y-60742964D02*
X139989641Y-61528678D01*
X142489641Y-60528678D02*
X142489641Y-61528678D01*
X142132498Y-59957250D02*
X141775355Y-61028678D01*
X141775355Y-61028678D02*
X142703926Y-61028678D01*
X143561069Y-60028678D02*
X143703926Y-60028678D01*
X143703926Y-60028678D02*
X143846783Y-60100107D01*
X143846783Y-60100107D02*
X143918212Y-60171535D01*
X143918212Y-60171535D02*
X143989640Y-60314392D01*
X143989640Y-60314392D02*
X144061069Y-60600107D01*
X144061069Y-60600107D02*
X144061069Y-60957250D01*
X144061069Y-60957250D02*
X143989640Y-61242964D01*
X143989640Y-61242964D02*
X143918212Y-61385821D01*
X143918212Y-61385821D02*
X143846783Y-61457250D01*
X143846783Y-61457250D02*
X143703926Y-61528678D01*
X143703926Y-61528678D02*
X143561069Y-61528678D01*
X143561069Y-61528678D02*
X143418212Y-61457250D01*
X143418212Y-61457250D02*
X143346783Y-61385821D01*
X143346783Y-61385821D02*
X143275354Y-61242964D01*
X143275354Y-61242964D02*
X143203926Y-60957250D01*
X143203926Y-60957250D02*
X143203926Y-60600107D01*
X143203926Y-60600107D02*
X143275354Y-60314392D01*
X143275354Y-60314392D02*
X143346783Y-60171535D01*
X143346783Y-60171535D02*
X143418212Y-60100107D01*
X143418212Y-60100107D02*
X143561069Y-60028678D01*
X137132497Y-88706678D02*
X137132497Y-87206678D01*
X137132497Y-87206678D02*
X137703926Y-87206678D01*
X137703926Y-87206678D02*
X137846783Y-87278107D01*
X137846783Y-87278107D02*
X137918212Y-87349535D01*
X137918212Y-87349535D02*
X137989640Y-87492392D01*
X137989640Y-87492392D02*
X137989640Y-87706678D01*
X137989640Y-87706678D02*
X137918212Y-87849535D01*
X137918212Y-87849535D02*
X137846783Y-87920964D01*
X137846783Y-87920964D02*
X137703926Y-87992392D01*
X137703926Y-87992392D02*
X137132497Y-87992392D01*
X138632497Y-88706678D02*
X138632497Y-87706678D01*
X138632497Y-87206678D02*
X138561069Y-87278107D01*
X138561069Y-87278107D02*
X138632497Y-87349535D01*
X138632497Y-87349535D02*
X138703926Y-87278107D01*
X138703926Y-87278107D02*
X138632497Y-87206678D01*
X138632497Y-87206678D02*
X138632497Y-87349535D01*
X139346783Y-87706678D02*
X139346783Y-88706678D01*
X139346783Y-87849535D02*
X139418212Y-87778107D01*
X139418212Y-87778107D02*
X139561069Y-87706678D01*
X139561069Y-87706678D02*
X139775355Y-87706678D01*
X139775355Y-87706678D02*
X139918212Y-87778107D01*
X139918212Y-87778107D02*
X139989641Y-87920964D01*
X139989641Y-87920964D02*
X139989641Y-88706678D01*
X142632498Y-88706678D02*
X141775355Y-88706678D01*
X142203926Y-88706678D02*
X142203926Y-87206678D01*
X142203926Y-87206678D02*
X142061069Y-87420964D01*
X142061069Y-87420964D02*
X141918212Y-87563821D01*
X141918212Y-87563821D02*
X141775355Y-87635250D01*
X135957640Y-96326678D02*
X135457640Y-95612392D01*
X135100497Y-96326678D02*
X135100497Y-94826678D01*
X135100497Y-94826678D02*
X135671926Y-94826678D01*
X135671926Y-94826678D02*
X135814783Y-94898107D01*
X135814783Y-94898107D02*
X135886212Y-94969535D01*
X135886212Y-94969535D02*
X135957640Y-95112392D01*
X135957640Y-95112392D02*
X135957640Y-95326678D01*
X135957640Y-95326678D02*
X135886212Y-95469535D01*
X135886212Y-95469535D02*
X135814783Y-95540964D01*
X135814783Y-95540964D02*
X135671926Y-95612392D01*
X135671926Y-95612392D02*
X135100497Y-95612392D01*
X136600497Y-95540964D02*
X137100497Y-95540964D01*
X137314783Y-96326678D02*
X136600497Y-96326678D01*
X136600497Y-96326678D02*
X136600497Y-94826678D01*
X136600497Y-94826678D02*
X137314783Y-94826678D01*
X137886212Y-96255250D02*
X138100498Y-96326678D01*
X138100498Y-96326678D02*
X138457640Y-96326678D01*
X138457640Y-96326678D02*
X138600498Y-96255250D01*
X138600498Y-96255250D02*
X138671926Y-96183821D01*
X138671926Y-96183821D02*
X138743355Y-96040964D01*
X138743355Y-96040964D02*
X138743355Y-95898107D01*
X138743355Y-95898107D02*
X138671926Y-95755250D01*
X138671926Y-95755250D02*
X138600498Y-95683821D01*
X138600498Y-95683821D02*
X138457640Y-95612392D01*
X138457640Y-95612392D02*
X138171926Y-95540964D01*
X138171926Y-95540964D02*
X138029069Y-95469535D01*
X138029069Y-95469535D02*
X137957640Y-95398107D01*
X137957640Y-95398107D02*
X137886212Y-95255250D01*
X137886212Y-95255250D02*
X137886212Y-95112392D01*
X137886212Y-95112392D02*
X137957640Y-94969535D01*
X137957640Y-94969535D02*
X138029069Y-94898107D01*
X138029069Y-94898107D02*
X138171926Y-94826678D01*
X138171926Y-94826678D02*
X138529069Y-94826678D01*
X138529069Y-94826678D02*
X138743355Y-94898107D01*
X139386211Y-95540964D02*
X139886211Y-95540964D01*
X140100497Y-96326678D02*
X139386211Y-96326678D01*
X139386211Y-96326678D02*
X139386211Y-94826678D01*
X139386211Y-94826678D02*
X140100497Y-94826678D01*
X140529069Y-94826678D02*
X141386212Y-94826678D01*
X140957640Y-96326678D02*
X140957640Y-94826678D01*
D12*
X173170187Y-100612238D02*
X174503520Y-100612238D01*
X174503520Y-100612238D02*
X173170187Y-102612238D01*
X173170187Y-102612238D02*
X174503520Y-102612238D01*
X175074949Y-100612238D02*
X176408282Y-102612238D01*
X176408282Y-100612238D02*
X175074949Y-102612238D01*
X177170187Y-102612238D02*
X177170187Y-100612238D01*
X177170187Y-100612238D02*
X177836854Y-102040809D01*
X177836854Y-102040809D02*
X178503520Y-100612238D01*
X178503520Y-100612238D02*
X178503520Y-102612238D01*
X179455901Y-100612238D02*
X179455901Y-102231285D01*
X179455901Y-102231285D02*
X179551139Y-102421761D01*
X179551139Y-102421761D02*
X179646377Y-102517000D01*
X179646377Y-102517000D02*
X179836853Y-102612238D01*
X179836853Y-102612238D02*
X180217806Y-102612238D01*
X180217806Y-102612238D02*
X180408282Y-102517000D01*
X180408282Y-102517000D02*
X180503520Y-102421761D01*
X180503520Y-102421761D02*
X180598758Y-102231285D01*
X180598758Y-102231285D02*
X180598758Y-100612238D01*
X181360663Y-100612238D02*
X182693996Y-102612238D01*
X182693996Y-100612238D02*
X181360663Y-102612238D01*
X184693997Y-100612238D02*
X185836854Y-100612238D01*
X185265425Y-102612238D02*
X185265425Y-100612238D01*
X187265426Y-102517000D02*
X187074950Y-102612238D01*
X187074950Y-102612238D02*
X186693997Y-102612238D01*
X186693997Y-102612238D02*
X186503521Y-102517000D01*
X186503521Y-102517000D02*
X186408283Y-102326523D01*
X186408283Y-102326523D02*
X186408283Y-101564619D01*
X186408283Y-101564619D02*
X186503521Y-101374142D01*
X186503521Y-101374142D02*
X186693997Y-101278904D01*
X186693997Y-101278904D02*
X187074950Y-101278904D01*
X187074950Y-101278904D02*
X187265426Y-101374142D01*
X187265426Y-101374142D02*
X187360664Y-101564619D01*
X187360664Y-101564619D02*
X187360664Y-101755095D01*
X187360664Y-101755095D02*
X186408283Y-101945571D01*
X188122569Y-102517000D02*
X188313045Y-102612238D01*
X188313045Y-102612238D02*
X188693997Y-102612238D01*
X188693997Y-102612238D02*
X188884474Y-102517000D01*
X188884474Y-102517000D02*
X188979712Y-102326523D01*
X188979712Y-102326523D02*
X188979712Y-102231285D01*
X188979712Y-102231285D02*
X188884474Y-102040809D01*
X188884474Y-102040809D02*
X188693997Y-101945571D01*
X188693997Y-101945571D02*
X188408283Y-101945571D01*
X188408283Y-101945571D02*
X188217807Y-101850333D01*
X188217807Y-101850333D02*
X188122569Y-101659857D01*
X188122569Y-101659857D02*
X188122569Y-101564619D01*
X188122569Y-101564619D02*
X188217807Y-101374142D01*
X188217807Y-101374142D02*
X188408283Y-101278904D01*
X188408283Y-101278904D02*
X188693997Y-101278904D01*
X188693997Y-101278904D02*
X188884474Y-101374142D01*
X189551141Y-101278904D02*
X190313045Y-101278904D01*
X189836855Y-100612238D02*
X189836855Y-102326523D01*
X189836855Y-102326523D02*
X189932093Y-102517000D01*
X189932093Y-102517000D02*
X190122569Y-102612238D01*
X190122569Y-102612238D02*
X190313045Y-102612238D01*
X191741617Y-102517000D02*
X191551141Y-102612238D01*
X191551141Y-102612238D02*
X191170188Y-102612238D01*
X191170188Y-102612238D02*
X190979712Y-102517000D01*
X190979712Y-102517000D02*
X190884474Y-102326523D01*
X190884474Y-102326523D02*
X190884474Y-101564619D01*
X190884474Y-101564619D02*
X190979712Y-101374142D01*
X190979712Y-101374142D02*
X191170188Y-101278904D01*
X191170188Y-101278904D02*
X191551141Y-101278904D01*
X191551141Y-101278904D02*
X191741617Y-101374142D01*
X191741617Y-101374142D02*
X191836855Y-101564619D01*
X191836855Y-101564619D02*
X191836855Y-101755095D01*
X191836855Y-101755095D02*
X190884474Y-101945571D01*
X192693998Y-102612238D02*
X192693998Y-101278904D01*
X192693998Y-101659857D02*
X192789236Y-101469380D01*
X192789236Y-101469380D02*
X192884474Y-101374142D01*
X192884474Y-101374142D02*
X193074950Y-101278904D01*
X193074950Y-101278904D02*
X193265427Y-101278904D01*
X195360665Y-102517000D02*
X195646379Y-102612238D01*
X195646379Y-102612238D02*
X196122570Y-102612238D01*
X196122570Y-102612238D02*
X196313046Y-102517000D01*
X196313046Y-102517000D02*
X196408284Y-102421761D01*
X196408284Y-102421761D02*
X196503522Y-102231285D01*
X196503522Y-102231285D02*
X196503522Y-102040809D01*
X196503522Y-102040809D02*
X196408284Y-101850333D01*
X196408284Y-101850333D02*
X196313046Y-101755095D01*
X196313046Y-101755095D02*
X196122570Y-101659857D01*
X196122570Y-101659857D02*
X195741617Y-101564619D01*
X195741617Y-101564619D02*
X195551141Y-101469380D01*
X195551141Y-101469380D02*
X195455903Y-101374142D01*
X195455903Y-101374142D02*
X195360665Y-101183666D01*
X195360665Y-101183666D02*
X195360665Y-100993190D01*
X195360665Y-100993190D02*
X195455903Y-100802714D01*
X195455903Y-100802714D02*
X195551141Y-100707476D01*
X195551141Y-100707476D02*
X195741617Y-100612238D01*
X195741617Y-100612238D02*
X196217808Y-100612238D01*
X196217808Y-100612238D02*
X196503522Y-100707476D01*
X197360665Y-102612238D02*
X197360665Y-100612238D01*
X198217808Y-102612238D02*
X198217808Y-101564619D01*
X198217808Y-101564619D02*
X198122570Y-101374142D01*
X198122570Y-101374142D02*
X197932094Y-101278904D01*
X197932094Y-101278904D02*
X197646379Y-101278904D01*
X197646379Y-101278904D02*
X197455903Y-101374142D01*
X197455903Y-101374142D02*
X197360665Y-101469380D01*
X199170189Y-102612238D02*
X199170189Y-101278904D01*
X199170189Y-100612238D02*
X199074951Y-100707476D01*
X199074951Y-100707476D02*
X199170189Y-100802714D01*
X199170189Y-100802714D02*
X199265427Y-100707476D01*
X199265427Y-100707476D02*
X199170189Y-100612238D01*
X199170189Y-100612238D02*
X199170189Y-100802714D01*
X200884475Y-102517000D02*
X200693999Y-102612238D01*
X200693999Y-102612238D02*
X200313046Y-102612238D01*
X200313046Y-102612238D02*
X200122570Y-102517000D01*
X200122570Y-102517000D02*
X200027332Y-102326523D01*
X200027332Y-102326523D02*
X200027332Y-101564619D01*
X200027332Y-101564619D02*
X200122570Y-101374142D01*
X200122570Y-101374142D02*
X200313046Y-101278904D01*
X200313046Y-101278904D02*
X200693999Y-101278904D01*
X200693999Y-101278904D02*
X200884475Y-101374142D01*
X200884475Y-101374142D02*
X200979713Y-101564619D01*
X200979713Y-101564619D02*
X200979713Y-101755095D01*
X200979713Y-101755095D02*
X200027332Y-101945571D01*
X202122570Y-102612238D02*
X201932094Y-102517000D01*
X201932094Y-102517000D02*
X201836856Y-102326523D01*
X201836856Y-102326523D02*
X201836856Y-100612238D01*
X203741618Y-102612238D02*
X203741618Y-100612238D01*
X203741618Y-102517000D02*
X203551142Y-102612238D01*
X203551142Y-102612238D02*
X203170189Y-102612238D01*
X203170189Y-102612238D02*
X202979713Y-102517000D01*
X202979713Y-102517000D02*
X202884475Y-102421761D01*
X202884475Y-102421761D02*
X202789237Y-102231285D01*
X202789237Y-102231285D02*
X202789237Y-101659857D01*
X202789237Y-101659857D02*
X202884475Y-101469380D01*
X202884475Y-101469380D02*
X202979713Y-101374142D01*
X202979713Y-101374142D02*
X203170189Y-101278904D01*
X203170189Y-101278904D02*
X203551142Y-101278904D01*
X203551142Y-101278904D02*
X203741618Y-101374142D01*
D10*
X165135112Y-97263009D02*
X164801779Y-97263009D01*
X164801779Y-97786819D02*
X164801779Y-96786819D01*
X164801779Y-96786819D02*
X165277969Y-96786819D01*
X165611303Y-97501104D02*
X166087493Y-97501104D01*
X165516065Y-97786819D02*
X165849398Y-96786819D01*
X165849398Y-96786819D02*
X166182731Y-97786819D01*
X166516065Y-97786819D02*
X166516065Y-96786819D01*
X167468445Y-97786819D02*
X166992255Y-97786819D01*
X166992255Y-97786819D02*
X166992255Y-96786819D01*
D13*
X179646597Y-57553014D02*
X179646597Y-56353014D01*
X179646597Y-56524442D02*
X179732311Y-56438728D01*
X179732311Y-56438728D02*
X179903740Y-56353014D01*
X179903740Y-56353014D02*
X180160883Y-56353014D01*
X180160883Y-56353014D02*
X180332311Y-56438728D01*
X180332311Y-56438728D02*
X180418026Y-56610157D01*
X180418026Y-56610157D02*
X180418026Y-57553014D01*
X180418026Y-56610157D02*
X180503740Y-56438728D01*
X180503740Y-56438728D02*
X180675168Y-56353014D01*
X180675168Y-56353014D02*
X180932311Y-56353014D01*
X180932311Y-56353014D02*
X181103740Y-56438728D01*
X181103740Y-56438728D02*
X181189454Y-56610157D01*
X181189454Y-56610157D02*
X181189454Y-57553014D01*
X181875168Y-56353014D02*
X182303740Y-57553014D01*
X182732311Y-56353014D02*
X182303740Y-57553014D01*
X182303740Y-57553014D02*
X182132311Y-57981585D01*
X182132311Y-57981585D02*
X182046597Y-58067300D01*
X182046597Y-58067300D02*
X181875168Y-58153014D01*
X183418026Y-57553014D02*
X183418026Y-56353014D01*
X183418026Y-56695871D02*
X183503740Y-56524442D01*
X183503740Y-56524442D02*
X183589455Y-56438728D01*
X183589455Y-56438728D02*
X183760883Y-56353014D01*
X183760883Y-56353014D02*
X183932312Y-56353014D01*
X185218026Y-57467300D02*
X185046598Y-57553014D01*
X185046598Y-57553014D02*
X184703741Y-57553014D01*
X184703741Y-57553014D02*
X184532312Y-57467300D01*
X184532312Y-57467300D02*
X184446598Y-57295871D01*
X184446598Y-57295871D02*
X184446598Y-56610157D01*
X184446598Y-56610157D02*
X184532312Y-56438728D01*
X184532312Y-56438728D02*
X184703741Y-56353014D01*
X184703741Y-56353014D02*
X185046598Y-56353014D01*
X185046598Y-56353014D02*
X185218026Y-56438728D01*
X185218026Y-56438728D02*
X185303741Y-56610157D01*
X185303741Y-56610157D02*
X185303741Y-56781585D01*
X185303741Y-56781585D02*
X184446598Y-56953014D01*
X185818026Y-56353014D02*
X186503740Y-56353014D01*
X186075169Y-55753014D02*
X186075169Y-57295871D01*
X186075169Y-57295871D02*
X186160883Y-57467300D01*
X186160883Y-57467300D02*
X186332312Y-57553014D01*
X186332312Y-57553014D02*
X186503740Y-57553014D01*
X187103740Y-57553014D02*
X187103740Y-56353014D01*
X187103740Y-56695871D02*
X187189454Y-56524442D01*
X187189454Y-56524442D02*
X187275169Y-56438728D01*
X187275169Y-56438728D02*
X187446597Y-56353014D01*
X187446597Y-56353014D02*
X187618026Y-56353014D01*
X188475169Y-57553014D02*
X188303740Y-57467300D01*
X188303740Y-57467300D02*
X188218026Y-57381585D01*
X188218026Y-57381585D02*
X188132312Y-57210157D01*
X188132312Y-57210157D02*
X188132312Y-56695871D01*
X188132312Y-56695871D02*
X188218026Y-56524442D01*
X188218026Y-56524442D02*
X188303740Y-56438728D01*
X188303740Y-56438728D02*
X188475169Y-56353014D01*
X188475169Y-56353014D02*
X188732312Y-56353014D01*
X188732312Y-56353014D02*
X188903740Y-56438728D01*
X188903740Y-56438728D02*
X188989455Y-56524442D01*
X188989455Y-56524442D02*
X189075169Y-56695871D01*
X189075169Y-56695871D02*
X189075169Y-57210157D01*
X189075169Y-57210157D02*
X188989455Y-57381585D01*
X188989455Y-57381585D02*
X188903740Y-57467300D01*
X188903740Y-57467300D02*
X188732312Y-57553014D01*
X188732312Y-57553014D02*
X188475169Y-57553014D01*
X189760883Y-57467300D02*
X189932311Y-57553014D01*
X189932311Y-57553014D02*
X190275168Y-57553014D01*
X190275168Y-57553014D02*
X190446597Y-57467300D01*
X190446597Y-57467300D02*
X190532311Y-57295871D01*
X190532311Y-57295871D02*
X190532311Y-57210157D01*
X190532311Y-57210157D02*
X190446597Y-57038728D01*
X190446597Y-57038728D02*
X190275168Y-56953014D01*
X190275168Y-56953014D02*
X190018026Y-56953014D01*
X190018026Y-56953014D02*
X189846597Y-56867300D01*
X189846597Y-56867300D02*
X189760883Y-56695871D01*
X189760883Y-56695871D02*
X189760883Y-56610157D01*
X189760883Y-56610157D02*
X189846597Y-56438728D01*
X189846597Y-56438728D02*
X190018026Y-56353014D01*
X190018026Y-56353014D02*
X190275168Y-56353014D01*
X190275168Y-56353014D02*
X190446597Y-56438728D01*
X191046597Y-56353014D02*
X191732311Y-56353014D01*
X191303740Y-55753014D02*
X191303740Y-57295871D01*
X191303740Y-57295871D02*
X191389454Y-57467300D01*
X191389454Y-57467300D02*
X191560883Y-57553014D01*
X191560883Y-57553014D02*
X191732311Y-57553014D01*
X192589454Y-57553014D02*
X192418025Y-57467300D01*
X192418025Y-57467300D02*
X192332311Y-57381585D01*
X192332311Y-57381585D02*
X192246597Y-57210157D01*
X192246597Y-57210157D02*
X192246597Y-56695871D01*
X192246597Y-56695871D02*
X192332311Y-56524442D01*
X192332311Y-56524442D02*
X192418025Y-56438728D01*
X192418025Y-56438728D02*
X192589454Y-56353014D01*
X192589454Y-56353014D02*
X192846597Y-56353014D01*
X192846597Y-56353014D02*
X193018025Y-56438728D01*
X193018025Y-56438728D02*
X193103740Y-56524442D01*
X193103740Y-56524442D02*
X193189454Y-56695871D01*
X193189454Y-56695871D02*
X193189454Y-57210157D01*
X193189454Y-57210157D02*
X193103740Y-57381585D01*
X193103740Y-57381585D02*
X193018025Y-57467300D01*
X193018025Y-57467300D02*
X192846597Y-57553014D01*
X192846597Y-57553014D02*
X192589454Y-57553014D01*
X193960882Y-57553014D02*
X193960882Y-56353014D01*
X193960882Y-56695871D02*
X194046596Y-56524442D01*
X194046596Y-56524442D02*
X194132311Y-56438728D01*
X194132311Y-56438728D02*
X194303739Y-56353014D01*
X194303739Y-56353014D02*
X194475168Y-56353014D01*
X195760882Y-57467300D02*
X195589454Y-57553014D01*
X195589454Y-57553014D02*
X195246597Y-57553014D01*
X195246597Y-57553014D02*
X195075168Y-57467300D01*
X195075168Y-57467300D02*
X194989454Y-57295871D01*
X194989454Y-57295871D02*
X194989454Y-56610157D01*
X194989454Y-56610157D02*
X195075168Y-56438728D01*
X195075168Y-56438728D02*
X195246597Y-56353014D01*
X195246597Y-56353014D02*
X195589454Y-56353014D01*
X195589454Y-56353014D02*
X195760882Y-56438728D01*
X195760882Y-56438728D02*
X195846597Y-56610157D01*
X195846597Y-56610157D02*
X195846597Y-56781585D01*
X195846597Y-56781585D02*
X194989454Y-56953014D01*
X196618025Y-57381585D02*
X196703739Y-57467300D01*
X196703739Y-57467300D02*
X196618025Y-57553014D01*
X196618025Y-57553014D02*
X196532311Y-57467300D01*
X196532311Y-57467300D02*
X196618025Y-57381585D01*
X196618025Y-57381585D02*
X196618025Y-57553014D01*
X198246597Y-57467300D02*
X198075168Y-57553014D01*
X198075168Y-57553014D02*
X197732311Y-57553014D01*
X197732311Y-57553014D02*
X197560882Y-57467300D01*
X197560882Y-57467300D02*
X197475168Y-57381585D01*
X197475168Y-57381585D02*
X197389454Y-57210157D01*
X197389454Y-57210157D02*
X197389454Y-56695871D01*
X197389454Y-56695871D02*
X197475168Y-56524442D01*
X197475168Y-56524442D02*
X197560882Y-56438728D01*
X197560882Y-56438728D02*
X197732311Y-56353014D01*
X197732311Y-56353014D02*
X198075168Y-56353014D01*
X198075168Y-56353014D02*
X198246597Y-56438728D01*
X199275168Y-57553014D02*
X199103739Y-57467300D01*
X199103739Y-57467300D02*
X199018025Y-57381585D01*
X199018025Y-57381585D02*
X198932311Y-57210157D01*
X198932311Y-57210157D02*
X198932311Y-56695871D01*
X198932311Y-56695871D02*
X199018025Y-56524442D01*
X199018025Y-56524442D02*
X199103739Y-56438728D01*
X199103739Y-56438728D02*
X199275168Y-56353014D01*
X199275168Y-56353014D02*
X199532311Y-56353014D01*
X199532311Y-56353014D02*
X199703739Y-56438728D01*
X199703739Y-56438728D02*
X199789454Y-56524442D01*
X199789454Y-56524442D02*
X199875168Y-56695871D01*
X199875168Y-56695871D02*
X199875168Y-57210157D01*
X199875168Y-57210157D02*
X199789454Y-57381585D01*
X199789454Y-57381585D02*
X199703739Y-57467300D01*
X199703739Y-57467300D02*
X199532311Y-57553014D01*
X199532311Y-57553014D02*
X199275168Y-57553014D01*
X200646596Y-57381585D02*
X200732310Y-57467300D01*
X200732310Y-57467300D02*
X200646596Y-57553014D01*
X200646596Y-57553014D02*
X200560882Y-57467300D01*
X200560882Y-57467300D02*
X200646596Y-57381585D01*
X200646596Y-57381585D02*
X200646596Y-57553014D01*
X202275168Y-56353014D02*
X202275168Y-57553014D01*
X201503739Y-56353014D02*
X201503739Y-57295871D01*
X201503739Y-57295871D02*
X201589453Y-57467300D01*
X201589453Y-57467300D02*
X201760882Y-57553014D01*
X201760882Y-57553014D02*
X202018025Y-57553014D01*
X202018025Y-57553014D02*
X202189453Y-57467300D01*
X202189453Y-57467300D02*
X202275168Y-57381585D01*
X203132310Y-57553014D02*
X203132310Y-55753014D01*
X203303739Y-56867300D02*
X203818024Y-57553014D01*
X203818024Y-56353014D02*
X203132310Y-57038728D01*
D14*
G04 #@! TO.C,SW1*
X143820000Y-94819600D02*
X143820000Y-96319600D01*
X145070000Y-98819600D02*
X149570000Y-98819600D01*
X149570000Y-92319600D02*
X145070000Y-92319600D01*
X150820000Y-96319600D02*
X150820000Y-94819600D01*
G04 #@! TO.C,D2*
X168732500Y-96322000D02*
X168732500Y-98242000D01*
X168732500Y-98242000D02*
X171417500Y-98242000D01*
X171417500Y-96322000D02*
X168732500Y-96322000D01*
G04 #@! TO.C,R1*
X177027064Y-92737000D02*
X176572936Y-92737000D01*
X177027064Y-94207000D02*
X176572936Y-94207000D01*
G04 #@! TO.C,R2*
X177027064Y-96547000D02*
X176572936Y-96547000D01*
X177027064Y-98017000D02*
X176572936Y-98017000D01*
G04 #@! TO.C,D1*
X168732500Y-92512000D02*
X168732500Y-94432000D01*
X168732500Y-94432000D02*
X171417500Y-94432000D01*
X171417500Y-92512000D02*
X168732500Y-92512000D01*
D15*
G04 #@! TO.C,U1*
X134635600Y-62972000D02*
X134635600Y-85872000D01*
X134635600Y-85872000D02*
X200135600Y-85872000D01*
X200135600Y-62972000D02*
X134635600Y-62972000D01*
X200135600Y-85872000D02*
X200135600Y-62972000D01*
G04 #@! TD*
M02*
