G04 #@! TF.GenerationSoftware,KiCad,Pcbnew,8.0.4-unknown-202407162209~ee573a1480~ubuntu24.04.1*
G04 #@! TF.CreationDate,2024-08-25T10:10:20+01:00*
G04 #@! TF.ProjectId,ZXMUX Tester,5a584d55-5820-4546-9573-7465722e6b69,1.1*
G04 #@! TF.SameCoordinates,Original*
G04 #@! TF.FileFunction,Soldermask,Top*
G04 #@! TF.FilePolarity,Negative*
%FSLAX46Y46*%
G04 Gerber Fmt 4.6, Leading zero omitted, Abs format (unit mm)*
G04 Created by KiCad (PCBNEW 8.0.4-unknown-202407162209~ee573a1480~ubuntu24.04.1) date 2024-08-25 10:10:20*
%MOMM*%
%LPD*%
G01*
G04 APERTURE LIST*
G04 Aperture macros list*
%AMRoundRect*
0 Rectangle with rounded corners*
0 $1 Rounding radius*
0 $2 $3 $4 $5 $6 $7 $8 $9 X,Y pos of 4 corners*
0 Add a 4 corners polygon primitive as box body*
4,1,4,$2,$3,$4,$5,$6,$7,$8,$9,$2,$3,0*
0 Add four circle primitives for the rounded corners*
1,1,$1+$1,$2,$3*
1,1,$1+$1,$4,$5*
1,1,$1+$1,$6,$7*
1,1,$1+$1,$8,$9*
0 Add four rect primitives between the rounded corners*
20,1,$1+$1,$2,$3,$4,$5,0*
20,1,$1+$1,$4,$5,$6,$7,0*
20,1,$1+$1,$6,$7,$8,$9,0*
20,1,$1+$1,$8,$9,$2,$3,0*%
G04 Aperture macros list end*
%ADD10C,2.000000*%
%ADD11RoundRect,0.243750X-0.243750X-0.456250X0.243750X-0.456250X0.243750X0.456250X-0.243750X0.456250X0*%
%ADD12RoundRect,0.250000X0.350000X0.450000X-0.350000X0.450000X-0.350000X-0.450000X0.350000X-0.450000X0*%
%ADD13O,1.727200X1.727200*%
%ADD14R,1.727200X1.727200*%
%ADD15RoundRect,0.102000X0.754000X-0.754000X0.754000X0.754000X-0.754000X0.754000X-0.754000X-0.754000X0*%
%ADD16C,1.712000*%
G04 APERTURE END LIST*
D10*
G04 #@! TO.C,SW1*
X144070000Y-93319600D03*
X150570000Y-93319600D03*
X144070000Y-97819600D03*
X150570000Y-97819600D03*
G04 #@! TD*
D11*
G04 #@! TO.C,D2*
X169480000Y-97282000D03*
X171355000Y-97282000D03*
G04 #@! TD*
D12*
G04 #@! TO.C,R1*
X177800000Y-93472000D03*
X175800000Y-93472000D03*
G04 #@! TD*
G04 #@! TO.C,R2*
X177800000Y-97282000D03*
X175800000Y-97282000D03*
G04 #@! TD*
D11*
G04 #@! TO.C,D1*
X169480000Y-93472000D03*
X171355000Y-93472000D03*
G04 #@! TD*
D13*
G04 #@! TO.C,XA1*
X140208000Y-105156000D03*
X147828000Y-105156000D03*
X150368000Y-105156000D03*
X206248000Y-56896000D03*
X208788000Y-56896000D03*
X163068000Y-105156000D03*
X165608000Y-105156000D03*
X168148000Y-105156000D03*
X170688000Y-105156000D03*
X173228000Y-105156000D03*
X175768000Y-105156000D03*
X178308000Y-105156000D03*
X180848000Y-105156000D03*
X136144000Y-56896000D03*
X175768000Y-56896000D03*
X173228000Y-56896000D03*
X170688000Y-56896000D03*
X168148000Y-56896000D03*
X165608000Y-56896000D03*
X163068000Y-56896000D03*
X160528000Y-56896000D03*
X157988000Y-56896000D03*
X153924000Y-56896000D03*
X151384000Y-56896000D03*
X148844000Y-56896000D03*
X146304000Y-56896000D03*
X143764000Y-56896000D03*
X141224000Y-56896000D03*
X206248000Y-59436000D03*
X208788000Y-59436000D03*
X206248000Y-61976000D03*
X208788000Y-61976000D03*
X206248000Y-64516000D03*
X208788000Y-64516000D03*
X206248000Y-67056000D03*
X208788000Y-67056000D03*
X206248000Y-69596000D03*
X208788000Y-69596000D03*
X206248000Y-72136000D03*
X208788000Y-72136000D03*
X206248000Y-74676000D03*
X208788000Y-74676000D03*
X206248000Y-77216000D03*
X208788000Y-77216000D03*
X206248000Y-79756000D03*
X208788000Y-79756000D03*
X206248000Y-82296000D03*
X208788000Y-82296000D03*
X206248000Y-84836000D03*
X208788000Y-84836000D03*
X206248000Y-87376000D03*
X208788000Y-87376000D03*
X206248000Y-89916000D03*
X208788000Y-89916000D03*
X206248000Y-92456000D03*
X208788000Y-92456000D03*
X206248000Y-94996000D03*
X208788000Y-94996000D03*
X206248000Y-97536000D03*
X208788000Y-97536000D03*
D14*
X138684000Y-56896000D03*
X152908000Y-105156000D03*
X155448000Y-105156000D03*
X206248000Y-100076000D03*
X208788000Y-100076000D03*
D13*
X142748000Y-105156000D03*
X145288000Y-105156000D03*
X131064000Y-56896000D03*
X133604000Y-56896000D03*
X157988000Y-105156000D03*
G04 #@! TD*
D15*
G04 #@! TO.C,U1*
X145135600Y-82042000D03*
D16*
X147675600Y-82042000D03*
X150215600Y-82042000D03*
X152755600Y-82042000D03*
X155295600Y-82042000D03*
X157835600Y-82042000D03*
X160375600Y-82042000D03*
X162915600Y-82042000D03*
X165455600Y-82042000D03*
X167995600Y-82042000D03*
X170535600Y-82042000D03*
X173075600Y-82042000D03*
X175615600Y-82042000D03*
X178155600Y-82042000D03*
X180695600Y-82042000D03*
X183235600Y-82042000D03*
X185775600Y-82042000D03*
X188315600Y-82042000D03*
X190855600Y-82042000D03*
X193395600Y-82042000D03*
X193395600Y-66802000D03*
X190855600Y-66802000D03*
X188315600Y-66802000D03*
X185775600Y-66802000D03*
X183235600Y-66802000D03*
X180695600Y-66802000D03*
X178155600Y-66802000D03*
X175615600Y-66802000D03*
X173075600Y-66802000D03*
X170535600Y-66802000D03*
X167995600Y-66802000D03*
X165455600Y-66802000D03*
X162915600Y-66802000D03*
X160375600Y-66802000D03*
X157835600Y-66802000D03*
X155295600Y-66802000D03*
X152755600Y-66802000D03*
X150215600Y-66802000D03*
X147675600Y-66802000D03*
X145135600Y-66802000D03*
G04 #@! TD*
M02*
