G04 #@! TF.GenerationSoftware,KiCad,Pcbnew,8.0.4-unknown-202407162209~ee573a1480~ubuntu24.04.1*
G04 #@! TF.CreationDate,2024-08-25T10:10:19+01:00*
G04 #@! TF.ProjectId,ZXMUX Tester,5a584d55-5820-4546-9573-7465722e6b69,1.1*
G04 #@! TF.SameCoordinates,Original*
G04 #@! TF.FileFunction,Copper,L2,Bot*
G04 #@! TF.FilePolarity,Positive*
%FSLAX46Y46*%
G04 Gerber Fmt 4.6, Leading zero omitted, Abs format (unit mm)*
G04 Created by KiCad (PCBNEW 8.0.4-unknown-202407162209~ee573a1480~ubuntu24.04.1) date 2024-08-25 10:10:19*
%MOMM*%
%LPD*%
G01*
G04 APERTURE LIST*
%ADD10C,0.125000*%
G04 #@! TA.AperFunction,NonConductor*
%ADD11C,0.125000*%
G04 #@! TD*
G04 #@! TA.AperFunction,ComponentPad*
%ADD12C,2.000000*%
G04 #@! TD*
G04 #@! TA.AperFunction,ComponentPad*
%ADD13O,1.727200X1.727200*%
G04 #@! TD*
G04 #@! TA.AperFunction,ComponentPad*
%ADD14R,1.727200X1.727200*%
G04 #@! TD*
G04 #@! TA.AperFunction,ComponentPad*
%ADD15R,1.508000X1.508000*%
G04 #@! TD*
G04 #@! TA.AperFunction,ComponentPad*
%ADD16C,1.508000*%
G04 #@! TD*
G04 #@! TA.AperFunction,Conductor*
%ADD17C,0.500000*%
G04 #@! TD*
G04 #@! TA.AperFunction,Conductor*
%ADD18C,0.300000*%
G04 #@! TD*
G04 APERTURE END LIST*
D10*
D11*
X209229668Y-106043119D02*
X209229668Y-105043119D01*
X209229668Y-105043119D02*
X208848716Y-105043119D01*
X208848716Y-105043119D02*
X208753478Y-105090738D01*
X208753478Y-105090738D02*
X208705859Y-105138357D01*
X208705859Y-105138357D02*
X208658240Y-105233595D01*
X208658240Y-105233595D02*
X208658240Y-105376452D01*
X208658240Y-105376452D02*
X208705859Y-105471690D01*
X208705859Y-105471690D02*
X208753478Y-105519309D01*
X208753478Y-105519309D02*
X208848716Y-105566928D01*
X208848716Y-105566928D02*
X209229668Y-105566928D01*
X207658240Y-105947880D02*
X207705859Y-105995500D01*
X207705859Y-105995500D02*
X207848716Y-106043119D01*
X207848716Y-106043119D02*
X207943954Y-106043119D01*
X207943954Y-106043119D02*
X208086811Y-105995500D01*
X208086811Y-105995500D02*
X208182049Y-105900261D01*
X208182049Y-105900261D02*
X208229668Y-105805023D01*
X208229668Y-105805023D02*
X208277287Y-105614547D01*
X208277287Y-105614547D02*
X208277287Y-105471690D01*
X208277287Y-105471690D02*
X208229668Y-105281214D01*
X208229668Y-105281214D02*
X208182049Y-105185976D01*
X208182049Y-105185976D02*
X208086811Y-105090738D01*
X208086811Y-105090738D02*
X207943954Y-105043119D01*
X207943954Y-105043119D02*
X207848716Y-105043119D01*
X207848716Y-105043119D02*
X207705859Y-105090738D01*
X207705859Y-105090738D02*
X207658240Y-105138357D01*
X206896335Y-105519309D02*
X206753478Y-105566928D01*
X206753478Y-105566928D02*
X206705859Y-105614547D01*
X206705859Y-105614547D02*
X206658240Y-105709785D01*
X206658240Y-105709785D02*
X206658240Y-105852642D01*
X206658240Y-105852642D02*
X206705859Y-105947880D01*
X206705859Y-105947880D02*
X206753478Y-105995500D01*
X206753478Y-105995500D02*
X206848716Y-106043119D01*
X206848716Y-106043119D02*
X207229668Y-106043119D01*
X207229668Y-106043119D02*
X207229668Y-105043119D01*
X207229668Y-105043119D02*
X206896335Y-105043119D01*
X206896335Y-105043119D02*
X206801097Y-105090738D01*
X206801097Y-105090738D02*
X206753478Y-105138357D01*
X206753478Y-105138357D02*
X206705859Y-105233595D01*
X206705859Y-105233595D02*
X206705859Y-105328833D01*
X206705859Y-105328833D02*
X206753478Y-105424071D01*
X206753478Y-105424071D02*
X206801097Y-105471690D01*
X206801097Y-105471690D02*
X206896335Y-105519309D01*
X206896335Y-105519309D02*
X207229668Y-105519309D01*
X204943954Y-106043119D02*
X205515382Y-106043119D01*
X205229668Y-106043119D02*
X205229668Y-105043119D01*
X205229668Y-105043119D02*
X205324906Y-105185976D01*
X205324906Y-105185976D02*
X205420144Y-105281214D01*
X205420144Y-105281214D02*
X205515382Y-105328833D01*
X204515382Y-105947880D02*
X204467763Y-105995500D01*
X204467763Y-105995500D02*
X204515382Y-106043119D01*
X204515382Y-106043119D02*
X204563001Y-105995500D01*
X204563001Y-105995500D02*
X204515382Y-105947880D01*
X204515382Y-105947880D02*
X204515382Y-106043119D01*
X203515383Y-106043119D02*
X204086811Y-106043119D01*
X203801097Y-106043119D02*
X203801097Y-105043119D01*
X203801097Y-105043119D02*
X203896335Y-105185976D01*
X203896335Y-105185976D02*
X203991573Y-105281214D01*
X203991573Y-105281214D02*
X204086811Y-105328833D01*
D12*
G04 #@! TO.P,SW1,1,A*
G04 #@! TO.N,GND*
X144070000Y-93319600D03*
X150570000Y-93319600D03*
G04 #@! TO.P,SW1,2,B*
G04 #@! TO.N,Net-(SW1-B)*
X144070000Y-97819600D03*
X150570000Y-97819600D03*
G04 #@! TD*
D13*
G04 #@! TO.P,XA1,*
G04 #@! TO.N,*
X140208000Y-105156000D03*
G04 #@! TO.P,XA1,3V3,3.3V*
G04 #@! TO.N,unconnected-(XA1-3.3V-Pad3V3)*
X147828000Y-105156000D03*
G04 #@! TO.P,XA1,5V1,5V*
G04 #@! TO.N,+5V*
X150368000Y-105156000D03*
G04 #@! TO.P,XA1,5V3,5V*
G04 #@! TO.N,unconnected-(XA1-5V-Pad5V3)*
X206248000Y-56896000D03*
G04 #@! TO.P,XA1,5V4,5V*
G04 #@! TO.N,unconnected-(XA1-5V-Pad5V4)*
X208788000Y-56896000D03*
G04 #@! TO.P,XA1,A0,A0*
G04 #@! TO.N,/S*
X163068000Y-105156000D03*
G04 #@! TO.P,XA1,A1,A1*
G04 #@! TO.N,/A0*
X165608000Y-105156000D03*
G04 #@! TO.P,XA1,A2,A2*
G04 #@! TO.N,/A7*
X168148000Y-105156000D03*
G04 #@! TO.P,XA1,A3,A3*
G04 #@! TO.N,/DMA0*
X170688000Y-105156000D03*
G04 #@! TO.P,XA1,A4,A4*
G04 #@! TO.N,/A1*
X173228000Y-105156000D03*
G04 #@! TO.P,XA1,A5,A5*
G04 #@! TO.N,unconnected-(XA1-PadA5)*
X175768000Y-105156000D03*
G04 #@! TO.P,XA1,A6,A6*
G04 #@! TO.N,unconnected-(XA1-PadA6)*
X178308000Y-105156000D03*
G04 #@! TO.P,XA1,A7,A7*
G04 #@! TO.N,unconnected-(XA1-PadA7)*
X180848000Y-105156000D03*
G04 #@! TO.P,XA1,AREF,AREF*
G04 #@! TO.N,unconnected-(XA1-PadAREF)*
X136144000Y-56896000D03*
G04 #@! TO.P,XA1,D0,D0_RX0*
G04 #@! TO.N,unconnected-(XA1-D0_RX0-PadD0)*
X175768000Y-56896000D03*
G04 #@! TO.P,XA1,D1,D1_TX0*
G04 #@! TO.N,unconnected-(XA1-D1_TX0-PadD1)*
X173228000Y-56896000D03*
G04 #@! TO.P,XA1,D2,D2_INT0*
G04 #@! TO.N,unconnected-(XA1-D2_INT0-PadD2)*
X170688000Y-56896000D03*
G04 #@! TO.P,XA1,D3,D3_INT1*
G04 #@! TO.N,/MA4*
X168148000Y-56896000D03*
G04 #@! TO.P,XA1,D4,D4*
G04 #@! TO.N,/MA3*
X165608000Y-56896000D03*
G04 #@! TO.P,XA1,D5,D5*
G04 #@! TO.N,/MA2*
X163068000Y-56896000D03*
G04 #@! TO.P,XA1,D6,D6*
G04 #@! TO.N,/MA1*
X160528000Y-56896000D03*
G04 #@! TO.P,XA1,D7,D7*
G04 #@! TO.N,/MA0*
X157988000Y-56896000D03*
G04 #@! TO.P,XA1,D8,D8*
G04 #@! TO.N,/CASL*
X153924000Y-56896000D03*
G04 #@! TO.P,XA1,D9,D9*
G04 #@! TO.N,/MQRDL*
X151384000Y-56896000D03*
G04 #@! TO.P,XA1,D10,D10*
G04 #@! TO.N,/MRQ*
X148844000Y-56896000D03*
G04 #@! TO.P,XA1,D11,D11*
G04 #@! TO.N,/A15*
X146304000Y-56896000D03*
G04 #@! TO.P,XA1,D12,D12*
G04 #@! TO.N,/RD*
X143764000Y-56896000D03*
G04 #@! TO.P,XA1,D13,D13*
G04 #@! TO.N,/WR*
X141224000Y-56896000D03*
G04 #@! TO.P,XA1,D22,D22*
G04 #@! TO.N,/MA5*
X206248000Y-59436000D03*
G04 #@! TO.P,XA1,D23,D23*
G04 #@! TO.N,/MA6*
X208788000Y-59436000D03*
G04 #@! TO.P,XA1,D24,D24*
G04 #@! TO.N,/MA7*
X206248000Y-61976000D03*
G04 #@! TO.P,XA1,D25,D25*
G04 #@! TO.N,/3B*
X208788000Y-61976000D03*
G04 #@! TO.P,XA1,D26,D26*
G04 #@! TO.N,/3A*
X206248000Y-64516000D03*
G04 #@! TO.P,XA1,D27,D27*
G04 #@! TO.N,/DMA6*
X208788000Y-64516000D03*
G04 #@! TO.P,XA1,D28,D28*
G04 #@! TO.N,/A6*
X206248000Y-67056000D03*
G04 #@! TO.P,XA1,D29,D29*
G04 #@! TO.N,/A13*
X208788000Y-67056000D03*
G04 #@! TO.P,XA1,D30,D30*
G04 #@! TO.N,/DMA1*
X206248000Y-69596000D03*
G04 #@! TO.P,XA1,D31,D31*
G04 #@! TO.N,/A2*
X208788000Y-69596000D03*
G04 #@! TO.P,XA1,D32,D32*
G04 #@! TO.N,/A9*
X206248000Y-72136000D03*
G04 #@! TO.P,XA1,D33,D33*
G04 #@! TO.N,/DMA2*
X208788000Y-72136000D03*
G04 #@! TO.P,XA1,D34,D34*
G04 #@! TO.N,/A3*
X206248000Y-74676000D03*
G04 #@! TO.P,XA1,D35,D35*
G04 #@! TO.N,/A10*
X208788000Y-74676000D03*
G04 #@! TO.P,XA1,D36,D36*
G04 #@! TO.N,/DMA3*
X206248000Y-77216000D03*
G04 #@! TO.P,XA1,D37,D37*
G04 #@! TO.N,/A4*
X208788000Y-77216000D03*
G04 #@! TO.P,XA1,D38,D38*
G04 #@! TO.N,/A11*
X206248000Y-79756000D03*
G04 #@! TO.P,XA1,D39,D39*
G04 #@! TO.N,/DMA4*
X208788000Y-79756000D03*
G04 #@! TO.P,XA1,D40,D40*
G04 #@! TO.N,/DMA5*
X206248000Y-82296000D03*
G04 #@! TO.P,XA1,D41,D41*
G04 #@! TO.N,/A12*
X208788000Y-82296000D03*
G04 #@! TO.P,XA1,D42,D42*
G04 #@! TO.N,/A5*
X206248000Y-84836000D03*
G04 #@! TO.P,XA1,D43,D43*
G04 #@! TO.N,unconnected-(XA1-PadD43)*
X208788000Y-84836000D03*
G04 #@! TO.P,XA1,D44,D44*
G04 #@! TO.N,/A8*
X206248000Y-87376000D03*
G04 #@! TO.P,XA1,D45,D45*
G04 #@! TO.N,unconnected-(XA1-PadD45)*
X208788000Y-87376000D03*
G04 #@! TO.P,XA1,D46,D46*
G04 #@! TO.N,unconnected-(XA1-PadD46)*
X206248000Y-89916000D03*
G04 #@! TO.P,XA1,D47,D47*
G04 #@! TO.N,unconnected-(XA1-PadD47)*
X208788000Y-89916000D03*
G04 #@! TO.P,XA1,D48,D48*
G04 #@! TO.N,unconnected-(XA1-PadD48)*
X206248000Y-92456000D03*
G04 #@! TO.P,XA1,D49,D49*
G04 #@! TO.N,unconnected-(XA1-PadD49)*
X208788000Y-92456000D03*
G04 #@! TO.P,XA1,D50,D50*
G04 #@! TO.N,unconnected-(XA1-PadD50)*
X206248000Y-94996000D03*
G04 #@! TO.P,XA1,D51,D51*
G04 #@! TO.N,Net-(R1-Pad1)*
X208788000Y-94996000D03*
G04 #@! TO.P,XA1,D52,D52*
G04 #@! TO.N,Net-(R2-Pad1)*
X206248000Y-97536000D03*
G04 #@! TO.P,XA1,D53,D53_SS*
G04 #@! TO.N,unconnected-(XA1-D53_SS-PadD53)*
X208788000Y-97536000D03*
D14*
G04 #@! TO.P,XA1,GND1,GND*
G04 #@! TO.N,GND*
X138684000Y-56896000D03*
G04 #@! TO.P,XA1,GND2,GND*
X152908000Y-105156000D03*
G04 #@! TO.P,XA1,GND3,GND*
X155448000Y-105156000D03*
G04 #@! TO.P,XA1,GND5,GND*
X206248000Y-100076000D03*
G04 #@! TO.P,XA1,GND6,GND*
X208788000Y-100076000D03*
D13*
G04 #@! TO.P,XA1,IORF,IOREF*
G04 #@! TO.N,unconnected-(XA1-IOREF-PadIORF)*
X142748000Y-105156000D03*
G04 #@! TO.P,XA1,RST1,RESET*
G04 #@! TO.N,Net-(SW1-B)*
X145288000Y-105156000D03*
G04 #@! TO.P,XA1,SCL,SCL*
G04 #@! TO.N,unconnected-(XA1-PadSCL)*
X131064000Y-56896000D03*
G04 #@! TO.P,XA1,SDA,SDA*
G04 #@! TO.N,unconnected-(XA1-PadSDA)*
X133604000Y-56896000D03*
G04 #@! TO.P,XA1,VIN,VIN*
G04 #@! TO.N,unconnected-(XA1-PadVIN)*
X157988000Y-105156000D03*
G04 #@! TD*
D15*
G04 #@! TO.P,U1,1,S*
G04 #@! TO.N,/S*
X145135600Y-82042000D03*
D16*
G04 #@! TO.P,U1,2,A0*
G04 #@! TO.N,/A0*
X147675600Y-82042000D03*
G04 #@! TO.P,U1,3,A7*
G04 #@! TO.N,/A7*
X150215600Y-82042000D03*
G04 #@! TO.P,U1,4,DMA0*
G04 #@! TO.N,/DMA0*
X152755600Y-82042000D03*
G04 #@! TO.P,U1,5,A1*
G04 #@! TO.N,/A1*
X155295600Y-82042000D03*
G04 #@! TO.P,U1,6,A8*
G04 #@! TO.N,/A8*
X157835600Y-82042000D03*
G04 #@! TO.P,U1,7,DMA4*
G04 #@! TO.N,/DMA1*
X160375600Y-82042000D03*
G04 #@! TO.P,U1,8,A2*
G04 #@! TO.N,/A2*
X162915600Y-82042000D03*
G04 #@! TO.P,U1,9,A9*
G04 #@! TO.N,/A9*
X165455600Y-82042000D03*
G04 #@! TO.P,U1,10,DMA2*
G04 #@! TO.N,/DMA2*
X167995600Y-82042000D03*
G04 #@! TO.P,U1,11,A3*
G04 #@! TO.N,/A3*
X170535600Y-82042000D03*
G04 #@! TO.P,U1,12,A10*
G04 #@! TO.N,/A10*
X173075600Y-82042000D03*
G04 #@! TO.P,U1,13,DMA3*
G04 #@! TO.N,/DMA3*
X175615600Y-82042000D03*
G04 #@! TO.P,U1,14,A4*
G04 #@! TO.N,/A4*
X178155600Y-82042000D03*
G04 #@! TO.P,U1,15,A11*
G04 #@! TO.N,/A11*
X180695600Y-82042000D03*
G04 #@! TO.P,U1,16,DMA4*
G04 #@! TO.N,/DMA4*
X183235600Y-82042000D03*
G04 #@! TO.P,U1,17,A5*
G04 #@! TO.N,/A5*
X185775600Y-82042000D03*
G04 #@! TO.P,U1,18,A12*
G04 #@! TO.N,/A12*
X188315600Y-82042000D03*
G04 #@! TO.P,U1,19,DMA5*
G04 #@! TO.N,/DMA5*
X190855600Y-82042000D03*
G04 #@! TO.P,U1,20,VSS*
G04 #@! TO.N,GND*
X193395600Y-82042000D03*
G04 #@! TO.P,U1,21,A6*
G04 #@! TO.N,/A6*
X193395600Y-66802000D03*
G04 #@! TO.P,U1,22,A13*
G04 #@! TO.N,/A13*
X190855600Y-66802000D03*
G04 #@! TO.P,U1,23,DMA6*
G04 #@! TO.N,/DMA6*
X188315600Y-66802000D03*
G04 #@! TO.P,U1,24,3A*
G04 #@! TO.N,/3A*
X185775600Y-66802000D03*
G04 #@! TO.P,U1,25,3B*
G04 #@! TO.N,/3B*
X183235600Y-66802000D03*
G04 #@! TO.P,U1,26,MA7*
G04 #@! TO.N,/MA7*
X180695600Y-66802000D03*
G04 #@! TO.P,U1,27,MA6*
G04 #@! TO.N,/MA6*
X178155600Y-66802000D03*
G04 #@! TO.P,U1,28,MA5*
G04 #@! TO.N,/MA5*
X175615600Y-66802000D03*
G04 #@! TO.P,U1,29,MA4*
G04 #@! TO.N,/MA4*
X173075600Y-66802000D03*
G04 #@! TO.P,U1,30,MA3*
G04 #@! TO.N,/MA3*
X170535600Y-66802000D03*
G04 #@! TO.P,U1,31,MA2*
G04 #@! TO.N,/MA2*
X167995600Y-66802000D03*
G04 #@! TO.P,U1,32,MA1*
G04 #@! TO.N,/MA1*
X165455600Y-66802000D03*
G04 #@! TO.P,U1,33,MA0*
G04 #@! TO.N,/MA0*
X162915600Y-66802000D03*
G04 #@! TO.P,U1,34,CASL*
G04 #@! TO.N,/CASL*
X160375600Y-66802000D03*
G04 #@! TO.P,U1,35,MQRDL*
G04 #@! TO.N,/MQRDL*
X157835600Y-66802000D03*
G04 #@! TO.P,U1,36,MRQ*
G04 #@! TO.N,/MRQ*
X155295600Y-66802000D03*
G04 #@! TO.P,U1,37,A15*
G04 #@! TO.N,/A15*
X152755600Y-66802000D03*
G04 #@! TO.P,U1,38,RD*
G04 #@! TO.N,/RD*
X150215600Y-66802000D03*
G04 #@! TO.P,U1,39,WR*
G04 #@! TO.N,/WR*
X147675600Y-66802000D03*
G04 #@! TO.P,U1,40,VCC*
G04 #@! TO.N,+5V*
X145135600Y-66802000D03*
G04 #@! TD*
D17*
G04 #@! TO.N,GND*
X150570000Y-93319600D02*
X144070000Y-93319600D01*
X152654000Y-104902000D02*
X152654000Y-94488000D01*
X193395600Y-89255600D02*
X193395600Y-82042000D01*
X138684000Y-56896000D02*
X138684000Y-91186000D01*
X206248000Y-100076000D02*
X204216000Y-100076000D01*
X138684000Y-91186000D02*
X140817600Y-93319600D01*
X155448000Y-105156000D02*
X152908000Y-105156000D01*
X204216000Y-100076000D02*
X193395600Y-89255600D01*
X151485600Y-93319600D02*
X150570000Y-93319600D01*
X152654000Y-94488000D02*
X151485600Y-93319600D01*
X140817600Y-93319600D02*
X144070000Y-93319600D01*
X208788000Y-100076000D02*
X206248000Y-100076000D01*
X152908000Y-105156000D02*
X152654000Y-104902000D01*
D18*
G04 #@! TO.N,Net-(SW1-B)*
X150570000Y-97819600D02*
X144070000Y-97819600D01*
G04 #@! TD*
G04 #@! TA.AperFunction,Conductor*
G04 #@! TO.N,GND*
G36*
X154974619Y-104959919D02*
G01*
X154940000Y-105089120D01*
X154940000Y-105222880D01*
X154974619Y-105352081D01*
X155005749Y-105406000D01*
X153350251Y-105406000D01*
X153381381Y-105352081D01*
X153416000Y-105222880D01*
X153416000Y-105089120D01*
X153381381Y-104959919D01*
X153350251Y-104906000D01*
X155005749Y-104906000D01*
X154974619Y-104959919D01*
G37*
G04 #@! TD.AperFunction*
G04 #@! TA.AperFunction,Conductor*
G36*
X208314619Y-99879919D02*
G01*
X208280000Y-100009120D01*
X208280000Y-100142880D01*
X208314619Y-100272081D01*
X208345749Y-100326000D01*
X206690251Y-100326000D01*
X206721381Y-100272081D01*
X206756000Y-100142880D01*
X206756000Y-100009120D01*
X206721381Y-99879919D01*
X206690251Y-99826000D01*
X208345749Y-99826000D01*
X208314619Y-99879919D01*
G37*
G04 #@! TD.AperFunction*
G04 #@! TA.AperFunction,Conductor*
G36*
X209554418Y-54602816D02*
G01*
X209759111Y-54617455D01*
X209776620Y-54619973D01*
X209972813Y-54662653D01*
X209989768Y-54667630D01*
X210177909Y-54737803D01*
X210193987Y-54745147D01*
X210370210Y-54841371D01*
X210385084Y-54850929D01*
X210545822Y-54971257D01*
X210559192Y-54982843D01*
X210701156Y-55124807D01*
X210712742Y-55138177D01*
X210833066Y-55298910D01*
X210842631Y-55313794D01*
X210938850Y-55490007D01*
X210946198Y-55506096D01*
X211009275Y-55675212D01*
X211016364Y-55694217D01*
X211021348Y-55711193D01*
X211064026Y-55907379D01*
X211066544Y-55924891D01*
X211081184Y-56129581D01*
X211081500Y-56138427D01*
X211081500Y-105913572D01*
X211081184Y-105922418D01*
X211066544Y-106127108D01*
X211064026Y-106144620D01*
X211021348Y-106340806D01*
X211016364Y-106357780D01*
X211009274Y-106376790D01*
X210946200Y-106545899D01*
X210938850Y-106561992D01*
X210842631Y-106738205D01*
X210833066Y-106753089D01*
X210712742Y-106913822D01*
X210701156Y-106927192D01*
X210559192Y-107069156D01*
X210545822Y-107080742D01*
X210385089Y-107201066D01*
X210370205Y-107210631D01*
X210193992Y-107306850D01*
X210177899Y-107314200D01*
X209989782Y-107384364D01*
X209972806Y-107389348D01*
X209776620Y-107432026D01*
X209759108Y-107434544D01*
X209554418Y-107449184D01*
X209545572Y-107449500D01*
X128528428Y-107449500D01*
X128519582Y-107449184D01*
X128314891Y-107434544D01*
X128297379Y-107432026D01*
X128101193Y-107389348D01*
X128084222Y-107384365D01*
X127896096Y-107314198D01*
X127880007Y-107306850D01*
X127703794Y-107210631D01*
X127688910Y-107201066D01*
X127528177Y-107080742D01*
X127514807Y-107069156D01*
X127372843Y-106927192D01*
X127361257Y-106913822D01*
X127240929Y-106753084D01*
X127231371Y-106738210D01*
X127164554Y-106615842D01*
X202947383Y-106615842D01*
X209797668Y-106615842D01*
X209797668Y-104470396D01*
X202947383Y-104470396D01*
X202947383Y-106615842D01*
X127164554Y-106615842D01*
X127135147Y-106561987D01*
X127127803Y-106545909D01*
X127057630Y-106357768D01*
X127052653Y-106340813D01*
X127009973Y-106144620D01*
X127007455Y-106127108D01*
X126998130Y-105996727D01*
X126992816Y-105922418D01*
X126992500Y-105913572D01*
X126992500Y-105155993D01*
X138839225Y-105155993D01*
X138839225Y-105156006D01*
X138857892Y-105381289D01*
X138913388Y-105600439D01*
X139004198Y-105807466D01*
X139127842Y-105996716D01*
X139127850Y-105996727D01*
X139263997Y-106144620D01*
X139280954Y-106163040D01*
X139459351Y-106301893D01*
X139658169Y-106409488D01*
X139658172Y-106409489D01*
X139871982Y-106482890D01*
X139871984Y-106482890D01*
X139871986Y-106482891D01*
X140094967Y-106520100D01*
X140094968Y-106520100D01*
X140321032Y-106520100D01*
X140321033Y-106520100D01*
X140544014Y-106482891D01*
X140757831Y-106409488D01*
X140956649Y-106301893D01*
X141135046Y-106163040D01*
X141288156Y-105996719D01*
X141374193Y-105865028D01*
X141427338Y-105819675D01*
X141496569Y-105810251D01*
X141559905Y-105839753D01*
X141581804Y-105865025D01*
X141667844Y-105996719D01*
X141667849Y-105996724D01*
X141667850Y-105996727D01*
X141803997Y-106144620D01*
X141820954Y-106163040D01*
X141999351Y-106301893D01*
X142198169Y-106409488D01*
X142198172Y-106409489D01*
X142411982Y-106482890D01*
X142411984Y-106482890D01*
X142411986Y-106482891D01*
X142634967Y-106520100D01*
X142634968Y-106520100D01*
X142861032Y-106520100D01*
X142861033Y-106520100D01*
X143084014Y-106482891D01*
X143297831Y-106409488D01*
X143496649Y-106301893D01*
X143675046Y-106163040D01*
X143828156Y-105996719D01*
X143914193Y-105865028D01*
X143967338Y-105819675D01*
X144036569Y-105810251D01*
X144099905Y-105839753D01*
X144121804Y-105865025D01*
X144207844Y-105996719D01*
X144207849Y-105996724D01*
X144207850Y-105996727D01*
X144343997Y-106144620D01*
X144360954Y-106163040D01*
X144539351Y-106301893D01*
X144738169Y-106409488D01*
X144738172Y-106409489D01*
X144951982Y-106482890D01*
X144951984Y-106482890D01*
X144951986Y-106482891D01*
X145174967Y-106520100D01*
X145174968Y-106520100D01*
X145401032Y-106520100D01*
X145401033Y-106520100D01*
X145624014Y-106482891D01*
X145837831Y-106409488D01*
X146036649Y-106301893D01*
X146215046Y-106163040D01*
X146368156Y-105996719D01*
X146454193Y-105865028D01*
X146507338Y-105819675D01*
X146576569Y-105810251D01*
X146639905Y-105839753D01*
X146661804Y-105865025D01*
X146747844Y-105996719D01*
X146747849Y-105996724D01*
X146747850Y-105996727D01*
X146883997Y-106144620D01*
X146900954Y-106163040D01*
X147079351Y-106301893D01*
X147278169Y-106409488D01*
X147278172Y-106409489D01*
X147491982Y-106482890D01*
X147491984Y-106482890D01*
X147491986Y-106482891D01*
X147714967Y-106520100D01*
X147714968Y-106520100D01*
X147941032Y-106520100D01*
X147941033Y-106520100D01*
X148164014Y-106482891D01*
X148377831Y-106409488D01*
X148576649Y-106301893D01*
X148755046Y-106163040D01*
X148908156Y-105996719D01*
X148994193Y-105865028D01*
X149047338Y-105819675D01*
X149116569Y-105810251D01*
X149179905Y-105839753D01*
X149201804Y-105865025D01*
X149287844Y-105996719D01*
X149287849Y-105996724D01*
X149287850Y-105996727D01*
X149423997Y-106144620D01*
X149440954Y-106163040D01*
X149619351Y-106301893D01*
X149818169Y-106409488D01*
X149818172Y-106409489D01*
X150031982Y-106482890D01*
X150031984Y-106482890D01*
X150031986Y-106482891D01*
X150254967Y-106520100D01*
X150254968Y-106520100D01*
X150481032Y-106520100D01*
X150481033Y-106520100D01*
X150704014Y-106482891D01*
X150917831Y-106409488D01*
X151116649Y-106301893D01*
X151295046Y-106163040D01*
X151349815Y-106103545D01*
X151409699Y-106067557D01*
X151479537Y-106069657D01*
X151537153Y-106109180D01*
X151557224Y-106144196D01*
X151601046Y-106261688D01*
X151601049Y-106261693D01*
X151687209Y-106376787D01*
X151687212Y-106376790D01*
X151802306Y-106462950D01*
X151802313Y-106462954D01*
X151937020Y-106513196D01*
X151937027Y-106513198D01*
X151996555Y-106519599D01*
X151996572Y-106519600D01*
X152658000Y-106519600D01*
X152658000Y-105598251D01*
X152711919Y-105629381D01*
X152841120Y-105664000D01*
X152974880Y-105664000D01*
X153104081Y-105629381D01*
X153158000Y-105598251D01*
X153158000Y-106519600D01*
X153819428Y-106519600D01*
X153819444Y-106519599D01*
X153878972Y-106513198D01*
X153878979Y-106513196D01*
X154013686Y-106462954D01*
X154013689Y-106462952D01*
X154103688Y-106395579D01*
X154169152Y-106371161D01*
X154237426Y-106386012D01*
X154252312Y-106395579D01*
X154342310Y-106462952D01*
X154342313Y-106462954D01*
X154477020Y-106513196D01*
X154477027Y-106513198D01*
X154536555Y-106519599D01*
X154536572Y-106519600D01*
X155198000Y-106519600D01*
X155198000Y-105598251D01*
X155251919Y-105629381D01*
X155381120Y-105664000D01*
X155514880Y-105664000D01*
X155644081Y-105629381D01*
X155698000Y-105598251D01*
X155698000Y-106519600D01*
X156359428Y-106519600D01*
X156359444Y-106519599D01*
X156418972Y-106513198D01*
X156418979Y-106513196D01*
X156553686Y-106462954D01*
X156553693Y-106462950D01*
X156668787Y-106376790D01*
X156668790Y-106376787D01*
X156754950Y-106261693D01*
X156754954Y-106261686D01*
X156798775Y-106144197D01*
X156840646Y-106088263D01*
X156906110Y-106063846D01*
X156974383Y-106078698D01*
X157006186Y-106103547D01*
X157043997Y-106144620D01*
X157060954Y-106163040D01*
X157239351Y-106301893D01*
X157438169Y-106409488D01*
X157438172Y-106409489D01*
X157651982Y-106482890D01*
X157651984Y-106482890D01*
X157651986Y-106482891D01*
X157874967Y-106520100D01*
X157874968Y-106520100D01*
X158101032Y-106520100D01*
X158101033Y-106520100D01*
X158324014Y-106482891D01*
X158537831Y-106409488D01*
X158736649Y-106301893D01*
X158915046Y-106163040D01*
X159068156Y-105996719D01*
X159191802Y-105807465D01*
X159282611Y-105600441D01*
X159338107Y-105381293D01*
X159345574Y-105291175D01*
X159356775Y-105156006D01*
X159356775Y-105155993D01*
X161699225Y-105155993D01*
X161699225Y-105156006D01*
X161717892Y-105381289D01*
X161773388Y-105600439D01*
X161864198Y-105807466D01*
X161987842Y-105996716D01*
X161987850Y-105996727D01*
X162123997Y-106144620D01*
X162140954Y-106163040D01*
X162319351Y-106301893D01*
X162518169Y-106409488D01*
X162518172Y-106409489D01*
X162731982Y-106482890D01*
X162731984Y-106482890D01*
X162731986Y-106482891D01*
X162954967Y-106520100D01*
X162954968Y-106520100D01*
X163181032Y-106520100D01*
X163181033Y-106520100D01*
X163404014Y-106482891D01*
X163617831Y-106409488D01*
X163816649Y-106301893D01*
X163995046Y-106163040D01*
X164148156Y-105996719D01*
X164234193Y-105865028D01*
X164287338Y-105819675D01*
X164356569Y-105810251D01*
X164419905Y-105839753D01*
X164441804Y-105865025D01*
X164527844Y-105996719D01*
X164527849Y-105996724D01*
X164527850Y-105996727D01*
X164663997Y-106144620D01*
X164680954Y-106163040D01*
X164859351Y-106301893D01*
X165058169Y-106409488D01*
X165058172Y-106409489D01*
X165271982Y-106482890D01*
X165271984Y-106482890D01*
X165271986Y-106482891D01*
X165494967Y-106520100D01*
X165494968Y-106520100D01*
X165721032Y-106520100D01*
X165721033Y-106520100D01*
X165944014Y-106482891D01*
X166157831Y-106409488D01*
X166356649Y-106301893D01*
X166535046Y-106163040D01*
X166688156Y-105996719D01*
X166774193Y-105865028D01*
X166827338Y-105819675D01*
X166896569Y-105810251D01*
X166959905Y-105839753D01*
X166981804Y-105865025D01*
X167067844Y-105996719D01*
X167067849Y-105996724D01*
X167067850Y-105996727D01*
X167203997Y-106144620D01*
X167220954Y-106163040D01*
X167399351Y-106301893D01*
X167598169Y-106409488D01*
X167598172Y-106409489D01*
X167811982Y-106482890D01*
X167811984Y-106482890D01*
X167811986Y-106482891D01*
X168034967Y-106520100D01*
X168034968Y-106520100D01*
X168261032Y-106520100D01*
X168261033Y-106520100D01*
X168484014Y-106482891D01*
X168697831Y-106409488D01*
X168896649Y-106301893D01*
X169075046Y-106163040D01*
X169228156Y-105996719D01*
X169314193Y-105865028D01*
X169367338Y-105819675D01*
X169436569Y-105810251D01*
X169499905Y-105839753D01*
X169521804Y-105865025D01*
X169607844Y-105996719D01*
X169607849Y-105996724D01*
X169607850Y-105996727D01*
X169743997Y-106144620D01*
X169760954Y-106163040D01*
X169939351Y-106301893D01*
X170138169Y-106409488D01*
X170138172Y-106409489D01*
X170351982Y-106482890D01*
X170351984Y-106482890D01*
X170351986Y-106482891D01*
X170574967Y-106520100D01*
X170574968Y-106520100D01*
X170801032Y-106520100D01*
X170801033Y-106520100D01*
X171024014Y-106482891D01*
X171237831Y-106409488D01*
X171436649Y-106301893D01*
X171615046Y-106163040D01*
X171768156Y-105996719D01*
X171854193Y-105865028D01*
X171907338Y-105819675D01*
X171976569Y-105810251D01*
X172039905Y-105839753D01*
X172061804Y-105865025D01*
X172147844Y-105996719D01*
X172147849Y-105996724D01*
X172147850Y-105996727D01*
X172283997Y-106144620D01*
X172300954Y-106163040D01*
X172479351Y-106301893D01*
X172678169Y-106409488D01*
X172678172Y-106409489D01*
X172891982Y-106482890D01*
X172891984Y-106482890D01*
X172891986Y-106482891D01*
X173114967Y-106520100D01*
X173114968Y-106520100D01*
X173341032Y-106520100D01*
X173341033Y-106520100D01*
X173564014Y-106482891D01*
X173777831Y-106409488D01*
X173976649Y-106301893D01*
X174155046Y-106163040D01*
X174308156Y-105996719D01*
X174394193Y-105865028D01*
X174447338Y-105819675D01*
X174516569Y-105810251D01*
X174579905Y-105839753D01*
X174601804Y-105865025D01*
X174687844Y-105996719D01*
X174687849Y-105996724D01*
X174687850Y-105996727D01*
X174823997Y-106144620D01*
X174840954Y-106163040D01*
X175019351Y-106301893D01*
X175218169Y-106409488D01*
X175218172Y-106409489D01*
X175431982Y-106482890D01*
X175431984Y-106482890D01*
X175431986Y-106482891D01*
X175654967Y-106520100D01*
X175654968Y-106520100D01*
X175881032Y-106520100D01*
X175881033Y-106520100D01*
X176104014Y-106482891D01*
X176317831Y-106409488D01*
X176516649Y-106301893D01*
X176695046Y-106163040D01*
X176848156Y-105996719D01*
X176934193Y-105865028D01*
X176987338Y-105819675D01*
X177056569Y-105810251D01*
X177119905Y-105839753D01*
X177141804Y-105865025D01*
X177227844Y-105996719D01*
X177227849Y-105996724D01*
X177227850Y-105996727D01*
X177363997Y-106144620D01*
X177380954Y-106163040D01*
X177559351Y-106301893D01*
X177758169Y-106409488D01*
X177758172Y-106409489D01*
X177971982Y-106482890D01*
X177971984Y-106482890D01*
X177971986Y-106482891D01*
X178194967Y-106520100D01*
X178194968Y-106520100D01*
X178421032Y-106520100D01*
X178421033Y-106520100D01*
X178644014Y-106482891D01*
X178857831Y-106409488D01*
X179056649Y-106301893D01*
X179235046Y-106163040D01*
X179388156Y-105996719D01*
X179474193Y-105865028D01*
X179527338Y-105819675D01*
X179596569Y-105810251D01*
X179659905Y-105839753D01*
X179681804Y-105865025D01*
X179767844Y-105996719D01*
X179767849Y-105996724D01*
X179767850Y-105996727D01*
X179903997Y-106144620D01*
X179920954Y-106163040D01*
X180099351Y-106301893D01*
X180298169Y-106409488D01*
X180298172Y-106409489D01*
X180511982Y-106482890D01*
X180511984Y-106482890D01*
X180511986Y-106482891D01*
X180734967Y-106520100D01*
X180734968Y-106520100D01*
X180961032Y-106520100D01*
X180961033Y-106520100D01*
X181184014Y-106482891D01*
X181397831Y-106409488D01*
X181596649Y-106301893D01*
X181775046Y-106163040D01*
X181928156Y-105996719D01*
X182051802Y-105807465D01*
X182142611Y-105600441D01*
X182198107Y-105381293D01*
X182205574Y-105291175D01*
X182216775Y-105156006D01*
X182216775Y-105155993D01*
X182203707Y-104998294D01*
X182198107Y-104930707D01*
X182142611Y-104711559D01*
X182051802Y-104504535D01*
X181928156Y-104315281D01*
X181928153Y-104315278D01*
X181928149Y-104315272D01*
X181775049Y-104148963D01*
X181775048Y-104148962D01*
X181775046Y-104148960D01*
X181596649Y-104010107D01*
X181570390Y-103995896D01*
X181397832Y-103902512D01*
X181397827Y-103902510D01*
X181184017Y-103829109D01*
X181002388Y-103798801D01*
X180961033Y-103791900D01*
X180734967Y-103791900D01*
X180693612Y-103798801D01*
X180511982Y-103829109D01*
X180298172Y-103902510D01*
X180298167Y-103902512D01*
X180099352Y-104010106D01*
X179920955Y-104148959D01*
X179920950Y-104148963D01*
X179767850Y-104315272D01*
X179767842Y-104315283D01*
X179681808Y-104446968D01*
X179628662Y-104492325D01*
X179559430Y-104501748D01*
X179496095Y-104472246D01*
X179474192Y-104446968D01*
X179388157Y-104315283D01*
X179388149Y-104315272D01*
X179235049Y-104148963D01*
X179235048Y-104148962D01*
X179235046Y-104148960D01*
X179056649Y-104010107D01*
X179030390Y-103995896D01*
X178857832Y-103902512D01*
X178857827Y-103902510D01*
X178644017Y-103829109D01*
X178462388Y-103798801D01*
X178421033Y-103791900D01*
X178194967Y-103791900D01*
X178153612Y-103798801D01*
X177971982Y-103829109D01*
X177758172Y-103902510D01*
X177758167Y-103902512D01*
X177559352Y-104010106D01*
X177380955Y-104148959D01*
X177380950Y-104148963D01*
X177227850Y-104315272D01*
X177227842Y-104315283D01*
X177141808Y-104446968D01*
X177088662Y-104492325D01*
X177019430Y-104501748D01*
X176956095Y-104472246D01*
X176934192Y-104446968D01*
X176848157Y-104315283D01*
X176848149Y-104315272D01*
X176695049Y-104148963D01*
X176695048Y-104148962D01*
X176695046Y-104148960D01*
X176516649Y-104010107D01*
X176490390Y-103995896D01*
X176317832Y-103902512D01*
X176317827Y-103902510D01*
X176104017Y-103829109D01*
X175922388Y-103798801D01*
X175881033Y-103791900D01*
X175654967Y-103791900D01*
X175613612Y-103798801D01*
X175431982Y-103829109D01*
X175218172Y-103902510D01*
X175218167Y-103902512D01*
X175019352Y-104010106D01*
X174840955Y-104148959D01*
X174840950Y-104148963D01*
X174687850Y-104315272D01*
X174687842Y-104315283D01*
X174601808Y-104446968D01*
X174548662Y-104492325D01*
X174479430Y-104501748D01*
X174416095Y-104472246D01*
X174394192Y-104446968D01*
X174308157Y-104315283D01*
X174308149Y-104315272D01*
X174155049Y-104148963D01*
X174155048Y-104148962D01*
X174155046Y-104148960D01*
X173976649Y-104010107D01*
X173950390Y-103995896D01*
X173777832Y-103902512D01*
X173777827Y-103902510D01*
X173564017Y-103829109D01*
X173382388Y-103798801D01*
X173341033Y-103791900D01*
X173114967Y-103791900D01*
X173073612Y-103798801D01*
X172891982Y-103829109D01*
X172678172Y-103902510D01*
X172678167Y-103902512D01*
X172479352Y-104010106D01*
X172300955Y-104148959D01*
X172300950Y-104148963D01*
X172147850Y-104315272D01*
X172147842Y-104315283D01*
X172061808Y-104446968D01*
X172008662Y-104492325D01*
X171939430Y-104501748D01*
X171876095Y-104472246D01*
X171854192Y-104446968D01*
X171768157Y-104315283D01*
X171768149Y-104315272D01*
X171615049Y-104148963D01*
X171615048Y-104148962D01*
X171615046Y-104148960D01*
X171436649Y-104010107D01*
X171410390Y-103995896D01*
X171237832Y-103902512D01*
X171237827Y-103902510D01*
X171024017Y-103829109D01*
X170842388Y-103798801D01*
X170801033Y-103791900D01*
X170574967Y-103791900D01*
X170533612Y-103798801D01*
X170351982Y-103829109D01*
X170138172Y-103902510D01*
X170138167Y-103902512D01*
X169939352Y-104010106D01*
X169760955Y-104148959D01*
X169760950Y-104148963D01*
X169607850Y-104315272D01*
X169607842Y-104315283D01*
X169521808Y-104446968D01*
X169468662Y-104492325D01*
X169399430Y-104501748D01*
X169336095Y-104472246D01*
X169314192Y-104446968D01*
X169228157Y-104315283D01*
X169228149Y-104315272D01*
X169075049Y-104148963D01*
X169075048Y-104148962D01*
X169075046Y-104148960D01*
X168896649Y-104010107D01*
X168870390Y-103995896D01*
X168697832Y-103902512D01*
X168697827Y-103902510D01*
X168484017Y-103829109D01*
X168302388Y-103798801D01*
X168261033Y-103791900D01*
X168034967Y-103791900D01*
X167993612Y-103798801D01*
X167811982Y-103829109D01*
X167598172Y-103902510D01*
X167598167Y-103902512D01*
X167399352Y-104010106D01*
X167220955Y-104148959D01*
X167220950Y-104148963D01*
X167067850Y-104315272D01*
X167067842Y-104315283D01*
X166981808Y-104446968D01*
X166928662Y-104492325D01*
X166859430Y-104501748D01*
X166796095Y-104472246D01*
X166774192Y-104446968D01*
X166688157Y-104315283D01*
X166688149Y-104315272D01*
X166535049Y-104148963D01*
X166535048Y-104148962D01*
X166535046Y-104148960D01*
X166356649Y-104010107D01*
X166330390Y-103995896D01*
X166157832Y-103902512D01*
X166157827Y-103902510D01*
X165944017Y-103829109D01*
X165762388Y-103798801D01*
X165721033Y-103791900D01*
X165494967Y-103791900D01*
X165453612Y-103798801D01*
X165271982Y-103829109D01*
X165058172Y-103902510D01*
X165058167Y-103902512D01*
X164859352Y-104010106D01*
X164680955Y-104148959D01*
X164680950Y-104148963D01*
X164527850Y-104315272D01*
X164527842Y-104315283D01*
X164441808Y-104446968D01*
X164388662Y-104492325D01*
X164319430Y-104501748D01*
X164256095Y-104472246D01*
X164234192Y-104446968D01*
X164148157Y-104315283D01*
X164148149Y-104315272D01*
X163995049Y-104148963D01*
X163995048Y-104148962D01*
X163995046Y-104148960D01*
X163816649Y-104010107D01*
X163790390Y-103995896D01*
X163617832Y-103902512D01*
X163617827Y-103902510D01*
X163404017Y-103829109D01*
X163222388Y-103798801D01*
X163181033Y-103791900D01*
X162954967Y-103791900D01*
X162913612Y-103798801D01*
X162731982Y-103829109D01*
X162518172Y-103902510D01*
X162518167Y-103902512D01*
X162319352Y-104010106D01*
X162140955Y-104148959D01*
X162140950Y-104148963D01*
X161987850Y-104315272D01*
X161987842Y-104315283D01*
X161864198Y-104504533D01*
X161773388Y-104711560D01*
X161717892Y-104930710D01*
X161699225Y-105155993D01*
X159356775Y-105155993D01*
X159343707Y-104998294D01*
X159338107Y-104930707D01*
X159282611Y-104711559D01*
X159191802Y-104504535D01*
X159068156Y-104315281D01*
X159068153Y-104315278D01*
X159068149Y-104315272D01*
X158915049Y-104148963D01*
X158915048Y-104148962D01*
X158915046Y-104148960D01*
X158736649Y-104010107D01*
X158710390Y-103995896D01*
X158537832Y-103902512D01*
X158537827Y-103902510D01*
X158324017Y-103829109D01*
X158142388Y-103798801D01*
X158101033Y-103791900D01*
X157874967Y-103791900D01*
X157833612Y-103798801D01*
X157651982Y-103829109D01*
X157438172Y-103902510D01*
X157438167Y-103902512D01*
X157239352Y-104010106D01*
X157060955Y-104148958D01*
X157006186Y-104208453D01*
X156946298Y-104244443D01*
X156876460Y-104242342D01*
X156818845Y-104202817D01*
X156798775Y-104167802D01*
X156754954Y-104050313D01*
X156754950Y-104050306D01*
X156668790Y-103935212D01*
X156668787Y-103935209D01*
X156553693Y-103849049D01*
X156553686Y-103849045D01*
X156418979Y-103798803D01*
X156418972Y-103798801D01*
X156359444Y-103792400D01*
X155698000Y-103792400D01*
X155698000Y-104713748D01*
X155644081Y-104682619D01*
X155514880Y-104648000D01*
X155381120Y-104648000D01*
X155251919Y-104682619D01*
X155198000Y-104713748D01*
X155198000Y-103792400D01*
X154536555Y-103792400D01*
X154477027Y-103798801D01*
X154477020Y-103798803D01*
X154342313Y-103849045D01*
X154342311Y-103849047D01*
X154252311Y-103916421D01*
X154186847Y-103940838D01*
X154118574Y-103925987D01*
X154103689Y-103916421D01*
X154013688Y-103849047D01*
X154013686Y-103849045D01*
X153878979Y-103798803D01*
X153878972Y-103798801D01*
X153819444Y-103792400D01*
X153158000Y-103792400D01*
X153158000Y-104713748D01*
X153104081Y-104682619D01*
X152974880Y-104648000D01*
X152841120Y-104648000D01*
X152711919Y-104682619D01*
X152658000Y-104713748D01*
X152658000Y-103792400D01*
X151996555Y-103792400D01*
X151937027Y-103798801D01*
X151937020Y-103798803D01*
X151802313Y-103849045D01*
X151802306Y-103849049D01*
X151687212Y-103935209D01*
X151687209Y-103935212D01*
X151601049Y-104050306D01*
X151601046Y-104050312D01*
X151557224Y-104167803D01*
X151515352Y-104223736D01*
X151449887Y-104248153D01*
X151381615Y-104233301D01*
X151349813Y-104208452D01*
X151295049Y-104148963D01*
X151295048Y-104148962D01*
X151295046Y-104148960D01*
X151116649Y-104010107D01*
X151090390Y-103995896D01*
X150917832Y-103902512D01*
X150917827Y-103902510D01*
X150704017Y-103829109D01*
X150522388Y-103798801D01*
X150481033Y-103791900D01*
X150254967Y-103791900D01*
X150213612Y-103798801D01*
X150031982Y-103829109D01*
X149818172Y-103902510D01*
X149818167Y-103902512D01*
X149619352Y-104010106D01*
X149440955Y-104148959D01*
X149440950Y-104148963D01*
X149287850Y-104315272D01*
X149287842Y-104315283D01*
X149201808Y-104446968D01*
X149148662Y-104492325D01*
X149079430Y-104501748D01*
X149016095Y-104472246D01*
X148994192Y-104446968D01*
X148908157Y-104315283D01*
X148908149Y-104315272D01*
X148755049Y-104148963D01*
X148755048Y-104148962D01*
X148755046Y-104148960D01*
X148576649Y-104010107D01*
X148550390Y-103995896D01*
X148377832Y-103902512D01*
X148377827Y-103902510D01*
X148164017Y-103829109D01*
X147982388Y-103798801D01*
X147941033Y-103791900D01*
X147714967Y-103791900D01*
X147673612Y-103798801D01*
X147491982Y-103829109D01*
X147278172Y-103902510D01*
X147278167Y-103902512D01*
X147079352Y-104010106D01*
X146900955Y-104148959D01*
X146900950Y-104148963D01*
X146747850Y-104315272D01*
X146747842Y-104315283D01*
X146661808Y-104446968D01*
X146608662Y-104492325D01*
X146539430Y-104501748D01*
X146476095Y-104472246D01*
X146454192Y-104446968D01*
X146368157Y-104315283D01*
X146368149Y-104315272D01*
X146215049Y-104148963D01*
X146215048Y-104148962D01*
X146215046Y-104148960D01*
X146036649Y-104010107D01*
X146010390Y-103995896D01*
X145837832Y-103902512D01*
X145837827Y-103902510D01*
X145624017Y-103829109D01*
X145442388Y-103798801D01*
X145401033Y-103791900D01*
X145174967Y-103791900D01*
X145133612Y-103798801D01*
X144951982Y-103829109D01*
X144738172Y-103902510D01*
X144738167Y-103902512D01*
X144539352Y-104010106D01*
X144360955Y-104148959D01*
X144360950Y-104148963D01*
X144207850Y-104315272D01*
X144207842Y-104315283D01*
X144121808Y-104446968D01*
X144068662Y-104492325D01*
X143999430Y-104501748D01*
X143936095Y-104472246D01*
X143914192Y-104446968D01*
X143828157Y-104315283D01*
X143828149Y-104315272D01*
X143675049Y-104148963D01*
X143675048Y-104148962D01*
X143675046Y-104148960D01*
X143496649Y-104010107D01*
X143470390Y-103995896D01*
X143297832Y-103902512D01*
X143297827Y-103902510D01*
X143084017Y-103829109D01*
X142902388Y-103798801D01*
X142861033Y-103791900D01*
X142634967Y-103791900D01*
X142593612Y-103798801D01*
X142411982Y-103829109D01*
X142198172Y-103902510D01*
X142198167Y-103902512D01*
X141999352Y-104010106D01*
X141820955Y-104148959D01*
X141820950Y-104148963D01*
X141667850Y-104315272D01*
X141667842Y-104315283D01*
X141581808Y-104446968D01*
X141528662Y-104492325D01*
X141459430Y-104501748D01*
X141396095Y-104472246D01*
X141374192Y-104446968D01*
X141288157Y-104315283D01*
X141288149Y-104315272D01*
X141135049Y-104148963D01*
X141135048Y-104148962D01*
X141135046Y-104148960D01*
X140956649Y-104010107D01*
X140930390Y-103995896D01*
X140757832Y-103902512D01*
X140757827Y-103902510D01*
X140544017Y-103829109D01*
X140362388Y-103798801D01*
X140321033Y-103791900D01*
X140094967Y-103791900D01*
X140053612Y-103798801D01*
X139871982Y-103829109D01*
X139658172Y-103902510D01*
X139658167Y-103902512D01*
X139459352Y-104010106D01*
X139280955Y-104148959D01*
X139280950Y-104148963D01*
X139127850Y-104315272D01*
X139127842Y-104315283D01*
X139004198Y-104504533D01*
X138913388Y-104711560D01*
X138857892Y-104930710D01*
X138839225Y-105155993D01*
X126992500Y-105155993D01*
X126992500Y-97819594D01*
X142564357Y-97819594D01*
X142564357Y-97819605D01*
X142584890Y-98067412D01*
X142584892Y-98067424D01*
X142645936Y-98308481D01*
X142745826Y-98536206D01*
X142881833Y-98744382D01*
X142881836Y-98744385D01*
X143050256Y-98927338D01*
X143246491Y-99080074D01*
X143465190Y-99198428D01*
X143700386Y-99279171D01*
X143945665Y-99320100D01*
X144194335Y-99320100D01*
X144439614Y-99279171D01*
X144674810Y-99198428D01*
X144893509Y-99080074D01*
X145089744Y-98927338D01*
X145258164Y-98744385D01*
X145394173Y-98536207D01*
X145394175Y-98536201D01*
X145394786Y-98535075D01*
X145395157Y-98534701D01*
X145396978Y-98531914D01*
X145397551Y-98532288D01*
X145444009Y-98485488D01*
X145503837Y-98470100D01*
X149136163Y-98470100D01*
X149203202Y-98489785D01*
X149242561Y-98532215D01*
X149243022Y-98531914D01*
X149244785Y-98534612D01*
X149245214Y-98535075D01*
X149245826Y-98536206D01*
X149381833Y-98744382D01*
X149381836Y-98744385D01*
X149550256Y-98927338D01*
X149746491Y-99080074D01*
X149965190Y-99198428D01*
X150200386Y-99279171D01*
X150445665Y-99320100D01*
X150694335Y-99320100D01*
X150939614Y-99279171D01*
X151174810Y-99198428D01*
X151393509Y-99080074D01*
X151589744Y-98927338D01*
X151758164Y-98744385D01*
X151894173Y-98536207D01*
X151994063Y-98308481D01*
X152055108Y-98067421D01*
X152057666Y-98036548D01*
X152075643Y-97819605D01*
X152075643Y-97819594D01*
X152055109Y-97571787D01*
X152055107Y-97571775D01*
X151994063Y-97330718D01*
X151894173Y-97102993D01*
X151758166Y-96894817D01*
X151695706Y-96826968D01*
X151589744Y-96711862D01*
X151393509Y-96559126D01*
X151393507Y-96559125D01*
X151393506Y-96559124D01*
X151174811Y-96440772D01*
X151174802Y-96440769D01*
X150939616Y-96360029D01*
X150694335Y-96319100D01*
X150445665Y-96319100D01*
X150200383Y-96360029D01*
X149965197Y-96440769D01*
X149965188Y-96440772D01*
X149746493Y-96559124D01*
X149550257Y-96711861D01*
X149381833Y-96894817D01*
X149245826Y-97102993D01*
X149245214Y-97104125D01*
X149244842Y-97104498D01*
X149243022Y-97107286D01*
X149242448Y-97106911D01*
X149195991Y-97153712D01*
X149136163Y-97169100D01*
X145503837Y-97169100D01*
X145436798Y-97149415D01*
X145397438Y-97106984D01*
X145396978Y-97107286D01*
X145395214Y-97104587D01*
X145394786Y-97104125D01*
X145394173Y-97102993D01*
X145258166Y-96894817D01*
X145195706Y-96826968D01*
X145089744Y-96711862D01*
X144893509Y-96559126D01*
X144893507Y-96559125D01*
X144893506Y-96559124D01*
X144674811Y-96440772D01*
X144674802Y-96440769D01*
X144439616Y-96360029D01*
X144194335Y-96319100D01*
X143945665Y-96319100D01*
X143700383Y-96360029D01*
X143465197Y-96440769D01*
X143465188Y-96440772D01*
X143246493Y-96559124D01*
X143050257Y-96711861D01*
X142881833Y-96894817D01*
X142745826Y-97102993D01*
X142645936Y-97330718D01*
X142584892Y-97571775D01*
X142584890Y-97571787D01*
X142564357Y-97819594D01*
X126992500Y-97819594D01*
X126992500Y-93319594D01*
X142564859Y-93319594D01*
X142564859Y-93319605D01*
X142585385Y-93567329D01*
X142585387Y-93567338D01*
X142646412Y-93808317D01*
X142746266Y-94035964D01*
X142846564Y-94189482D01*
X143546212Y-93489834D01*
X143557482Y-93531892D01*
X143629890Y-93657308D01*
X143732292Y-93759710D01*
X143857708Y-93832118D01*
X143899765Y-93843387D01*
X143199942Y-94543209D01*
X143246768Y-94579655D01*
X143246770Y-94579656D01*
X143465385Y-94697964D01*
X143465396Y-94697969D01*
X143700506Y-94778683D01*
X143945707Y-94819600D01*
X144194293Y-94819600D01*
X144439493Y-94778683D01*
X144674603Y-94697969D01*
X144674614Y-94697964D01*
X144893228Y-94579657D01*
X144893231Y-94579655D01*
X144940056Y-94543209D01*
X144240234Y-93843387D01*
X144282292Y-93832118D01*
X144407708Y-93759710D01*
X144510110Y-93657308D01*
X144582518Y-93531892D01*
X144593787Y-93489835D01*
X145293434Y-94189482D01*
X145393731Y-94035969D01*
X145493587Y-93808317D01*
X145554612Y-93567338D01*
X145554614Y-93567329D01*
X145575141Y-93319605D01*
X145575141Y-93319594D01*
X149064859Y-93319594D01*
X149064859Y-93319605D01*
X149085385Y-93567329D01*
X149085387Y-93567338D01*
X149146412Y-93808317D01*
X149246266Y-94035964D01*
X149346564Y-94189482D01*
X150046212Y-93489834D01*
X150057482Y-93531892D01*
X150129890Y-93657308D01*
X150232292Y-93759710D01*
X150357708Y-93832118D01*
X150399765Y-93843387D01*
X149699942Y-94543209D01*
X149746768Y-94579655D01*
X149746770Y-94579656D01*
X149965385Y-94697964D01*
X149965396Y-94697969D01*
X150200506Y-94778683D01*
X150445707Y-94819600D01*
X150694293Y-94819600D01*
X150939493Y-94778683D01*
X151174603Y-94697969D01*
X151174614Y-94697964D01*
X151393228Y-94579657D01*
X151393231Y-94579655D01*
X151440056Y-94543209D01*
X150740234Y-93843387D01*
X150782292Y-93832118D01*
X150907708Y-93759710D01*
X151010110Y-93657308D01*
X151082518Y-93531892D01*
X151093787Y-93489835D01*
X151793434Y-94189482D01*
X151893731Y-94035969D01*
X151993587Y-93808317D01*
X152054612Y-93567338D01*
X152054614Y-93567329D01*
X152075141Y-93319605D01*
X152075141Y-93319594D01*
X152054614Y-93071870D01*
X152054612Y-93071861D01*
X151993587Y-92830882D01*
X151893731Y-92603230D01*
X151793434Y-92449716D01*
X151093787Y-93149364D01*
X151082518Y-93107308D01*
X151010110Y-92981892D01*
X150907708Y-92879490D01*
X150782292Y-92807082D01*
X150740235Y-92795812D01*
X151440057Y-92095990D01*
X151440056Y-92095989D01*
X151393229Y-92059543D01*
X151174614Y-91941235D01*
X151174603Y-91941230D01*
X150939493Y-91860516D01*
X150694293Y-91819600D01*
X150445707Y-91819600D01*
X150200506Y-91860516D01*
X149965396Y-91941230D01*
X149965390Y-91941232D01*
X149746761Y-92059549D01*
X149699942Y-92095988D01*
X149699942Y-92095990D01*
X150399765Y-92795812D01*
X150357708Y-92807082D01*
X150232292Y-92879490D01*
X150129890Y-92981892D01*
X150057482Y-93107308D01*
X150046212Y-93149364D01*
X149346564Y-92449716D01*
X149246267Y-92603232D01*
X149146412Y-92830882D01*
X149085387Y-93071861D01*
X149085385Y-93071870D01*
X149064859Y-93319594D01*
X145575141Y-93319594D01*
X145554614Y-93071870D01*
X145554612Y-93071861D01*
X145493587Y-92830882D01*
X145393731Y-92603230D01*
X145293434Y-92449716D01*
X144593787Y-93149364D01*
X144582518Y-93107308D01*
X144510110Y-92981892D01*
X144407708Y-92879490D01*
X144282292Y-92807082D01*
X144240235Y-92795812D01*
X144940057Y-92095990D01*
X144940056Y-92095989D01*
X144893229Y-92059543D01*
X144674614Y-91941235D01*
X144674603Y-91941230D01*
X144439493Y-91860516D01*
X144194293Y-91819600D01*
X143945707Y-91819600D01*
X143700506Y-91860516D01*
X143465396Y-91941230D01*
X143465390Y-91941232D01*
X143246761Y-92059549D01*
X143199942Y-92095988D01*
X143199942Y-92095990D01*
X143899765Y-92795812D01*
X143857708Y-92807082D01*
X143732292Y-92879490D01*
X143629890Y-92981892D01*
X143557482Y-93107308D01*
X143546212Y-93149364D01*
X142846564Y-92449716D01*
X142746267Y-92603232D01*
X142646412Y-92830882D01*
X142585387Y-93071861D01*
X142585385Y-93071870D01*
X142564859Y-93319594D01*
X126992500Y-93319594D01*
X126992500Y-81240135D01*
X143881100Y-81240135D01*
X143881100Y-82843870D01*
X143881101Y-82843876D01*
X143887508Y-82903483D01*
X143937802Y-83038328D01*
X143937806Y-83038335D01*
X144024052Y-83153544D01*
X144024055Y-83153547D01*
X144139264Y-83239793D01*
X144139271Y-83239797D01*
X144274117Y-83290091D01*
X144274116Y-83290091D01*
X144281044Y-83290835D01*
X144333727Y-83296500D01*
X145937472Y-83296499D01*
X145997083Y-83290091D01*
X146131931Y-83239796D01*
X146247146Y-83153546D01*
X146333396Y-83038331D01*
X146383691Y-82903483D01*
X146390100Y-82843873D01*
X146390099Y-82786545D01*
X146409782Y-82719509D01*
X146462586Y-82673753D01*
X146531744Y-82663809D01*
X146595300Y-82692833D01*
X146615673Y-82715422D01*
X146710926Y-82851457D01*
X146710927Y-82851458D01*
X146866141Y-83006672D01*
X146866147Y-83006677D01*
X147045949Y-83132576D01*
X147045951Y-83132577D01*
X147045954Y-83132579D01*
X147244897Y-83225347D01*
X147456926Y-83282161D01*
X147613121Y-83295826D01*
X147675598Y-83301292D01*
X147675600Y-83301292D01*
X147675602Y-83301292D01*
X147730397Y-83296498D01*
X147894274Y-83282161D01*
X148106303Y-83225347D01*
X148305246Y-83132579D01*
X148485057Y-83006674D01*
X148640274Y-82851457D01*
X148766179Y-82671646D01*
X148833218Y-82527878D01*
X148879390Y-82475439D01*
X148946583Y-82456287D01*
X149013464Y-82476502D01*
X149057981Y-82527878D01*
X149096973Y-82611497D01*
X149125019Y-82671642D01*
X149125023Y-82671650D01*
X149250922Y-82851452D01*
X149250927Y-82851458D01*
X149406141Y-83006672D01*
X149406147Y-83006677D01*
X149585949Y-83132576D01*
X149585951Y-83132577D01*
X149585954Y-83132579D01*
X149784897Y-83225347D01*
X149996926Y-83282161D01*
X150153121Y-83295826D01*
X150215598Y-83301292D01*
X150215600Y-83301292D01*
X150215602Y-83301292D01*
X150270397Y-83296498D01*
X150434274Y-83282161D01*
X150646303Y-83225347D01*
X150845246Y-83132579D01*
X151025057Y-83006674D01*
X151180274Y-82851457D01*
X151306179Y-82671646D01*
X151373218Y-82527878D01*
X151419390Y-82475439D01*
X151486583Y-82456287D01*
X151553464Y-82476502D01*
X151597981Y-82527878D01*
X151636973Y-82611497D01*
X151665019Y-82671642D01*
X151665023Y-82671650D01*
X151790922Y-82851452D01*
X151790927Y-82851458D01*
X151946141Y-83006672D01*
X151946147Y-83006677D01*
X152125949Y-83132576D01*
X152125951Y-83132577D01*
X152125954Y-83132579D01*
X152324897Y-83225347D01*
X152536926Y-83282161D01*
X152693121Y-83295826D01*
X152755598Y-83301292D01*
X152755600Y-83301292D01*
X152755602Y-83301292D01*
X152810397Y-83296498D01*
X152974274Y-83282161D01*
X153186303Y-83225347D01*
X153385246Y-83132579D01*
X153565057Y-83006674D01*
X153720274Y-82851457D01*
X153846179Y-82671646D01*
X153913218Y-82527878D01*
X153959390Y-82475439D01*
X154026583Y-82456287D01*
X154093464Y-82476502D01*
X154137981Y-82527878D01*
X154176973Y-82611497D01*
X154205019Y-82671642D01*
X154205023Y-82671650D01*
X154330922Y-82851452D01*
X154330927Y-82851458D01*
X154486141Y-83006672D01*
X154486147Y-83006677D01*
X154665949Y-83132576D01*
X154665951Y-83132577D01*
X154665954Y-83132579D01*
X154864897Y-83225347D01*
X155076926Y-83282161D01*
X155233121Y-83295826D01*
X155295598Y-83301292D01*
X155295600Y-83301292D01*
X155295602Y-83301292D01*
X155350397Y-83296498D01*
X155514274Y-83282161D01*
X155726303Y-83225347D01*
X155925246Y-83132579D01*
X156105057Y-83006674D01*
X156260274Y-82851457D01*
X156386179Y-82671646D01*
X156453218Y-82527878D01*
X156499390Y-82475439D01*
X156566583Y-82456287D01*
X156633464Y-82476502D01*
X156677981Y-82527878D01*
X156716973Y-82611497D01*
X156745019Y-82671642D01*
X156745023Y-82671650D01*
X156870922Y-82851452D01*
X156870927Y-82851458D01*
X157026141Y-83006672D01*
X157026147Y-83006677D01*
X157205949Y-83132576D01*
X157205951Y-83132577D01*
X157205954Y-83132579D01*
X157404897Y-83225347D01*
X157616926Y-83282161D01*
X157773121Y-83295826D01*
X157835598Y-83301292D01*
X157835600Y-83301292D01*
X157835602Y-83301292D01*
X157890397Y-83296498D01*
X158054274Y-83282161D01*
X158266303Y-83225347D01*
X158465246Y-83132579D01*
X158645057Y-83006674D01*
X158800274Y-82851457D01*
X158926179Y-82671646D01*
X158993218Y-82527878D01*
X159039390Y-82475439D01*
X159106583Y-82456287D01*
X159173464Y-82476502D01*
X159217981Y-82527878D01*
X159256973Y-82611497D01*
X159285019Y-82671642D01*
X159285023Y-82671650D01*
X159410922Y-82851452D01*
X159410927Y-82851458D01*
X159566141Y-83006672D01*
X159566147Y-83006677D01*
X159745949Y-83132576D01*
X159745951Y-83132577D01*
X159745954Y-83132579D01*
X159944897Y-83225347D01*
X160156926Y-83282161D01*
X160313121Y-83295826D01*
X160375598Y-83301292D01*
X160375600Y-83301292D01*
X160375602Y-83301292D01*
X160430397Y-83296498D01*
X160594274Y-83282161D01*
X160806303Y-83225347D01*
X161005246Y-83132579D01*
X161185057Y-83006674D01*
X161340274Y-82851457D01*
X161466179Y-82671646D01*
X161533218Y-82527878D01*
X161579390Y-82475439D01*
X161646583Y-82456287D01*
X161713464Y-82476502D01*
X161757981Y-82527878D01*
X161796973Y-82611497D01*
X161825019Y-82671642D01*
X161825023Y-82671650D01*
X161950922Y-82851452D01*
X161950927Y-82851458D01*
X162106141Y-83006672D01*
X162106147Y-83006677D01*
X162285949Y-83132576D01*
X162285951Y-83132577D01*
X162285954Y-83132579D01*
X162484897Y-83225347D01*
X162696926Y-83282161D01*
X162853121Y-83295826D01*
X162915598Y-83301292D01*
X162915600Y-83301292D01*
X162915602Y-83301292D01*
X162970397Y-83296498D01*
X163134274Y-83282161D01*
X163346303Y-83225347D01*
X163545246Y-83132579D01*
X163725057Y-83006674D01*
X163880274Y-82851457D01*
X164006179Y-82671646D01*
X164073218Y-82527878D01*
X164119390Y-82475439D01*
X164186583Y-82456287D01*
X164253464Y-82476502D01*
X164297981Y-82527878D01*
X164336973Y-82611497D01*
X164365019Y-82671642D01*
X164365023Y-82671650D01*
X164490922Y-82851452D01*
X164490927Y-82851458D01*
X164646141Y-83006672D01*
X164646147Y-83006677D01*
X164825949Y-83132576D01*
X164825951Y-83132577D01*
X164825954Y-83132579D01*
X165024897Y-83225347D01*
X165236926Y-83282161D01*
X165393121Y-83295826D01*
X165455598Y-83301292D01*
X165455600Y-83301292D01*
X165455602Y-83301292D01*
X165510397Y-83296498D01*
X165674274Y-83282161D01*
X165886303Y-83225347D01*
X166085246Y-83132579D01*
X166265057Y-83006674D01*
X166420274Y-82851457D01*
X166546179Y-82671646D01*
X166613218Y-82527878D01*
X166659390Y-82475439D01*
X166726583Y-82456287D01*
X166793464Y-82476502D01*
X166837981Y-82527878D01*
X166876973Y-82611497D01*
X166905019Y-82671642D01*
X166905023Y-82671650D01*
X167030922Y-82851452D01*
X167030927Y-82851458D01*
X167186141Y-83006672D01*
X167186147Y-83006677D01*
X167365949Y-83132576D01*
X167365951Y-83132577D01*
X167365954Y-83132579D01*
X167564897Y-83225347D01*
X167776926Y-83282161D01*
X167933121Y-83295826D01*
X167995598Y-83301292D01*
X167995600Y-83301292D01*
X167995602Y-83301292D01*
X168050397Y-83296498D01*
X168214274Y-83282161D01*
X168426303Y-83225347D01*
X168625246Y-83132579D01*
X168805057Y-83006674D01*
X168960274Y-82851457D01*
X169086179Y-82671646D01*
X169153218Y-82527878D01*
X169199390Y-82475439D01*
X169266583Y-82456287D01*
X169333464Y-82476502D01*
X169377981Y-82527878D01*
X169416973Y-82611497D01*
X169445019Y-82671642D01*
X169445023Y-82671650D01*
X169570922Y-82851452D01*
X169570927Y-82851458D01*
X169726141Y-83006672D01*
X169726147Y-83006677D01*
X169905949Y-83132576D01*
X169905951Y-83132577D01*
X169905954Y-83132579D01*
X170104897Y-83225347D01*
X170316926Y-83282161D01*
X170473121Y-83295826D01*
X170535598Y-83301292D01*
X170535600Y-83301292D01*
X170535602Y-83301292D01*
X170590397Y-83296498D01*
X170754274Y-83282161D01*
X170966303Y-83225347D01*
X171165246Y-83132579D01*
X171345057Y-83006674D01*
X171500274Y-82851457D01*
X171626179Y-82671646D01*
X171693218Y-82527878D01*
X171739390Y-82475439D01*
X171806583Y-82456287D01*
X171873464Y-82476502D01*
X171917981Y-82527878D01*
X171956973Y-82611497D01*
X171985019Y-82671642D01*
X171985023Y-82671650D01*
X172110922Y-82851452D01*
X172110927Y-82851458D01*
X172266141Y-83006672D01*
X172266147Y-83006677D01*
X172445949Y-83132576D01*
X172445951Y-83132577D01*
X172445954Y-83132579D01*
X172644897Y-83225347D01*
X172856926Y-83282161D01*
X173013121Y-83295826D01*
X173075598Y-83301292D01*
X173075600Y-83301292D01*
X173075602Y-83301292D01*
X173130397Y-83296498D01*
X173294274Y-83282161D01*
X173506303Y-83225347D01*
X173705246Y-83132579D01*
X173885057Y-83006674D01*
X174040274Y-82851457D01*
X174166179Y-82671646D01*
X174233218Y-82527878D01*
X174279390Y-82475439D01*
X174346583Y-82456287D01*
X174413464Y-82476502D01*
X174457981Y-82527878D01*
X174496973Y-82611497D01*
X174525019Y-82671642D01*
X174525023Y-82671650D01*
X174650922Y-82851452D01*
X174650927Y-82851458D01*
X174806141Y-83006672D01*
X174806147Y-83006677D01*
X174985949Y-83132576D01*
X174985951Y-83132577D01*
X174985954Y-83132579D01*
X175184897Y-83225347D01*
X175396926Y-83282161D01*
X175553121Y-83295826D01*
X175615598Y-83301292D01*
X175615600Y-83301292D01*
X175615602Y-83301292D01*
X175670397Y-83296498D01*
X175834274Y-83282161D01*
X176046303Y-83225347D01*
X176245246Y-83132579D01*
X176425057Y-83006674D01*
X176580274Y-82851457D01*
X176706179Y-82671646D01*
X176773218Y-82527878D01*
X176819390Y-82475439D01*
X176886583Y-82456287D01*
X176953464Y-82476502D01*
X176997981Y-82527878D01*
X177036973Y-82611497D01*
X177065019Y-82671642D01*
X177065023Y-82671650D01*
X177190922Y-82851452D01*
X177190927Y-82851458D01*
X177346141Y-83006672D01*
X177346147Y-83006677D01*
X177525949Y-83132576D01*
X177525951Y-83132577D01*
X177525954Y-83132579D01*
X177724897Y-83225347D01*
X177936926Y-83282161D01*
X178093121Y-83295826D01*
X178155598Y-83301292D01*
X178155600Y-83301292D01*
X178155602Y-83301292D01*
X178210397Y-83296498D01*
X178374274Y-83282161D01*
X178586303Y-83225347D01*
X178785246Y-83132579D01*
X178965057Y-83006674D01*
X179120274Y-82851457D01*
X179246179Y-82671646D01*
X179313218Y-82527878D01*
X179359390Y-82475439D01*
X179426583Y-82456287D01*
X179493464Y-82476502D01*
X179537981Y-82527878D01*
X179576973Y-82611497D01*
X179605019Y-82671642D01*
X179605023Y-82671650D01*
X179730922Y-82851452D01*
X179730927Y-82851458D01*
X179886141Y-83006672D01*
X179886147Y-83006677D01*
X180065949Y-83132576D01*
X180065951Y-83132577D01*
X180065954Y-83132579D01*
X180264897Y-83225347D01*
X180476926Y-83282161D01*
X180633121Y-83295826D01*
X180695598Y-83301292D01*
X180695600Y-83301292D01*
X180695602Y-83301292D01*
X180750397Y-83296498D01*
X180914274Y-83282161D01*
X181126303Y-83225347D01*
X181325246Y-83132579D01*
X181505057Y-83006674D01*
X181660274Y-82851457D01*
X181786179Y-82671646D01*
X181853218Y-82527878D01*
X181899390Y-82475439D01*
X181966583Y-82456287D01*
X182033464Y-82476502D01*
X182077981Y-82527878D01*
X182116973Y-82611497D01*
X182145019Y-82671642D01*
X182145023Y-82671650D01*
X182270922Y-82851452D01*
X182270927Y-82851458D01*
X182426141Y-83006672D01*
X182426147Y-83006677D01*
X182605949Y-83132576D01*
X182605951Y-83132577D01*
X182605954Y-83132579D01*
X182804897Y-83225347D01*
X183016926Y-83282161D01*
X183173121Y-83295826D01*
X183235598Y-83301292D01*
X183235600Y-83301292D01*
X183235602Y-83301292D01*
X183290397Y-83296498D01*
X183454274Y-83282161D01*
X183666303Y-83225347D01*
X183865246Y-83132579D01*
X184045057Y-83006674D01*
X184200274Y-82851457D01*
X184326179Y-82671646D01*
X184393218Y-82527878D01*
X184439390Y-82475439D01*
X184506583Y-82456287D01*
X184573464Y-82476502D01*
X184617981Y-82527878D01*
X184656973Y-82611497D01*
X184685019Y-82671642D01*
X184685023Y-82671650D01*
X184810922Y-82851452D01*
X184810927Y-82851458D01*
X184966141Y-83006672D01*
X184966147Y-83006677D01*
X185145949Y-83132576D01*
X185145951Y-83132577D01*
X185145954Y-83132579D01*
X185344897Y-83225347D01*
X185556926Y-83282161D01*
X185713121Y-83295826D01*
X185775598Y-83301292D01*
X185775600Y-83301292D01*
X185775602Y-83301292D01*
X185830397Y-83296498D01*
X185994274Y-83282161D01*
X186206303Y-83225347D01*
X186405246Y-83132579D01*
X186585057Y-83006674D01*
X186740274Y-82851457D01*
X186866179Y-82671646D01*
X186933218Y-82527878D01*
X186979390Y-82475439D01*
X187046583Y-82456287D01*
X187113464Y-82476502D01*
X187157981Y-82527878D01*
X187196973Y-82611497D01*
X187225019Y-82671642D01*
X187225023Y-82671650D01*
X187350922Y-82851452D01*
X187350927Y-82851458D01*
X187506141Y-83006672D01*
X187506147Y-83006677D01*
X187685949Y-83132576D01*
X187685951Y-83132577D01*
X187685954Y-83132579D01*
X187884897Y-83225347D01*
X188096926Y-83282161D01*
X188253121Y-83295826D01*
X188315598Y-83301292D01*
X188315600Y-83301292D01*
X188315602Y-83301292D01*
X188370397Y-83296498D01*
X188534274Y-83282161D01*
X188746303Y-83225347D01*
X188945246Y-83132579D01*
X189125057Y-83006674D01*
X189280274Y-82851457D01*
X189406179Y-82671646D01*
X189473218Y-82527878D01*
X189519390Y-82475439D01*
X189586583Y-82456287D01*
X189653464Y-82476502D01*
X189697981Y-82527878D01*
X189736973Y-82611497D01*
X189765019Y-82671642D01*
X189765023Y-82671650D01*
X189890922Y-82851452D01*
X189890927Y-82851458D01*
X190046141Y-83006672D01*
X190046147Y-83006677D01*
X190225949Y-83132576D01*
X190225951Y-83132577D01*
X190225954Y-83132579D01*
X190424897Y-83225347D01*
X190636926Y-83282161D01*
X190793121Y-83295826D01*
X190855598Y-83301292D01*
X190855600Y-83301292D01*
X190855602Y-83301292D01*
X190910397Y-83296498D01*
X191074274Y-83282161D01*
X191286303Y-83225347D01*
X191485246Y-83132579D01*
X191665057Y-83006674D01*
X191820274Y-82851457D01*
X191946179Y-82671646D01*
X192013493Y-82527288D01*
X192059665Y-82474849D01*
X192126858Y-82455697D01*
X192193739Y-82475912D01*
X192238257Y-82527288D01*
X192305454Y-82671392D01*
X192349603Y-82734443D01*
X192912637Y-82171409D01*
X192929675Y-82234993D01*
X192995501Y-82349007D01*
X193088593Y-82442099D01*
X193202607Y-82507925D01*
X193266190Y-82524962D01*
X192703155Y-83087996D01*
X192766201Y-83132142D01*
X192766205Y-83132144D01*
X192965066Y-83224874D01*
X192965075Y-83224878D01*
X193177007Y-83281664D01*
X193177017Y-83281666D01*
X193395599Y-83300790D01*
X193395601Y-83300790D01*
X193614182Y-83281666D01*
X193614192Y-83281664D01*
X193826124Y-83224878D01*
X193826133Y-83224874D01*
X194024992Y-83132145D01*
X194088043Y-83087995D01*
X193525010Y-82524962D01*
X193588593Y-82507925D01*
X193702607Y-82442099D01*
X193795699Y-82349007D01*
X193861525Y-82234993D01*
X193878562Y-82171409D01*
X194441595Y-82734442D01*
X194485745Y-82671392D01*
X194578474Y-82472533D01*
X194578478Y-82472524D01*
X194635264Y-82260592D01*
X194635266Y-82260582D01*
X194654390Y-82042000D01*
X194654390Y-82041999D01*
X194635266Y-81823417D01*
X194635264Y-81823407D01*
X194578478Y-81611475D01*
X194578474Y-81611466D01*
X194485744Y-81412605D01*
X194485742Y-81412601D01*
X194441596Y-81349555D01*
X193878562Y-81912589D01*
X193861525Y-81849007D01*
X193795699Y-81734993D01*
X193702607Y-81641901D01*
X193588593Y-81576075D01*
X193525009Y-81559037D01*
X194088043Y-80996003D01*
X194024992Y-80951854D01*
X193826133Y-80859125D01*
X193826124Y-80859121D01*
X193614192Y-80802335D01*
X193614182Y-80802333D01*
X193395601Y-80783210D01*
X193395599Y-80783210D01*
X193177017Y-80802333D01*
X193177007Y-80802335D01*
X192965075Y-80859121D01*
X192965066Y-80859124D01*
X192766206Y-80951855D01*
X192766204Y-80951856D01*
X192703156Y-80996003D01*
X192703155Y-80996003D01*
X193266190Y-81559037D01*
X193202607Y-81576075D01*
X193088593Y-81641901D01*
X192995501Y-81734993D01*
X192929675Y-81849007D01*
X192912637Y-81912589D01*
X192349603Y-81349555D01*
X192349603Y-81349556D01*
X192305457Y-81412603D01*
X192238257Y-81556712D01*
X192192084Y-81609151D01*
X192124890Y-81628302D01*
X192058009Y-81608086D01*
X192013493Y-81556710D01*
X191966192Y-81455272D01*
X191946179Y-81412354D01*
X191946177Y-81412351D01*
X191946176Y-81412349D01*
X191820277Y-81232547D01*
X191820272Y-81232541D01*
X191665058Y-81077327D01*
X191665052Y-81077322D01*
X191485250Y-80951423D01*
X191485242Y-80951419D01*
X191286308Y-80858655D01*
X191286306Y-80858654D01*
X191286303Y-80858653D01*
X191135485Y-80818240D01*
X191074275Y-80801839D01*
X191074268Y-80801838D01*
X190855602Y-80782708D01*
X190855598Y-80782708D01*
X190636931Y-80801838D01*
X190636924Y-80801839D01*
X190514502Y-80834642D01*
X190424897Y-80858653D01*
X190424895Y-80858653D01*
X190424891Y-80858655D01*
X190225957Y-80951419D01*
X190225949Y-80951423D01*
X190046147Y-81077322D01*
X190046141Y-81077327D01*
X189890927Y-81232541D01*
X189890922Y-81232547D01*
X189765023Y-81412349D01*
X189765019Y-81412357D01*
X189697982Y-81556120D01*
X189651810Y-81608560D01*
X189584617Y-81627712D01*
X189517735Y-81607496D01*
X189473218Y-81556120D01*
X189426192Y-81455272D01*
X189406179Y-81412354D01*
X189406177Y-81412351D01*
X189406176Y-81412349D01*
X189280277Y-81232547D01*
X189280272Y-81232541D01*
X189125058Y-81077327D01*
X189125052Y-81077322D01*
X188945250Y-80951423D01*
X188945242Y-80951419D01*
X188746308Y-80858655D01*
X188746306Y-80858654D01*
X188746303Y-80858653D01*
X188595485Y-80818240D01*
X188534275Y-80801839D01*
X188534268Y-80801838D01*
X188315602Y-80782708D01*
X188315598Y-80782708D01*
X188096931Y-80801838D01*
X188096924Y-80801839D01*
X187974502Y-80834642D01*
X187884897Y-80858653D01*
X187884895Y-80858653D01*
X187884891Y-80858655D01*
X187685957Y-80951419D01*
X187685949Y-80951423D01*
X187506147Y-81077322D01*
X187506141Y-81077327D01*
X187350927Y-81232541D01*
X187350922Y-81232547D01*
X187225023Y-81412349D01*
X187225019Y-81412357D01*
X187157982Y-81556120D01*
X187111810Y-81608560D01*
X187044617Y-81627712D01*
X186977735Y-81607496D01*
X186933218Y-81556120D01*
X186886192Y-81455272D01*
X186866179Y-81412354D01*
X186866177Y-81412351D01*
X186866176Y-81412349D01*
X186740277Y-81232547D01*
X186740272Y-81232541D01*
X186585058Y-81077327D01*
X186585052Y-81077322D01*
X186405250Y-80951423D01*
X186405242Y-80951419D01*
X186206308Y-80858655D01*
X186206306Y-80858654D01*
X186206303Y-80858653D01*
X186055485Y-80818240D01*
X185994275Y-80801839D01*
X185994268Y-80801838D01*
X185775602Y-80782708D01*
X185775598Y-80782708D01*
X185556931Y-80801838D01*
X185556924Y-80801839D01*
X185434502Y-80834642D01*
X185344897Y-80858653D01*
X185344895Y-80858653D01*
X185344891Y-80858655D01*
X185145957Y-80951419D01*
X185145949Y-80951423D01*
X184966147Y-81077322D01*
X184966141Y-81077327D01*
X184810927Y-81232541D01*
X184810922Y-81232547D01*
X184685023Y-81412349D01*
X184685019Y-81412357D01*
X184617982Y-81556120D01*
X184571810Y-81608560D01*
X184504617Y-81627712D01*
X184437735Y-81607496D01*
X184393218Y-81556120D01*
X184346192Y-81455272D01*
X184326179Y-81412354D01*
X184326177Y-81412351D01*
X184326176Y-81412349D01*
X184200277Y-81232547D01*
X184200272Y-81232541D01*
X184045058Y-81077327D01*
X184045052Y-81077322D01*
X183865250Y-80951423D01*
X183865242Y-80951419D01*
X183666308Y-80858655D01*
X183666306Y-80858654D01*
X183666303Y-80858653D01*
X183515485Y-80818240D01*
X183454275Y-80801839D01*
X183454268Y-80801838D01*
X183235602Y-80782708D01*
X183235598Y-80782708D01*
X183016931Y-80801838D01*
X183016924Y-80801839D01*
X182894502Y-80834642D01*
X182804897Y-80858653D01*
X182804895Y-80858653D01*
X182804891Y-80858655D01*
X182605957Y-80951419D01*
X182605949Y-80951423D01*
X182426147Y-81077322D01*
X182426141Y-81077327D01*
X182270927Y-81232541D01*
X182270922Y-81232547D01*
X182145023Y-81412349D01*
X182145019Y-81412357D01*
X182077982Y-81556120D01*
X182031810Y-81608560D01*
X181964617Y-81627712D01*
X181897735Y-81607496D01*
X181853218Y-81556120D01*
X181806192Y-81455272D01*
X181786179Y-81412354D01*
X181786177Y-81412351D01*
X181786176Y-81412349D01*
X181660277Y-81232547D01*
X181660272Y-81232541D01*
X181505058Y-81077327D01*
X181505052Y-81077322D01*
X181325250Y-80951423D01*
X181325242Y-80951419D01*
X181126308Y-80858655D01*
X181126306Y-80858654D01*
X181126303Y-80858653D01*
X180975485Y-80818240D01*
X180914275Y-80801839D01*
X180914268Y-80801838D01*
X180695602Y-80782708D01*
X180695598Y-80782708D01*
X180476931Y-80801838D01*
X180476924Y-80801839D01*
X180354502Y-80834642D01*
X180264897Y-80858653D01*
X180264895Y-80858653D01*
X180264891Y-80858655D01*
X180065957Y-80951419D01*
X180065949Y-80951423D01*
X179886147Y-81077322D01*
X179886141Y-81077327D01*
X179730927Y-81232541D01*
X179730922Y-81232547D01*
X179605023Y-81412349D01*
X179605019Y-81412357D01*
X179537982Y-81556120D01*
X179491810Y-81608560D01*
X179424617Y-81627712D01*
X179357735Y-81607496D01*
X179313218Y-81556120D01*
X179266192Y-81455272D01*
X179246179Y-81412354D01*
X179246177Y-81412351D01*
X179246176Y-81412349D01*
X179120277Y-81232547D01*
X179120272Y-81232541D01*
X178965058Y-81077327D01*
X178965052Y-81077322D01*
X178785250Y-80951423D01*
X178785242Y-80951419D01*
X178586308Y-80858655D01*
X178586306Y-80858654D01*
X178586303Y-80858653D01*
X178435485Y-80818240D01*
X178374275Y-80801839D01*
X178374268Y-80801838D01*
X178155602Y-80782708D01*
X178155598Y-80782708D01*
X177936931Y-80801838D01*
X177936924Y-80801839D01*
X177814502Y-80834642D01*
X177724897Y-80858653D01*
X177724895Y-80858653D01*
X177724891Y-80858655D01*
X177525957Y-80951419D01*
X177525949Y-80951423D01*
X177346147Y-81077322D01*
X177346141Y-81077327D01*
X177190927Y-81232541D01*
X177190922Y-81232547D01*
X177065023Y-81412349D01*
X177065019Y-81412357D01*
X176997982Y-81556120D01*
X176951810Y-81608560D01*
X176884617Y-81627712D01*
X176817735Y-81607496D01*
X176773218Y-81556120D01*
X176726192Y-81455272D01*
X176706179Y-81412354D01*
X176706177Y-81412351D01*
X176706176Y-81412349D01*
X176580277Y-81232547D01*
X176580272Y-81232541D01*
X176425058Y-81077327D01*
X176425052Y-81077322D01*
X176245250Y-80951423D01*
X176245242Y-80951419D01*
X176046308Y-80858655D01*
X176046306Y-80858654D01*
X176046303Y-80858653D01*
X175895485Y-80818240D01*
X175834275Y-80801839D01*
X175834268Y-80801838D01*
X175615602Y-80782708D01*
X175615598Y-80782708D01*
X175396931Y-80801838D01*
X175396924Y-80801839D01*
X175274502Y-80834642D01*
X175184897Y-80858653D01*
X175184895Y-80858653D01*
X175184891Y-80858655D01*
X174985957Y-80951419D01*
X174985949Y-80951423D01*
X174806147Y-81077322D01*
X174806141Y-81077327D01*
X174650927Y-81232541D01*
X174650922Y-81232547D01*
X174525023Y-81412349D01*
X174525019Y-81412357D01*
X174457982Y-81556120D01*
X174411810Y-81608560D01*
X174344617Y-81627712D01*
X174277735Y-81607496D01*
X174233218Y-81556120D01*
X174186192Y-81455272D01*
X174166179Y-81412354D01*
X174166177Y-81412351D01*
X174166176Y-81412349D01*
X174040277Y-81232547D01*
X174040272Y-81232541D01*
X173885058Y-81077327D01*
X173885052Y-81077322D01*
X173705250Y-80951423D01*
X173705242Y-80951419D01*
X173506308Y-80858655D01*
X173506306Y-80858654D01*
X173506303Y-80858653D01*
X173355485Y-80818240D01*
X173294275Y-80801839D01*
X173294268Y-80801838D01*
X173075602Y-80782708D01*
X173075598Y-80782708D01*
X172856931Y-80801838D01*
X172856924Y-80801839D01*
X172734502Y-80834642D01*
X172644897Y-80858653D01*
X172644895Y-80858653D01*
X172644891Y-80858655D01*
X172445957Y-80951419D01*
X172445949Y-80951423D01*
X172266147Y-81077322D01*
X172266141Y-81077327D01*
X172110927Y-81232541D01*
X172110922Y-81232547D01*
X171985023Y-81412349D01*
X171985019Y-81412357D01*
X171917982Y-81556120D01*
X171871810Y-81608560D01*
X171804617Y-81627712D01*
X171737735Y-81607496D01*
X171693218Y-81556120D01*
X171646192Y-81455272D01*
X171626179Y-81412354D01*
X171626177Y-81412351D01*
X171626176Y-81412349D01*
X171500277Y-81232547D01*
X171500272Y-81232541D01*
X171345058Y-81077327D01*
X171345052Y-81077322D01*
X171165250Y-80951423D01*
X171165242Y-80951419D01*
X170966308Y-80858655D01*
X170966306Y-80858654D01*
X170966303Y-80858653D01*
X170815485Y-80818240D01*
X170754275Y-80801839D01*
X170754268Y-80801838D01*
X170535602Y-80782708D01*
X170535598Y-80782708D01*
X170316931Y-80801838D01*
X170316924Y-80801839D01*
X170194502Y-80834642D01*
X170104897Y-80858653D01*
X170104895Y-80858653D01*
X170104891Y-80858655D01*
X169905957Y-80951419D01*
X169905949Y-80951423D01*
X169726147Y-81077322D01*
X169726141Y-81077327D01*
X169570927Y-81232541D01*
X169570922Y-81232547D01*
X169445023Y-81412349D01*
X169445019Y-81412357D01*
X169377982Y-81556120D01*
X169331810Y-81608560D01*
X169264617Y-81627712D01*
X169197735Y-81607496D01*
X169153218Y-81556120D01*
X169106192Y-81455272D01*
X169086179Y-81412354D01*
X169086177Y-81412351D01*
X169086176Y-81412349D01*
X168960277Y-81232547D01*
X168960272Y-81232541D01*
X168805058Y-81077327D01*
X168805052Y-81077322D01*
X168625250Y-80951423D01*
X168625242Y-80951419D01*
X168426308Y-80858655D01*
X168426306Y-80858654D01*
X168426303Y-80858653D01*
X168275485Y-80818240D01*
X168214275Y-80801839D01*
X168214268Y-80801838D01*
X167995602Y-80782708D01*
X167995598Y-80782708D01*
X167776931Y-80801838D01*
X167776924Y-80801839D01*
X167654502Y-80834642D01*
X167564897Y-80858653D01*
X167564895Y-80858653D01*
X167564891Y-80858655D01*
X167365957Y-80951419D01*
X167365949Y-80951423D01*
X167186147Y-81077322D01*
X167186141Y-81077327D01*
X167030927Y-81232541D01*
X167030922Y-81232547D01*
X166905023Y-81412349D01*
X166905019Y-81412357D01*
X166837982Y-81556120D01*
X166791810Y-81608560D01*
X166724617Y-81627712D01*
X166657735Y-81607496D01*
X166613218Y-81556120D01*
X166566192Y-81455272D01*
X166546179Y-81412354D01*
X166546177Y-81412351D01*
X166546176Y-81412349D01*
X166420277Y-81232547D01*
X166420272Y-81232541D01*
X166265058Y-81077327D01*
X166265052Y-81077322D01*
X166085250Y-80951423D01*
X166085242Y-80951419D01*
X165886308Y-80858655D01*
X165886306Y-80858654D01*
X165886303Y-80858653D01*
X165735485Y-80818240D01*
X165674275Y-80801839D01*
X165674268Y-80801838D01*
X165455602Y-80782708D01*
X165455598Y-80782708D01*
X165236931Y-80801838D01*
X165236924Y-80801839D01*
X165114502Y-80834642D01*
X165024897Y-80858653D01*
X165024895Y-80858653D01*
X165024891Y-80858655D01*
X164825957Y-80951419D01*
X164825949Y-80951423D01*
X164646147Y-81077322D01*
X164646141Y-81077327D01*
X164490927Y-81232541D01*
X164490922Y-81232547D01*
X164365023Y-81412349D01*
X164365019Y-81412357D01*
X164297982Y-81556120D01*
X164251810Y-81608560D01*
X164184617Y-81627712D01*
X164117735Y-81607496D01*
X164073218Y-81556120D01*
X164026192Y-81455272D01*
X164006179Y-81412354D01*
X164006177Y-81412351D01*
X164006176Y-81412349D01*
X163880277Y-81232547D01*
X163880272Y-81232541D01*
X163725058Y-81077327D01*
X163725052Y-81077322D01*
X163545250Y-80951423D01*
X163545242Y-80951419D01*
X163346308Y-80858655D01*
X163346306Y-80858654D01*
X163346303Y-80858653D01*
X163195485Y-80818240D01*
X163134275Y-80801839D01*
X163134268Y-80801838D01*
X162915602Y-80782708D01*
X162915598Y-80782708D01*
X162696931Y-80801838D01*
X162696924Y-80801839D01*
X162574502Y-80834642D01*
X162484897Y-80858653D01*
X162484895Y-80858653D01*
X162484891Y-80858655D01*
X162285957Y-80951419D01*
X162285949Y-80951423D01*
X162106147Y-81077322D01*
X162106141Y-81077327D01*
X161950927Y-81232541D01*
X161950922Y-81232547D01*
X161825023Y-81412349D01*
X161825019Y-81412357D01*
X161757982Y-81556120D01*
X161711810Y-81608560D01*
X161644617Y-81627712D01*
X161577735Y-81607496D01*
X161533218Y-81556120D01*
X161486192Y-81455272D01*
X161466179Y-81412354D01*
X161466177Y-81412351D01*
X161466176Y-81412349D01*
X161340277Y-81232547D01*
X161340272Y-81232541D01*
X161185058Y-81077327D01*
X161185052Y-81077322D01*
X161005250Y-80951423D01*
X161005242Y-80951419D01*
X160806308Y-80858655D01*
X160806306Y-80858654D01*
X160806303Y-80858653D01*
X160655485Y-80818240D01*
X160594275Y-80801839D01*
X160594268Y-80801838D01*
X160375602Y-80782708D01*
X160375598Y-80782708D01*
X160156931Y-80801838D01*
X160156924Y-80801839D01*
X160034502Y-80834642D01*
X159944897Y-80858653D01*
X159944895Y-80858653D01*
X159944891Y-80858655D01*
X159745957Y-80951419D01*
X159745949Y-80951423D01*
X159566147Y-81077322D01*
X159566141Y-81077327D01*
X159410927Y-81232541D01*
X159410922Y-81232547D01*
X159285023Y-81412349D01*
X159285019Y-81412357D01*
X159217982Y-81556120D01*
X159171810Y-81608560D01*
X159104617Y-81627712D01*
X159037735Y-81607496D01*
X158993218Y-81556120D01*
X158946192Y-81455272D01*
X158926179Y-81412354D01*
X158926177Y-81412351D01*
X158926176Y-81412349D01*
X158800277Y-81232547D01*
X158800272Y-81232541D01*
X158645058Y-81077327D01*
X158645052Y-81077322D01*
X158465250Y-80951423D01*
X158465242Y-80951419D01*
X158266308Y-80858655D01*
X158266306Y-80858654D01*
X158266303Y-80858653D01*
X158115485Y-80818240D01*
X158054275Y-80801839D01*
X158054268Y-80801838D01*
X157835602Y-80782708D01*
X157835598Y-80782708D01*
X157616931Y-80801838D01*
X157616924Y-80801839D01*
X157494502Y-80834642D01*
X157404897Y-80858653D01*
X157404895Y-80858653D01*
X157404891Y-80858655D01*
X157205957Y-80951419D01*
X157205949Y-80951423D01*
X157026147Y-81077322D01*
X157026141Y-81077327D01*
X156870927Y-81232541D01*
X156870922Y-81232547D01*
X156745023Y-81412349D01*
X156745019Y-81412357D01*
X156677982Y-81556120D01*
X156631810Y-81608560D01*
X156564617Y-81627712D01*
X156497735Y-81607496D01*
X156453218Y-81556120D01*
X156406192Y-81455272D01*
X156386179Y-81412354D01*
X156386177Y-81412351D01*
X156386176Y-81412349D01*
X156260277Y-81232547D01*
X156260272Y-81232541D01*
X156105058Y-81077327D01*
X156105052Y-81077322D01*
X155925250Y-80951423D01*
X155925242Y-80951419D01*
X155726308Y-80858655D01*
X155726306Y-80858654D01*
X155726303Y-80858653D01*
X155575485Y-80818240D01*
X155514275Y-80801839D01*
X155514268Y-80801838D01*
X155295602Y-80782708D01*
X155295598Y-80782708D01*
X155076931Y-80801838D01*
X155076924Y-80801839D01*
X154954502Y-80834642D01*
X154864897Y-80858653D01*
X154864895Y-80858653D01*
X154864891Y-80858655D01*
X154665957Y-80951419D01*
X154665949Y-80951423D01*
X154486147Y-81077322D01*
X154486141Y-81077327D01*
X154330927Y-81232541D01*
X154330922Y-81232547D01*
X154205023Y-81412349D01*
X154205019Y-81412357D01*
X154137982Y-81556120D01*
X154091810Y-81608560D01*
X154024617Y-81627712D01*
X153957735Y-81607496D01*
X153913218Y-81556120D01*
X153866192Y-81455272D01*
X153846179Y-81412354D01*
X153846177Y-81412351D01*
X153846176Y-81412349D01*
X153720277Y-81232547D01*
X153720272Y-81232541D01*
X153565058Y-81077327D01*
X153565052Y-81077322D01*
X153385250Y-80951423D01*
X153385242Y-80951419D01*
X153186308Y-80858655D01*
X153186306Y-80858654D01*
X153186303Y-80858653D01*
X153035485Y-80818240D01*
X152974275Y-80801839D01*
X152974268Y-80801838D01*
X152755602Y-80782708D01*
X152755598Y-80782708D01*
X152536931Y-80801838D01*
X152536924Y-80801839D01*
X152414502Y-80834642D01*
X152324897Y-80858653D01*
X152324895Y-80858653D01*
X152324891Y-80858655D01*
X152125957Y-80951419D01*
X152125949Y-80951423D01*
X151946147Y-81077322D01*
X151946141Y-81077327D01*
X151790927Y-81232541D01*
X151790922Y-81232547D01*
X151665023Y-81412349D01*
X151665019Y-81412357D01*
X151597982Y-81556120D01*
X151551810Y-81608560D01*
X151484617Y-81627712D01*
X151417735Y-81607496D01*
X151373218Y-81556120D01*
X151326192Y-81455272D01*
X151306179Y-81412354D01*
X151306177Y-81412351D01*
X151306176Y-81412349D01*
X151180277Y-81232547D01*
X151180272Y-81232541D01*
X151025058Y-81077327D01*
X151025052Y-81077322D01*
X150845250Y-80951423D01*
X150845242Y-80951419D01*
X150646308Y-80858655D01*
X150646306Y-80858654D01*
X150646303Y-80858653D01*
X150495485Y-80818240D01*
X150434275Y-80801839D01*
X150434268Y-80801838D01*
X150215602Y-80782708D01*
X150215598Y-80782708D01*
X149996931Y-80801838D01*
X149996924Y-80801839D01*
X149874502Y-80834642D01*
X149784897Y-80858653D01*
X149784895Y-80858653D01*
X149784891Y-80858655D01*
X149585957Y-80951419D01*
X149585949Y-80951423D01*
X149406147Y-81077322D01*
X149406141Y-81077327D01*
X149250927Y-81232541D01*
X149250922Y-81232547D01*
X149125023Y-81412349D01*
X149125019Y-81412357D01*
X149057982Y-81556120D01*
X149011810Y-81608560D01*
X148944617Y-81627712D01*
X148877735Y-81607496D01*
X148833218Y-81556120D01*
X148786192Y-81455272D01*
X148766179Y-81412354D01*
X148766177Y-81412351D01*
X148766176Y-81412349D01*
X148640277Y-81232547D01*
X148640272Y-81232541D01*
X148485058Y-81077327D01*
X148485052Y-81077322D01*
X148305250Y-80951423D01*
X148305242Y-80951419D01*
X148106308Y-80858655D01*
X148106306Y-80858654D01*
X148106303Y-80858653D01*
X147955485Y-80818240D01*
X147894275Y-80801839D01*
X147894268Y-80801838D01*
X147675602Y-80782708D01*
X147675598Y-80782708D01*
X147456931Y-80801838D01*
X147456924Y-80801839D01*
X147334502Y-80834642D01*
X147244897Y-80858653D01*
X147244895Y-80858653D01*
X147244891Y-80858655D01*
X147045957Y-80951419D01*
X147045949Y-80951423D01*
X146866147Y-81077322D01*
X146866141Y-81077327D01*
X146710927Y-81232541D01*
X146710926Y-81232543D01*
X146615674Y-81368577D01*
X146561097Y-81412201D01*
X146491598Y-81419394D01*
X146429244Y-81387872D01*
X146393830Y-81327642D01*
X146390099Y-81297453D01*
X146390099Y-81240129D01*
X146390098Y-81240123D01*
X146390097Y-81240116D01*
X146383691Y-81180517D01*
X146372348Y-81150106D01*
X146333397Y-81045671D01*
X146333393Y-81045664D01*
X146247147Y-80930455D01*
X146247144Y-80930452D01*
X146131935Y-80844206D01*
X146131928Y-80844202D01*
X145997082Y-80793908D01*
X145997083Y-80793908D01*
X145937483Y-80787501D01*
X145937481Y-80787500D01*
X145937473Y-80787500D01*
X145937464Y-80787500D01*
X144333729Y-80787500D01*
X144333723Y-80787501D01*
X144274116Y-80793908D01*
X144139271Y-80844202D01*
X144139264Y-80844206D01*
X144024055Y-80930452D01*
X144024052Y-80930455D01*
X143937806Y-81045664D01*
X143937802Y-81045671D01*
X143887508Y-81180517D01*
X143881915Y-81232543D01*
X143881101Y-81240123D01*
X143881100Y-81240135D01*
X126992500Y-81240135D01*
X126992500Y-66801997D01*
X143876308Y-66801997D01*
X143876308Y-66802000D01*
X143895439Y-67020674D01*
X143952253Y-67232703D01*
X143952254Y-67232706D01*
X143952255Y-67232708D01*
X144045019Y-67431642D01*
X144045023Y-67431650D01*
X144170922Y-67611452D01*
X144170927Y-67611458D01*
X144326141Y-67766672D01*
X144326147Y-67766677D01*
X144505949Y-67892576D01*
X144505951Y-67892577D01*
X144505954Y-67892579D01*
X144704897Y-67985347D01*
X144916926Y-68042161D01*
X145073121Y-68055826D01*
X145135598Y-68061292D01*
X145135600Y-68061292D01*
X145135602Y-68061292D01*
X145190268Y-68056509D01*
X145354274Y-68042161D01*
X145566303Y-67985347D01*
X145765246Y-67892579D01*
X145945057Y-67766674D01*
X146100274Y-67611457D01*
X146226179Y-67431646D01*
X146293218Y-67287878D01*
X146339390Y-67235439D01*
X146406583Y-67216287D01*
X146473464Y-67236502D01*
X146517982Y-67287879D01*
X146585019Y-67431642D01*
X146585023Y-67431650D01*
X146710922Y-67611452D01*
X146710927Y-67611458D01*
X146866141Y-67766672D01*
X146866147Y-67766677D01*
X147045949Y-67892576D01*
X147045951Y-67892577D01*
X147045954Y-67892579D01*
X147244897Y-67985347D01*
X147456926Y-68042161D01*
X147613121Y-68055826D01*
X147675598Y-68061292D01*
X147675600Y-68061292D01*
X147675602Y-68061292D01*
X147730268Y-68056509D01*
X147894274Y-68042161D01*
X148106303Y-67985347D01*
X148305246Y-67892579D01*
X148485057Y-67766674D01*
X148640274Y-67611457D01*
X148766179Y-67431646D01*
X148833218Y-67287878D01*
X148879390Y-67235439D01*
X148946583Y-67216287D01*
X149013464Y-67236502D01*
X149057982Y-67287879D01*
X149125019Y-67431642D01*
X149125023Y-67431650D01*
X149250922Y-67611452D01*
X149250927Y-67611458D01*
X149406141Y-67766672D01*
X149406147Y-67766677D01*
X149585949Y-67892576D01*
X149585951Y-67892577D01*
X149585954Y-67892579D01*
X149784897Y-67985347D01*
X149996926Y-68042161D01*
X150153121Y-68055826D01*
X150215598Y-68061292D01*
X150215600Y-68061292D01*
X150215602Y-68061292D01*
X150270268Y-68056509D01*
X150434274Y-68042161D01*
X150646303Y-67985347D01*
X150845246Y-67892579D01*
X151025057Y-67766674D01*
X151180274Y-67611457D01*
X151306179Y-67431646D01*
X151373218Y-67287878D01*
X151419390Y-67235439D01*
X151486583Y-67216287D01*
X151553464Y-67236502D01*
X151597982Y-67287879D01*
X151665019Y-67431642D01*
X151665023Y-67431650D01*
X151790922Y-67611452D01*
X151790927Y-67611458D01*
X151946141Y-67766672D01*
X151946147Y-67766677D01*
X152125949Y-67892576D01*
X152125951Y-67892577D01*
X152125954Y-67892579D01*
X152324897Y-67985347D01*
X152536926Y-68042161D01*
X152693121Y-68055826D01*
X152755598Y-68061292D01*
X152755600Y-68061292D01*
X152755602Y-68061292D01*
X152810268Y-68056509D01*
X152974274Y-68042161D01*
X153186303Y-67985347D01*
X153385246Y-67892579D01*
X153565057Y-67766674D01*
X153720274Y-67611457D01*
X153846179Y-67431646D01*
X153913218Y-67287878D01*
X153959390Y-67235439D01*
X154026583Y-67216287D01*
X154093464Y-67236502D01*
X154137982Y-67287879D01*
X154205019Y-67431642D01*
X154205023Y-67431650D01*
X154330922Y-67611452D01*
X154330927Y-67611458D01*
X154486141Y-67766672D01*
X154486147Y-67766677D01*
X154665949Y-67892576D01*
X154665951Y-67892577D01*
X154665954Y-67892579D01*
X154864897Y-67985347D01*
X155076926Y-68042161D01*
X155233121Y-68055826D01*
X155295598Y-68061292D01*
X155295600Y-68061292D01*
X155295602Y-68061292D01*
X155350268Y-68056509D01*
X155514274Y-68042161D01*
X155726303Y-67985347D01*
X155925246Y-67892579D01*
X156105057Y-67766674D01*
X156260274Y-67611457D01*
X156386179Y-67431646D01*
X156453218Y-67287878D01*
X156499390Y-67235439D01*
X156566583Y-67216287D01*
X156633464Y-67236502D01*
X156677982Y-67287879D01*
X156745019Y-67431642D01*
X156745023Y-67431650D01*
X156870922Y-67611452D01*
X156870927Y-67611458D01*
X157026141Y-67766672D01*
X157026147Y-67766677D01*
X157205949Y-67892576D01*
X157205951Y-67892577D01*
X157205954Y-67892579D01*
X157404897Y-67985347D01*
X157616926Y-68042161D01*
X157773121Y-68055826D01*
X157835598Y-68061292D01*
X157835600Y-68061292D01*
X157835602Y-68061292D01*
X157890268Y-68056509D01*
X158054274Y-68042161D01*
X158266303Y-67985347D01*
X158465246Y-67892579D01*
X158645057Y-67766674D01*
X158800274Y-67611457D01*
X158926179Y-67431646D01*
X158993218Y-67287878D01*
X159039390Y-67235439D01*
X159106583Y-67216287D01*
X159173464Y-67236502D01*
X159217982Y-67287879D01*
X159285019Y-67431642D01*
X159285023Y-67431650D01*
X159410922Y-67611452D01*
X159410927Y-67611458D01*
X159566141Y-67766672D01*
X159566147Y-67766677D01*
X159745949Y-67892576D01*
X159745951Y-67892577D01*
X159745954Y-67892579D01*
X159944897Y-67985347D01*
X160156926Y-68042161D01*
X160313121Y-68055826D01*
X160375598Y-68061292D01*
X160375600Y-68061292D01*
X160375602Y-68061292D01*
X160430268Y-68056509D01*
X160594274Y-68042161D01*
X160806303Y-67985347D01*
X161005246Y-67892579D01*
X161185057Y-67766674D01*
X161340274Y-67611457D01*
X161466179Y-67431646D01*
X161533218Y-67287878D01*
X161579390Y-67235439D01*
X161646583Y-67216287D01*
X161713464Y-67236502D01*
X161757982Y-67287879D01*
X161825019Y-67431642D01*
X161825023Y-67431650D01*
X161950922Y-67611452D01*
X161950927Y-67611458D01*
X162106141Y-67766672D01*
X162106147Y-67766677D01*
X162285949Y-67892576D01*
X162285951Y-67892577D01*
X162285954Y-67892579D01*
X162484897Y-67985347D01*
X162696926Y-68042161D01*
X162853121Y-68055826D01*
X162915598Y-68061292D01*
X162915600Y-68061292D01*
X162915602Y-68061292D01*
X162970268Y-68056509D01*
X163134274Y-68042161D01*
X163346303Y-67985347D01*
X163545246Y-67892579D01*
X163725057Y-67766674D01*
X163880274Y-67611457D01*
X164006179Y-67431646D01*
X164073218Y-67287878D01*
X164119390Y-67235439D01*
X164186583Y-67216287D01*
X164253464Y-67236502D01*
X164297982Y-67287879D01*
X164365019Y-67431642D01*
X164365023Y-67431650D01*
X164490922Y-67611452D01*
X164490927Y-67611458D01*
X164646141Y-67766672D01*
X164646147Y-67766677D01*
X164825949Y-67892576D01*
X164825951Y-67892577D01*
X164825954Y-67892579D01*
X165024897Y-67985347D01*
X165236926Y-68042161D01*
X165393121Y-68055826D01*
X165455598Y-68061292D01*
X165455600Y-68061292D01*
X165455602Y-68061292D01*
X165510268Y-68056509D01*
X165674274Y-68042161D01*
X165886303Y-67985347D01*
X166085246Y-67892579D01*
X166265057Y-67766674D01*
X166420274Y-67611457D01*
X166546179Y-67431646D01*
X166613218Y-67287878D01*
X166659390Y-67235439D01*
X166726583Y-67216287D01*
X166793464Y-67236502D01*
X166837982Y-67287879D01*
X166905019Y-67431642D01*
X166905023Y-67431650D01*
X167030922Y-67611452D01*
X167030927Y-67611458D01*
X167186141Y-67766672D01*
X167186147Y-67766677D01*
X167365949Y-67892576D01*
X167365951Y-67892577D01*
X167365954Y-67892579D01*
X167564897Y-67985347D01*
X167776926Y-68042161D01*
X167933121Y-68055826D01*
X167995598Y-68061292D01*
X167995600Y-68061292D01*
X167995602Y-68061292D01*
X168050268Y-68056509D01*
X168214274Y-68042161D01*
X168426303Y-67985347D01*
X168625246Y-67892579D01*
X168805057Y-67766674D01*
X168960274Y-67611457D01*
X169086179Y-67431646D01*
X169153218Y-67287878D01*
X169199390Y-67235439D01*
X169266583Y-67216287D01*
X169333464Y-67236502D01*
X169377982Y-67287879D01*
X169445019Y-67431642D01*
X169445023Y-67431650D01*
X169570922Y-67611452D01*
X169570927Y-67611458D01*
X169726141Y-67766672D01*
X169726147Y-67766677D01*
X169905949Y-67892576D01*
X169905951Y-67892577D01*
X169905954Y-67892579D01*
X170104897Y-67985347D01*
X170316926Y-68042161D01*
X170473121Y-68055826D01*
X170535598Y-68061292D01*
X170535600Y-68061292D01*
X170535602Y-68061292D01*
X170590268Y-68056509D01*
X170754274Y-68042161D01*
X170966303Y-67985347D01*
X171165246Y-67892579D01*
X171345057Y-67766674D01*
X171500274Y-67611457D01*
X171626179Y-67431646D01*
X171693218Y-67287878D01*
X171739390Y-67235439D01*
X171806583Y-67216287D01*
X171873464Y-67236502D01*
X171917982Y-67287879D01*
X171985019Y-67431642D01*
X171985023Y-67431650D01*
X172110922Y-67611452D01*
X172110927Y-67611458D01*
X172266141Y-67766672D01*
X172266147Y-67766677D01*
X172445949Y-67892576D01*
X172445951Y-67892577D01*
X172445954Y-67892579D01*
X172644897Y-67985347D01*
X172856926Y-68042161D01*
X173013121Y-68055826D01*
X173075598Y-68061292D01*
X173075600Y-68061292D01*
X173075602Y-68061292D01*
X173130268Y-68056509D01*
X173294274Y-68042161D01*
X173506303Y-67985347D01*
X173705246Y-67892579D01*
X173885057Y-67766674D01*
X174040274Y-67611457D01*
X174166179Y-67431646D01*
X174233218Y-67287878D01*
X174279390Y-67235439D01*
X174346583Y-67216287D01*
X174413464Y-67236502D01*
X174457982Y-67287879D01*
X174525019Y-67431642D01*
X174525023Y-67431650D01*
X174650922Y-67611452D01*
X174650927Y-67611458D01*
X174806141Y-67766672D01*
X174806147Y-67766677D01*
X174985949Y-67892576D01*
X174985951Y-67892577D01*
X174985954Y-67892579D01*
X175184897Y-67985347D01*
X175396926Y-68042161D01*
X175553121Y-68055826D01*
X175615598Y-68061292D01*
X175615600Y-68061292D01*
X175615602Y-68061292D01*
X175670268Y-68056509D01*
X175834274Y-68042161D01*
X176046303Y-67985347D01*
X176245246Y-67892579D01*
X176425057Y-67766674D01*
X176580274Y-67611457D01*
X176706179Y-67431646D01*
X176773218Y-67287878D01*
X176819390Y-67235439D01*
X176886583Y-67216287D01*
X176953464Y-67236502D01*
X176997982Y-67287879D01*
X177065019Y-67431642D01*
X177065023Y-67431650D01*
X177190922Y-67611452D01*
X177190927Y-67611458D01*
X177346141Y-67766672D01*
X177346147Y-67766677D01*
X177525949Y-67892576D01*
X177525951Y-67892577D01*
X177525954Y-67892579D01*
X177724897Y-67985347D01*
X177936926Y-68042161D01*
X178093121Y-68055826D01*
X178155598Y-68061292D01*
X178155600Y-68061292D01*
X178155602Y-68061292D01*
X178210268Y-68056509D01*
X178374274Y-68042161D01*
X178586303Y-67985347D01*
X178785246Y-67892579D01*
X178965057Y-67766674D01*
X179120274Y-67611457D01*
X179246179Y-67431646D01*
X179313218Y-67287878D01*
X179359390Y-67235439D01*
X179426583Y-67216287D01*
X179493464Y-67236502D01*
X179537982Y-67287879D01*
X179605019Y-67431642D01*
X179605023Y-67431650D01*
X179730922Y-67611452D01*
X179730927Y-67611458D01*
X179886141Y-67766672D01*
X179886147Y-67766677D01*
X180065949Y-67892576D01*
X180065951Y-67892577D01*
X180065954Y-67892579D01*
X180264897Y-67985347D01*
X180476926Y-68042161D01*
X180633121Y-68055826D01*
X180695598Y-68061292D01*
X180695600Y-68061292D01*
X180695602Y-68061292D01*
X180750268Y-68056509D01*
X180914274Y-68042161D01*
X181126303Y-67985347D01*
X181325246Y-67892579D01*
X181505057Y-67766674D01*
X181660274Y-67611457D01*
X181786179Y-67431646D01*
X181853218Y-67287878D01*
X181899390Y-67235439D01*
X181966583Y-67216287D01*
X182033464Y-67236502D01*
X182077982Y-67287879D01*
X182145019Y-67431642D01*
X182145023Y-67431650D01*
X182270922Y-67611452D01*
X182270927Y-67611458D01*
X182426141Y-67766672D01*
X182426147Y-67766677D01*
X182605949Y-67892576D01*
X182605951Y-67892577D01*
X182605954Y-67892579D01*
X182804897Y-67985347D01*
X183016926Y-68042161D01*
X183173121Y-68055826D01*
X183235598Y-68061292D01*
X183235600Y-68061292D01*
X183235602Y-68061292D01*
X183290268Y-68056509D01*
X183454274Y-68042161D01*
X183666303Y-67985347D01*
X183865246Y-67892579D01*
X184045057Y-67766674D01*
X184200274Y-67611457D01*
X184326179Y-67431646D01*
X184393218Y-67287878D01*
X184439390Y-67235439D01*
X184506583Y-67216287D01*
X184573464Y-67236502D01*
X184617982Y-67287879D01*
X184685019Y-67431642D01*
X184685023Y-67431650D01*
X184810922Y-67611452D01*
X184810927Y-67611458D01*
X184966141Y-67766672D01*
X184966147Y-67766677D01*
X185145949Y-67892576D01*
X185145951Y-67892577D01*
X185145954Y-67892579D01*
X185344897Y-67985347D01*
X185556926Y-68042161D01*
X185713121Y-68055826D01*
X185775598Y-68061292D01*
X185775600Y-68061292D01*
X185775602Y-68061292D01*
X185830268Y-68056509D01*
X185994274Y-68042161D01*
X186206303Y-67985347D01*
X186405246Y-67892579D01*
X186585057Y-67766674D01*
X186740274Y-67611457D01*
X186866179Y-67431646D01*
X186933218Y-67287878D01*
X186979390Y-67235439D01*
X187046583Y-67216287D01*
X187113464Y-67236502D01*
X187157982Y-67287879D01*
X187225019Y-67431642D01*
X187225023Y-67431650D01*
X187350922Y-67611452D01*
X187350927Y-67611458D01*
X187506141Y-67766672D01*
X187506147Y-67766677D01*
X187685949Y-67892576D01*
X187685951Y-67892577D01*
X187685954Y-67892579D01*
X187884897Y-67985347D01*
X188096926Y-68042161D01*
X188253121Y-68055826D01*
X188315598Y-68061292D01*
X188315600Y-68061292D01*
X188315602Y-68061292D01*
X188370268Y-68056509D01*
X188534274Y-68042161D01*
X188746303Y-67985347D01*
X188945246Y-67892579D01*
X189125057Y-67766674D01*
X189280274Y-67611457D01*
X189406179Y-67431646D01*
X189473218Y-67287878D01*
X189519390Y-67235439D01*
X189586583Y-67216287D01*
X189653464Y-67236502D01*
X189697982Y-67287879D01*
X189765019Y-67431642D01*
X189765023Y-67431650D01*
X189890922Y-67611452D01*
X189890927Y-67611458D01*
X190046141Y-67766672D01*
X190046147Y-67766677D01*
X190225949Y-67892576D01*
X190225951Y-67892577D01*
X190225954Y-67892579D01*
X190424897Y-67985347D01*
X190636926Y-68042161D01*
X190793121Y-68055826D01*
X190855598Y-68061292D01*
X190855600Y-68061292D01*
X190855602Y-68061292D01*
X190910268Y-68056509D01*
X191074274Y-68042161D01*
X191286303Y-67985347D01*
X191485246Y-67892579D01*
X191665057Y-67766674D01*
X191820274Y-67611457D01*
X191946179Y-67431646D01*
X192013218Y-67287878D01*
X192059390Y-67235439D01*
X192126583Y-67216287D01*
X192193464Y-67236502D01*
X192237982Y-67287879D01*
X192305019Y-67431642D01*
X192305023Y-67431650D01*
X192430922Y-67611452D01*
X192430927Y-67611458D01*
X192586141Y-67766672D01*
X192586147Y-67766677D01*
X192765949Y-67892576D01*
X192765951Y-67892577D01*
X192765954Y-67892579D01*
X192964897Y-67985347D01*
X193176926Y-68042161D01*
X193333121Y-68055826D01*
X193395598Y-68061292D01*
X193395600Y-68061292D01*
X193395602Y-68061292D01*
X193450268Y-68056509D01*
X193614274Y-68042161D01*
X193826303Y-67985347D01*
X194025246Y-67892579D01*
X194205057Y-67766674D01*
X194360274Y-67611457D01*
X194486179Y-67431646D01*
X194578947Y-67232703D01*
X194635761Y-67020674D01*
X194654892Y-66802000D01*
X194635761Y-66583326D01*
X194578947Y-66371297D01*
X194486179Y-66172354D01*
X194486177Y-66172351D01*
X194486176Y-66172349D01*
X194360277Y-65992547D01*
X194360272Y-65992541D01*
X194205058Y-65837327D01*
X194205052Y-65837322D01*
X194025250Y-65711423D01*
X194025242Y-65711419D01*
X193826308Y-65618655D01*
X193826306Y-65618654D01*
X193826303Y-65618653D01*
X193675485Y-65578240D01*
X193614275Y-65561839D01*
X193614268Y-65561838D01*
X193395602Y-65542708D01*
X193395598Y-65542708D01*
X193176931Y-65561838D01*
X193176924Y-65561839D01*
X193054502Y-65594642D01*
X192964897Y-65618653D01*
X192964895Y-65618653D01*
X192964891Y-65618655D01*
X192765957Y-65711419D01*
X192765949Y-65711423D01*
X192586147Y-65837322D01*
X192586141Y-65837327D01*
X192430927Y-65992541D01*
X192430922Y-65992547D01*
X192305023Y-66172349D01*
X192305019Y-66172357D01*
X192237982Y-66316120D01*
X192191810Y-66368560D01*
X192124617Y-66387712D01*
X192057735Y-66367496D01*
X192013218Y-66316120D01*
X191946180Y-66172357D01*
X191946179Y-66172354D01*
X191946177Y-66172351D01*
X191946176Y-66172349D01*
X191820277Y-65992547D01*
X191820272Y-65992541D01*
X191665058Y-65837327D01*
X191665052Y-65837322D01*
X191485250Y-65711423D01*
X191485242Y-65711419D01*
X191286308Y-65618655D01*
X191286306Y-65618654D01*
X191286303Y-65618653D01*
X191135485Y-65578240D01*
X191074275Y-65561839D01*
X191074268Y-65561838D01*
X190855602Y-65542708D01*
X190855598Y-65542708D01*
X190636931Y-65561838D01*
X190636924Y-65561839D01*
X190514502Y-65594642D01*
X190424897Y-65618653D01*
X190424895Y-65618653D01*
X190424891Y-65618655D01*
X190225957Y-65711419D01*
X190225949Y-65711423D01*
X190046147Y-65837322D01*
X190046141Y-65837327D01*
X189890927Y-65992541D01*
X189890922Y-65992547D01*
X189765023Y-66172349D01*
X189765019Y-66172357D01*
X189697982Y-66316120D01*
X189651810Y-66368560D01*
X189584617Y-66387712D01*
X189517735Y-66367496D01*
X189473218Y-66316120D01*
X189406180Y-66172357D01*
X189406179Y-66172354D01*
X189406177Y-66172351D01*
X189406176Y-66172349D01*
X189280277Y-65992547D01*
X189280272Y-65992541D01*
X189125058Y-65837327D01*
X189125052Y-65837322D01*
X188945250Y-65711423D01*
X188945242Y-65711419D01*
X188746308Y-65618655D01*
X188746306Y-65618654D01*
X188746303Y-65618653D01*
X188595485Y-65578240D01*
X188534275Y-65561839D01*
X188534268Y-65561838D01*
X188315602Y-65542708D01*
X188315598Y-65542708D01*
X188096931Y-65561838D01*
X188096924Y-65561839D01*
X187974502Y-65594642D01*
X187884897Y-65618653D01*
X187884895Y-65618653D01*
X187884891Y-65618655D01*
X187685957Y-65711419D01*
X187685949Y-65711423D01*
X187506147Y-65837322D01*
X187506141Y-65837327D01*
X187350927Y-65992541D01*
X187350922Y-65992547D01*
X187225023Y-66172349D01*
X187225019Y-66172357D01*
X187157982Y-66316120D01*
X187111810Y-66368560D01*
X187044617Y-66387712D01*
X186977735Y-66367496D01*
X186933218Y-66316120D01*
X186866180Y-66172357D01*
X186866179Y-66172354D01*
X186866177Y-66172351D01*
X186866176Y-66172349D01*
X186740277Y-65992547D01*
X186740272Y-65992541D01*
X186585058Y-65837327D01*
X186585052Y-65837322D01*
X186405250Y-65711423D01*
X186405242Y-65711419D01*
X186206308Y-65618655D01*
X186206306Y-65618654D01*
X186206303Y-65618653D01*
X186055485Y-65578240D01*
X185994275Y-65561839D01*
X185994268Y-65561838D01*
X185775602Y-65542708D01*
X185775598Y-65542708D01*
X185556931Y-65561838D01*
X185556924Y-65561839D01*
X185434502Y-65594642D01*
X185344897Y-65618653D01*
X185344895Y-65618653D01*
X185344891Y-65618655D01*
X185145957Y-65711419D01*
X185145949Y-65711423D01*
X184966147Y-65837322D01*
X184966141Y-65837327D01*
X184810927Y-65992541D01*
X184810922Y-65992547D01*
X184685023Y-66172349D01*
X184685019Y-66172357D01*
X184617982Y-66316120D01*
X184571810Y-66368560D01*
X184504617Y-66387712D01*
X184437735Y-66367496D01*
X184393218Y-66316120D01*
X184326180Y-66172357D01*
X184326179Y-66172354D01*
X184326177Y-66172351D01*
X184326176Y-66172349D01*
X184200277Y-65992547D01*
X184200272Y-65992541D01*
X184045058Y-65837327D01*
X184045052Y-65837322D01*
X183865250Y-65711423D01*
X183865242Y-65711419D01*
X183666308Y-65618655D01*
X183666306Y-65618654D01*
X183666303Y-65618653D01*
X183515485Y-65578240D01*
X183454275Y-65561839D01*
X183454268Y-65561838D01*
X183235602Y-65542708D01*
X183235598Y-65542708D01*
X183016931Y-65561838D01*
X183016924Y-65561839D01*
X182894502Y-65594642D01*
X182804897Y-65618653D01*
X182804895Y-65618653D01*
X182804891Y-65618655D01*
X182605957Y-65711419D01*
X182605949Y-65711423D01*
X182426147Y-65837322D01*
X182426141Y-65837327D01*
X182270927Y-65992541D01*
X182270922Y-65992547D01*
X182145023Y-66172349D01*
X182145019Y-66172357D01*
X182077982Y-66316120D01*
X182031810Y-66368560D01*
X181964617Y-66387712D01*
X181897735Y-66367496D01*
X181853218Y-66316120D01*
X181786180Y-66172357D01*
X181786179Y-66172354D01*
X181786177Y-66172351D01*
X181786176Y-66172349D01*
X181660277Y-65992547D01*
X181660272Y-65992541D01*
X181505058Y-65837327D01*
X181505052Y-65837322D01*
X181325250Y-65711423D01*
X181325242Y-65711419D01*
X181126308Y-65618655D01*
X181126306Y-65618654D01*
X181126303Y-65618653D01*
X180975485Y-65578240D01*
X180914275Y-65561839D01*
X180914268Y-65561838D01*
X180695602Y-65542708D01*
X180695598Y-65542708D01*
X180476931Y-65561838D01*
X180476924Y-65561839D01*
X180354502Y-65594642D01*
X180264897Y-65618653D01*
X180264895Y-65618653D01*
X180264891Y-65618655D01*
X180065957Y-65711419D01*
X180065949Y-65711423D01*
X179886147Y-65837322D01*
X179886141Y-65837327D01*
X179730927Y-65992541D01*
X179730922Y-65992547D01*
X179605023Y-66172349D01*
X179605019Y-66172357D01*
X179537982Y-66316120D01*
X179491810Y-66368560D01*
X179424617Y-66387712D01*
X179357735Y-66367496D01*
X179313218Y-66316120D01*
X179246180Y-66172357D01*
X179246179Y-66172354D01*
X179246177Y-66172351D01*
X179246176Y-66172349D01*
X179120277Y-65992547D01*
X179120272Y-65992541D01*
X178965058Y-65837327D01*
X178965052Y-65837322D01*
X178785250Y-65711423D01*
X178785242Y-65711419D01*
X178586308Y-65618655D01*
X178586306Y-65618654D01*
X178586303Y-65618653D01*
X178435485Y-65578240D01*
X178374275Y-65561839D01*
X178374268Y-65561838D01*
X178155602Y-65542708D01*
X178155598Y-65542708D01*
X177936931Y-65561838D01*
X177936924Y-65561839D01*
X177814502Y-65594642D01*
X177724897Y-65618653D01*
X177724895Y-65618653D01*
X177724891Y-65618655D01*
X177525957Y-65711419D01*
X177525949Y-65711423D01*
X177346147Y-65837322D01*
X177346141Y-65837327D01*
X177190927Y-65992541D01*
X177190922Y-65992547D01*
X177065023Y-66172349D01*
X177065019Y-66172357D01*
X176997982Y-66316120D01*
X176951810Y-66368560D01*
X176884617Y-66387712D01*
X176817735Y-66367496D01*
X176773218Y-66316120D01*
X176706180Y-66172357D01*
X176706179Y-66172354D01*
X176706177Y-66172351D01*
X176706176Y-66172349D01*
X176580277Y-65992547D01*
X176580272Y-65992541D01*
X176425058Y-65837327D01*
X176425052Y-65837322D01*
X176245250Y-65711423D01*
X176245242Y-65711419D01*
X176046308Y-65618655D01*
X176046306Y-65618654D01*
X176046303Y-65618653D01*
X175895485Y-65578240D01*
X175834275Y-65561839D01*
X175834268Y-65561838D01*
X175615602Y-65542708D01*
X175615598Y-65542708D01*
X175396931Y-65561838D01*
X175396924Y-65561839D01*
X175274502Y-65594642D01*
X175184897Y-65618653D01*
X175184895Y-65618653D01*
X175184891Y-65618655D01*
X174985957Y-65711419D01*
X174985949Y-65711423D01*
X174806147Y-65837322D01*
X174806141Y-65837327D01*
X174650927Y-65992541D01*
X174650922Y-65992547D01*
X174525023Y-66172349D01*
X174525019Y-66172357D01*
X174457982Y-66316120D01*
X174411810Y-66368560D01*
X174344617Y-66387712D01*
X174277735Y-66367496D01*
X174233218Y-66316120D01*
X174166180Y-66172357D01*
X174166179Y-66172354D01*
X174166177Y-66172351D01*
X174166176Y-66172349D01*
X174040277Y-65992547D01*
X174040272Y-65992541D01*
X173885058Y-65837327D01*
X173885052Y-65837322D01*
X173705250Y-65711423D01*
X173705242Y-65711419D01*
X173506308Y-65618655D01*
X173506306Y-65618654D01*
X173506303Y-65618653D01*
X173355485Y-65578240D01*
X173294275Y-65561839D01*
X173294268Y-65561838D01*
X173075602Y-65542708D01*
X173075598Y-65542708D01*
X172856931Y-65561838D01*
X172856924Y-65561839D01*
X172734502Y-65594642D01*
X172644897Y-65618653D01*
X172644895Y-65618653D01*
X172644891Y-65618655D01*
X172445957Y-65711419D01*
X172445949Y-65711423D01*
X172266147Y-65837322D01*
X172266141Y-65837327D01*
X172110927Y-65992541D01*
X172110922Y-65992547D01*
X171985023Y-66172349D01*
X171985019Y-66172357D01*
X171917982Y-66316120D01*
X171871810Y-66368560D01*
X171804617Y-66387712D01*
X171737735Y-66367496D01*
X171693218Y-66316120D01*
X171626180Y-66172357D01*
X171626179Y-66172354D01*
X171626177Y-66172351D01*
X171626176Y-66172349D01*
X171500277Y-65992547D01*
X171500272Y-65992541D01*
X171345058Y-65837327D01*
X171345052Y-65837322D01*
X171165250Y-65711423D01*
X171165242Y-65711419D01*
X170966308Y-65618655D01*
X170966306Y-65618654D01*
X170966303Y-65618653D01*
X170815485Y-65578240D01*
X170754275Y-65561839D01*
X170754268Y-65561838D01*
X170535602Y-65542708D01*
X170535598Y-65542708D01*
X170316931Y-65561838D01*
X170316924Y-65561839D01*
X170194502Y-65594642D01*
X170104897Y-65618653D01*
X170104895Y-65618653D01*
X170104891Y-65618655D01*
X169905957Y-65711419D01*
X169905949Y-65711423D01*
X169726147Y-65837322D01*
X169726141Y-65837327D01*
X169570927Y-65992541D01*
X169570922Y-65992547D01*
X169445023Y-66172349D01*
X169445019Y-66172357D01*
X169377982Y-66316120D01*
X169331810Y-66368560D01*
X169264617Y-66387712D01*
X169197735Y-66367496D01*
X169153218Y-66316120D01*
X169086180Y-66172357D01*
X169086179Y-66172354D01*
X169086177Y-66172351D01*
X169086176Y-66172349D01*
X168960277Y-65992547D01*
X168960272Y-65992541D01*
X168805058Y-65837327D01*
X168805052Y-65837322D01*
X168625250Y-65711423D01*
X168625242Y-65711419D01*
X168426308Y-65618655D01*
X168426306Y-65618654D01*
X168426303Y-65618653D01*
X168275485Y-65578240D01*
X168214275Y-65561839D01*
X168214268Y-65561838D01*
X167995602Y-65542708D01*
X167995598Y-65542708D01*
X167776931Y-65561838D01*
X167776924Y-65561839D01*
X167654502Y-65594642D01*
X167564897Y-65618653D01*
X167564895Y-65618653D01*
X167564891Y-65618655D01*
X167365957Y-65711419D01*
X167365949Y-65711423D01*
X167186147Y-65837322D01*
X167186141Y-65837327D01*
X167030927Y-65992541D01*
X167030922Y-65992547D01*
X166905023Y-66172349D01*
X166905019Y-66172357D01*
X166837982Y-66316120D01*
X166791810Y-66368560D01*
X166724617Y-66387712D01*
X166657735Y-66367496D01*
X166613218Y-66316120D01*
X166546180Y-66172357D01*
X166546179Y-66172354D01*
X166546177Y-66172351D01*
X166546176Y-66172349D01*
X166420277Y-65992547D01*
X166420272Y-65992541D01*
X166265058Y-65837327D01*
X166265052Y-65837322D01*
X166085250Y-65711423D01*
X166085242Y-65711419D01*
X165886308Y-65618655D01*
X165886306Y-65618654D01*
X165886303Y-65618653D01*
X165735485Y-65578240D01*
X165674275Y-65561839D01*
X165674268Y-65561838D01*
X165455602Y-65542708D01*
X165455598Y-65542708D01*
X165236931Y-65561838D01*
X165236924Y-65561839D01*
X165114502Y-65594642D01*
X165024897Y-65618653D01*
X165024895Y-65618653D01*
X165024891Y-65618655D01*
X164825957Y-65711419D01*
X164825949Y-65711423D01*
X164646147Y-65837322D01*
X164646141Y-65837327D01*
X164490927Y-65992541D01*
X164490922Y-65992547D01*
X164365023Y-66172349D01*
X164365019Y-66172357D01*
X164297982Y-66316120D01*
X164251810Y-66368560D01*
X164184617Y-66387712D01*
X164117735Y-66367496D01*
X164073218Y-66316120D01*
X164006180Y-66172357D01*
X164006179Y-66172354D01*
X164006177Y-66172351D01*
X164006176Y-66172349D01*
X163880277Y-65992547D01*
X163880272Y-65992541D01*
X163725058Y-65837327D01*
X163725052Y-65837322D01*
X163545250Y-65711423D01*
X163545242Y-65711419D01*
X163346308Y-65618655D01*
X163346306Y-65618654D01*
X163346303Y-65618653D01*
X163195485Y-65578240D01*
X163134275Y-65561839D01*
X163134268Y-65561838D01*
X162915602Y-65542708D01*
X162915598Y-65542708D01*
X162696931Y-65561838D01*
X162696924Y-65561839D01*
X162574502Y-65594642D01*
X162484897Y-65618653D01*
X162484895Y-65618653D01*
X162484891Y-65618655D01*
X162285957Y-65711419D01*
X162285949Y-65711423D01*
X162106147Y-65837322D01*
X162106141Y-65837327D01*
X161950927Y-65992541D01*
X161950922Y-65992547D01*
X161825023Y-66172349D01*
X161825019Y-66172357D01*
X161757982Y-66316120D01*
X161711810Y-66368560D01*
X161644617Y-66387712D01*
X161577735Y-66367496D01*
X161533218Y-66316120D01*
X161466180Y-66172357D01*
X161466179Y-66172354D01*
X161466177Y-66172351D01*
X161466176Y-66172349D01*
X161340277Y-65992547D01*
X161340272Y-65992541D01*
X161185058Y-65837327D01*
X161185052Y-65837322D01*
X161005250Y-65711423D01*
X161005242Y-65711419D01*
X160806308Y-65618655D01*
X160806306Y-65618654D01*
X160806303Y-65618653D01*
X160655485Y-65578240D01*
X160594275Y-65561839D01*
X160594268Y-65561838D01*
X160375602Y-65542708D01*
X160375598Y-65542708D01*
X160156931Y-65561838D01*
X160156924Y-65561839D01*
X160034502Y-65594642D01*
X159944897Y-65618653D01*
X159944895Y-65618653D01*
X159944891Y-65618655D01*
X159745957Y-65711419D01*
X159745949Y-65711423D01*
X159566147Y-65837322D01*
X159566141Y-65837327D01*
X159410927Y-65992541D01*
X159410922Y-65992547D01*
X159285023Y-66172349D01*
X159285019Y-66172357D01*
X159217982Y-66316120D01*
X159171810Y-66368560D01*
X159104617Y-66387712D01*
X159037735Y-66367496D01*
X158993218Y-66316120D01*
X158926180Y-66172357D01*
X158926179Y-66172354D01*
X158926177Y-66172351D01*
X158926176Y-66172349D01*
X158800277Y-65992547D01*
X158800272Y-65992541D01*
X158645058Y-65837327D01*
X158645052Y-65837322D01*
X158465250Y-65711423D01*
X158465242Y-65711419D01*
X158266308Y-65618655D01*
X158266306Y-65618654D01*
X158266303Y-65618653D01*
X158115485Y-65578240D01*
X158054275Y-65561839D01*
X158054268Y-65561838D01*
X157835602Y-65542708D01*
X157835598Y-65542708D01*
X157616931Y-65561838D01*
X157616924Y-65561839D01*
X157494502Y-65594642D01*
X157404897Y-65618653D01*
X157404895Y-65618653D01*
X157404891Y-65618655D01*
X157205957Y-65711419D01*
X157205949Y-65711423D01*
X157026147Y-65837322D01*
X157026141Y-65837327D01*
X156870927Y-65992541D01*
X156870922Y-65992547D01*
X156745023Y-66172349D01*
X156745019Y-66172357D01*
X156677982Y-66316120D01*
X156631810Y-66368560D01*
X156564617Y-66387712D01*
X156497735Y-66367496D01*
X156453218Y-66316120D01*
X156386180Y-66172357D01*
X156386179Y-66172354D01*
X156386177Y-66172351D01*
X156386176Y-66172349D01*
X156260277Y-65992547D01*
X156260272Y-65992541D01*
X156105058Y-65837327D01*
X156105052Y-65837322D01*
X155925250Y-65711423D01*
X155925242Y-65711419D01*
X155726308Y-65618655D01*
X155726306Y-65618654D01*
X155726303Y-65618653D01*
X155575485Y-65578240D01*
X155514275Y-65561839D01*
X155514268Y-65561838D01*
X155295602Y-65542708D01*
X155295598Y-65542708D01*
X155076931Y-65561838D01*
X155076924Y-65561839D01*
X154954502Y-65594642D01*
X154864897Y-65618653D01*
X154864895Y-65618653D01*
X154864891Y-65618655D01*
X154665957Y-65711419D01*
X154665949Y-65711423D01*
X154486147Y-65837322D01*
X154486141Y-65837327D01*
X154330927Y-65992541D01*
X154330922Y-65992547D01*
X154205023Y-66172349D01*
X154205019Y-66172357D01*
X154137982Y-66316120D01*
X154091810Y-66368560D01*
X154024617Y-66387712D01*
X153957735Y-66367496D01*
X153913218Y-66316120D01*
X153846180Y-66172357D01*
X153846179Y-66172354D01*
X153846177Y-66172351D01*
X153846176Y-66172349D01*
X153720277Y-65992547D01*
X153720272Y-65992541D01*
X153565058Y-65837327D01*
X153565052Y-65837322D01*
X153385250Y-65711423D01*
X153385242Y-65711419D01*
X153186308Y-65618655D01*
X153186306Y-65618654D01*
X153186303Y-65618653D01*
X153035485Y-65578240D01*
X152974275Y-65561839D01*
X152974268Y-65561838D01*
X152755602Y-65542708D01*
X152755598Y-65542708D01*
X152536931Y-65561838D01*
X152536924Y-65561839D01*
X152414502Y-65594642D01*
X152324897Y-65618653D01*
X152324895Y-65618653D01*
X152324891Y-65618655D01*
X152125957Y-65711419D01*
X152125949Y-65711423D01*
X151946147Y-65837322D01*
X151946141Y-65837327D01*
X151790927Y-65992541D01*
X151790922Y-65992547D01*
X151665023Y-66172349D01*
X151665019Y-66172357D01*
X151597982Y-66316120D01*
X151551810Y-66368560D01*
X151484617Y-66387712D01*
X151417735Y-66367496D01*
X151373218Y-66316120D01*
X151306180Y-66172357D01*
X151306179Y-66172354D01*
X151306177Y-66172351D01*
X151306176Y-66172349D01*
X151180277Y-65992547D01*
X151180272Y-65992541D01*
X151025058Y-65837327D01*
X151025052Y-65837322D01*
X150845250Y-65711423D01*
X150845242Y-65711419D01*
X150646308Y-65618655D01*
X150646306Y-65618654D01*
X150646303Y-65618653D01*
X150495485Y-65578240D01*
X150434275Y-65561839D01*
X150434268Y-65561838D01*
X150215602Y-65542708D01*
X150215598Y-65542708D01*
X149996931Y-65561838D01*
X149996924Y-65561839D01*
X149874502Y-65594642D01*
X149784897Y-65618653D01*
X149784895Y-65618653D01*
X149784891Y-65618655D01*
X149585957Y-65711419D01*
X149585949Y-65711423D01*
X149406147Y-65837322D01*
X149406141Y-65837327D01*
X149250927Y-65992541D01*
X149250922Y-65992547D01*
X149125023Y-66172349D01*
X149125019Y-66172357D01*
X149057982Y-66316120D01*
X149011810Y-66368560D01*
X148944617Y-66387712D01*
X148877735Y-66367496D01*
X148833218Y-66316120D01*
X148766180Y-66172357D01*
X148766179Y-66172354D01*
X148766177Y-66172351D01*
X148766176Y-66172349D01*
X148640277Y-65992547D01*
X148640272Y-65992541D01*
X148485058Y-65837327D01*
X148485052Y-65837322D01*
X148305250Y-65711423D01*
X148305242Y-65711419D01*
X148106308Y-65618655D01*
X148106306Y-65618654D01*
X148106303Y-65618653D01*
X147955485Y-65578240D01*
X147894275Y-65561839D01*
X147894268Y-65561838D01*
X147675602Y-65542708D01*
X147675598Y-65542708D01*
X147456931Y-65561838D01*
X147456924Y-65561839D01*
X147334502Y-65594642D01*
X147244897Y-65618653D01*
X147244895Y-65618653D01*
X147244891Y-65618655D01*
X147045957Y-65711419D01*
X147045949Y-65711423D01*
X146866147Y-65837322D01*
X146866141Y-65837327D01*
X146710927Y-65992541D01*
X146710922Y-65992547D01*
X146585023Y-66172349D01*
X146585019Y-66172357D01*
X146517982Y-66316120D01*
X146471810Y-66368560D01*
X146404617Y-66387712D01*
X146337735Y-66367496D01*
X146293218Y-66316120D01*
X146226180Y-66172357D01*
X146226179Y-66172354D01*
X146226177Y-66172351D01*
X146226176Y-66172349D01*
X146100277Y-65992547D01*
X146100272Y-65992541D01*
X145945058Y-65837327D01*
X145945052Y-65837322D01*
X145765250Y-65711423D01*
X145765242Y-65711419D01*
X145566308Y-65618655D01*
X145566306Y-65618654D01*
X145566303Y-65618653D01*
X145415485Y-65578240D01*
X145354275Y-65561839D01*
X145354268Y-65561838D01*
X145135602Y-65542708D01*
X145135598Y-65542708D01*
X144916931Y-65561838D01*
X144916924Y-65561839D01*
X144794502Y-65594642D01*
X144704897Y-65618653D01*
X144704895Y-65618653D01*
X144704891Y-65618655D01*
X144505957Y-65711419D01*
X144505949Y-65711423D01*
X144326147Y-65837322D01*
X144326141Y-65837327D01*
X144170927Y-65992541D01*
X144170922Y-65992547D01*
X144045023Y-66172349D01*
X144045019Y-66172357D01*
X143952255Y-66371291D01*
X143952253Y-66371295D01*
X143952253Y-66371297D01*
X143943347Y-66404535D01*
X143895439Y-66583324D01*
X143895438Y-66583331D01*
X143876308Y-66801997D01*
X126992500Y-66801997D01*
X126992500Y-56895993D01*
X129695225Y-56895993D01*
X129695225Y-56896006D01*
X129713892Y-57121289D01*
X129769388Y-57340439D01*
X129860198Y-57547466D01*
X129983842Y-57736716D01*
X129983850Y-57736727D01*
X130136950Y-57903036D01*
X130136954Y-57903040D01*
X130315351Y-58041893D01*
X130514169Y-58149488D01*
X130514172Y-58149489D01*
X130727982Y-58222890D01*
X130727984Y-58222890D01*
X130727986Y-58222891D01*
X130950967Y-58260100D01*
X130950968Y-58260100D01*
X131177032Y-58260100D01*
X131177033Y-58260100D01*
X131400014Y-58222891D01*
X131613831Y-58149488D01*
X131812649Y-58041893D01*
X131991046Y-57903040D01*
X132144156Y-57736719D01*
X132230193Y-57605028D01*
X132283338Y-57559675D01*
X132352569Y-57550251D01*
X132415905Y-57579753D01*
X132437804Y-57605025D01*
X132523844Y-57736719D01*
X132523849Y-57736724D01*
X132523850Y-57736727D01*
X132676950Y-57903036D01*
X132676954Y-57903040D01*
X132855351Y-58041893D01*
X133054169Y-58149488D01*
X133054172Y-58149489D01*
X133267982Y-58222890D01*
X133267984Y-58222890D01*
X133267986Y-58222891D01*
X133490967Y-58260100D01*
X133490968Y-58260100D01*
X133717032Y-58260100D01*
X133717033Y-58260100D01*
X133940014Y-58222891D01*
X134153831Y-58149488D01*
X134352649Y-58041893D01*
X134531046Y-57903040D01*
X134684156Y-57736719D01*
X134770193Y-57605028D01*
X134823338Y-57559675D01*
X134892569Y-57550251D01*
X134955905Y-57579753D01*
X134977804Y-57605025D01*
X135063844Y-57736719D01*
X135063849Y-57736724D01*
X135063850Y-57736727D01*
X135216950Y-57903036D01*
X135216954Y-57903040D01*
X135395351Y-58041893D01*
X135594169Y-58149488D01*
X135594172Y-58149489D01*
X135807982Y-58222890D01*
X135807984Y-58222890D01*
X135807986Y-58222891D01*
X136030967Y-58260100D01*
X136030968Y-58260100D01*
X136257032Y-58260100D01*
X136257033Y-58260100D01*
X136480014Y-58222891D01*
X136693831Y-58149488D01*
X136892649Y-58041893D01*
X137071046Y-57903040D01*
X137125815Y-57843545D01*
X137185699Y-57807557D01*
X137255537Y-57809657D01*
X137313153Y-57849180D01*
X137333224Y-57884196D01*
X137377046Y-58001688D01*
X137377049Y-58001693D01*
X137463209Y-58116787D01*
X137463212Y-58116790D01*
X137578306Y-58202950D01*
X137578313Y-58202954D01*
X137713020Y-58253196D01*
X137713027Y-58253198D01*
X137772555Y-58259599D01*
X137772572Y-58259600D01*
X138434000Y-58259600D01*
X138434000Y-57338251D01*
X138487919Y-57369381D01*
X138617120Y-57404000D01*
X138750880Y-57404000D01*
X138880081Y-57369381D01*
X138934000Y-57338251D01*
X138934000Y-58259600D01*
X139595428Y-58259600D01*
X139595444Y-58259599D01*
X139654972Y-58253198D01*
X139654979Y-58253196D01*
X139789686Y-58202954D01*
X139789693Y-58202950D01*
X139904787Y-58116790D01*
X139904790Y-58116787D01*
X139990950Y-58001693D01*
X139990954Y-58001686D01*
X140034775Y-57884197D01*
X140076646Y-57828263D01*
X140142110Y-57803846D01*
X140210383Y-57818698D01*
X140242186Y-57843547D01*
X140296950Y-57903036D01*
X140296954Y-57903040D01*
X140475351Y-58041893D01*
X140674169Y-58149488D01*
X140674172Y-58149489D01*
X140887982Y-58222890D01*
X140887984Y-58222890D01*
X140887986Y-58222891D01*
X141110967Y-58260100D01*
X141110968Y-58260100D01*
X141337032Y-58260100D01*
X141337033Y-58260100D01*
X141560014Y-58222891D01*
X141773831Y-58149488D01*
X141972649Y-58041893D01*
X142151046Y-57903040D01*
X142304156Y-57736719D01*
X142390193Y-57605028D01*
X142443338Y-57559675D01*
X142512569Y-57550251D01*
X142575905Y-57579753D01*
X142597804Y-57605025D01*
X142683844Y-57736719D01*
X142683849Y-57736724D01*
X142683850Y-57736727D01*
X142836950Y-57903036D01*
X142836954Y-57903040D01*
X143015351Y-58041893D01*
X143214169Y-58149488D01*
X143214172Y-58149489D01*
X143427982Y-58222890D01*
X143427984Y-58222890D01*
X143427986Y-58222891D01*
X143650967Y-58260100D01*
X143650968Y-58260100D01*
X143877032Y-58260100D01*
X143877033Y-58260100D01*
X144100014Y-58222891D01*
X144313831Y-58149488D01*
X144512649Y-58041893D01*
X144691046Y-57903040D01*
X144844156Y-57736719D01*
X144930193Y-57605028D01*
X144983338Y-57559675D01*
X145052569Y-57550251D01*
X145115905Y-57579753D01*
X145137804Y-57605025D01*
X145223844Y-57736719D01*
X145223849Y-57736724D01*
X145223850Y-57736727D01*
X145376950Y-57903036D01*
X145376954Y-57903040D01*
X145555351Y-58041893D01*
X145754169Y-58149488D01*
X145754172Y-58149489D01*
X145967982Y-58222890D01*
X145967984Y-58222890D01*
X145967986Y-58222891D01*
X146190967Y-58260100D01*
X146190968Y-58260100D01*
X146417032Y-58260100D01*
X146417033Y-58260100D01*
X146640014Y-58222891D01*
X146853831Y-58149488D01*
X147052649Y-58041893D01*
X147231046Y-57903040D01*
X147384156Y-57736719D01*
X147470193Y-57605028D01*
X147523338Y-57559675D01*
X147592569Y-57550251D01*
X147655905Y-57579753D01*
X147677804Y-57605025D01*
X147763844Y-57736719D01*
X147763849Y-57736724D01*
X147763850Y-57736727D01*
X147916950Y-57903036D01*
X147916954Y-57903040D01*
X148095351Y-58041893D01*
X148294169Y-58149488D01*
X148294172Y-58149489D01*
X148507982Y-58222890D01*
X148507984Y-58222890D01*
X148507986Y-58222891D01*
X148730967Y-58260100D01*
X148730968Y-58260100D01*
X148957032Y-58260100D01*
X148957033Y-58260100D01*
X149180014Y-58222891D01*
X149393831Y-58149488D01*
X149592649Y-58041893D01*
X149771046Y-57903040D01*
X149924156Y-57736719D01*
X150010193Y-57605028D01*
X150063338Y-57559675D01*
X150132569Y-57550251D01*
X150195905Y-57579753D01*
X150217804Y-57605025D01*
X150303844Y-57736719D01*
X150303849Y-57736724D01*
X150303850Y-57736727D01*
X150456950Y-57903036D01*
X150456954Y-57903040D01*
X150635351Y-58041893D01*
X150834169Y-58149488D01*
X150834172Y-58149489D01*
X151047982Y-58222890D01*
X151047984Y-58222890D01*
X151047986Y-58222891D01*
X151270967Y-58260100D01*
X151270968Y-58260100D01*
X151497032Y-58260100D01*
X151497033Y-58260100D01*
X151720014Y-58222891D01*
X151933831Y-58149488D01*
X152132649Y-58041893D01*
X152311046Y-57903040D01*
X152464156Y-57736719D01*
X152550193Y-57605028D01*
X152603338Y-57559675D01*
X152672569Y-57550251D01*
X152735905Y-57579753D01*
X152757804Y-57605025D01*
X152843844Y-57736719D01*
X152843849Y-57736724D01*
X152843850Y-57736727D01*
X152996950Y-57903036D01*
X152996954Y-57903040D01*
X153175351Y-58041893D01*
X153374169Y-58149488D01*
X153374172Y-58149489D01*
X153587982Y-58222890D01*
X153587984Y-58222890D01*
X153587986Y-58222891D01*
X153810967Y-58260100D01*
X153810968Y-58260100D01*
X154037032Y-58260100D01*
X154037033Y-58260100D01*
X154260014Y-58222891D01*
X154473831Y-58149488D01*
X154672649Y-58041893D01*
X154851046Y-57903040D01*
X155004156Y-57736719D01*
X155127802Y-57547465D01*
X155218611Y-57340441D01*
X155274107Y-57121293D01*
X155281574Y-57031175D01*
X155292775Y-56896006D01*
X155292775Y-56895993D01*
X156619225Y-56895993D01*
X156619225Y-56896006D01*
X156637892Y-57121289D01*
X156693388Y-57340439D01*
X156784198Y-57547466D01*
X156907842Y-57736716D01*
X156907850Y-57736727D01*
X157060950Y-57903036D01*
X157060954Y-57903040D01*
X157239351Y-58041893D01*
X157438169Y-58149488D01*
X157438172Y-58149489D01*
X157651982Y-58222890D01*
X157651984Y-58222890D01*
X157651986Y-58222891D01*
X157874967Y-58260100D01*
X157874968Y-58260100D01*
X158101032Y-58260100D01*
X158101033Y-58260100D01*
X158324014Y-58222891D01*
X158537831Y-58149488D01*
X158736649Y-58041893D01*
X158915046Y-57903040D01*
X159068156Y-57736719D01*
X159154193Y-57605028D01*
X159207338Y-57559675D01*
X159276569Y-57550251D01*
X159339905Y-57579753D01*
X159361804Y-57605025D01*
X159447844Y-57736719D01*
X159447849Y-57736724D01*
X159447850Y-57736727D01*
X159600950Y-57903036D01*
X159600954Y-57903040D01*
X159779351Y-58041893D01*
X159978169Y-58149488D01*
X159978172Y-58149489D01*
X160191982Y-58222890D01*
X160191984Y-58222890D01*
X160191986Y-58222891D01*
X160414967Y-58260100D01*
X160414968Y-58260100D01*
X160641032Y-58260100D01*
X160641033Y-58260100D01*
X160864014Y-58222891D01*
X161077831Y-58149488D01*
X161276649Y-58041893D01*
X161455046Y-57903040D01*
X161608156Y-57736719D01*
X161694193Y-57605028D01*
X161747338Y-57559675D01*
X161816569Y-57550251D01*
X161879905Y-57579753D01*
X161901804Y-57605025D01*
X161987844Y-57736719D01*
X161987849Y-57736724D01*
X161987850Y-57736727D01*
X162140950Y-57903036D01*
X162140954Y-57903040D01*
X162319351Y-58041893D01*
X162518169Y-58149488D01*
X162518172Y-58149489D01*
X162731982Y-58222890D01*
X162731984Y-58222890D01*
X162731986Y-58222891D01*
X162954967Y-58260100D01*
X162954968Y-58260100D01*
X163181032Y-58260100D01*
X163181033Y-58260100D01*
X163404014Y-58222891D01*
X163617831Y-58149488D01*
X163816649Y-58041893D01*
X163995046Y-57903040D01*
X164148156Y-57736719D01*
X164234193Y-57605028D01*
X164287338Y-57559675D01*
X164356569Y-57550251D01*
X164419905Y-57579753D01*
X164441804Y-57605025D01*
X164527844Y-57736719D01*
X164527849Y-57736724D01*
X164527850Y-57736727D01*
X164680950Y-57903036D01*
X164680954Y-57903040D01*
X164859351Y-58041893D01*
X165058169Y-58149488D01*
X165058172Y-58149489D01*
X165271982Y-58222890D01*
X165271984Y-58222890D01*
X165271986Y-58222891D01*
X165494967Y-58260100D01*
X165494968Y-58260100D01*
X165721032Y-58260100D01*
X165721033Y-58260100D01*
X165944014Y-58222891D01*
X166157831Y-58149488D01*
X166356649Y-58041893D01*
X166535046Y-57903040D01*
X166688156Y-57736719D01*
X166774193Y-57605028D01*
X166827338Y-57559675D01*
X166896569Y-57550251D01*
X166959905Y-57579753D01*
X166981804Y-57605025D01*
X167067844Y-57736719D01*
X167067849Y-57736724D01*
X167067850Y-57736727D01*
X167220950Y-57903036D01*
X167220954Y-57903040D01*
X167399351Y-58041893D01*
X167598169Y-58149488D01*
X167598172Y-58149489D01*
X167811982Y-58222890D01*
X167811984Y-58222890D01*
X167811986Y-58222891D01*
X168034967Y-58260100D01*
X168034968Y-58260100D01*
X168261032Y-58260100D01*
X168261033Y-58260100D01*
X168484014Y-58222891D01*
X168697831Y-58149488D01*
X168896649Y-58041893D01*
X169075046Y-57903040D01*
X169228156Y-57736719D01*
X169314193Y-57605028D01*
X169367338Y-57559675D01*
X169436569Y-57550251D01*
X169499905Y-57579753D01*
X169521804Y-57605025D01*
X169607844Y-57736719D01*
X169607849Y-57736724D01*
X169607850Y-57736727D01*
X169760950Y-57903036D01*
X169760954Y-57903040D01*
X169939351Y-58041893D01*
X170138169Y-58149488D01*
X170138172Y-58149489D01*
X170351982Y-58222890D01*
X170351984Y-58222890D01*
X170351986Y-58222891D01*
X170574967Y-58260100D01*
X170574968Y-58260100D01*
X170801032Y-58260100D01*
X170801033Y-58260100D01*
X171024014Y-58222891D01*
X171237831Y-58149488D01*
X171436649Y-58041893D01*
X171615046Y-57903040D01*
X171768156Y-57736719D01*
X171854193Y-57605028D01*
X171907338Y-57559675D01*
X171976569Y-57550251D01*
X172039905Y-57579753D01*
X172061804Y-57605025D01*
X172147844Y-57736719D01*
X172147849Y-57736724D01*
X172147850Y-57736727D01*
X172300950Y-57903036D01*
X172300954Y-57903040D01*
X172479351Y-58041893D01*
X172678169Y-58149488D01*
X172678172Y-58149489D01*
X172891982Y-58222890D01*
X172891984Y-58222890D01*
X172891986Y-58222891D01*
X173114967Y-58260100D01*
X173114968Y-58260100D01*
X173341032Y-58260100D01*
X173341033Y-58260100D01*
X173564014Y-58222891D01*
X173777831Y-58149488D01*
X173976649Y-58041893D01*
X174155046Y-57903040D01*
X174308156Y-57736719D01*
X174394193Y-57605028D01*
X174447338Y-57559675D01*
X174516569Y-57550251D01*
X174579905Y-57579753D01*
X174601804Y-57605025D01*
X174687844Y-57736719D01*
X174687849Y-57736724D01*
X174687850Y-57736727D01*
X174840950Y-57903036D01*
X174840954Y-57903040D01*
X175019351Y-58041893D01*
X175218169Y-58149488D01*
X175218172Y-58149489D01*
X175431982Y-58222890D01*
X175431984Y-58222890D01*
X175431986Y-58222891D01*
X175654967Y-58260100D01*
X175654968Y-58260100D01*
X175881032Y-58260100D01*
X175881033Y-58260100D01*
X176104014Y-58222891D01*
X176317831Y-58149488D01*
X176516649Y-58041893D01*
X176695046Y-57903040D01*
X176848156Y-57736719D01*
X176971802Y-57547465D01*
X177062611Y-57340441D01*
X177118107Y-57121293D01*
X177125574Y-57031175D01*
X177136775Y-56896006D01*
X177136775Y-56895993D01*
X204879225Y-56895993D01*
X204879225Y-56896006D01*
X204897892Y-57121289D01*
X204953388Y-57340439D01*
X205044198Y-57547466D01*
X205167842Y-57736716D01*
X205167850Y-57736727D01*
X205320950Y-57903036D01*
X205320954Y-57903040D01*
X205499351Y-58041893D01*
X205527165Y-58056945D01*
X205576755Y-58106165D01*
X205591863Y-58174382D01*
X205567692Y-58239937D01*
X205527165Y-58275055D01*
X205499352Y-58290106D01*
X205320955Y-58428959D01*
X205320950Y-58428963D01*
X205167850Y-58595272D01*
X205167842Y-58595283D01*
X205044198Y-58784533D01*
X204953388Y-58991560D01*
X204897892Y-59210710D01*
X204879225Y-59435993D01*
X204879225Y-59436006D01*
X204897892Y-59661289D01*
X204953388Y-59880439D01*
X205044198Y-60087466D01*
X205167842Y-60276716D01*
X205167850Y-60276727D01*
X205320950Y-60443036D01*
X205320954Y-60443040D01*
X205499351Y-60581893D01*
X205527165Y-60596945D01*
X205576755Y-60646165D01*
X205591863Y-60714382D01*
X205567692Y-60779937D01*
X205527165Y-60815055D01*
X205499352Y-60830106D01*
X205320955Y-60968959D01*
X205320950Y-60968963D01*
X205167850Y-61135272D01*
X205167842Y-61135283D01*
X205044198Y-61324533D01*
X204953388Y-61531560D01*
X204897892Y-61750710D01*
X204879225Y-61975993D01*
X204879225Y-61976006D01*
X204897892Y-62201289D01*
X204953388Y-62420439D01*
X205044198Y-62627466D01*
X205167842Y-62816716D01*
X205167850Y-62816727D01*
X205320950Y-62983036D01*
X205320954Y-62983040D01*
X205499351Y-63121893D01*
X205527165Y-63136945D01*
X205576755Y-63186165D01*
X205591863Y-63254382D01*
X205567692Y-63319937D01*
X205527165Y-63355055D01*
X205499352Y-63370106D01*
X205320955Y-63508959D01*
X205320950Y-63508963D01*
X205167850Y-63675272D01*
X205167842Y-63675283D01*
X205044198Y-63864533D01*
X204953388Y-64071560D01*
X204897892Y-64290710D01*
X204879225Y-64515993D01*
X204879225Y-64516006D01*
X204897892Y-64741289D01*
X204953388Y-64960439D01*
X205044198Y-65167466D01*
X205167842Y-65356716D01*
X205167850Y-65356727D01*
X205320950Y-65523036D01*
X205320954Y-65523040D01*
X205499351Y-65661893D01*
X205527165Y-65676945D01*
X205576755Y-65726165D01*
X205591863Y-65794382D01*
X205567692Y-65859937D01*
X205527165Y-65895055D01*
X205499352Y-65910106D01*
X205320955Y-66048959D01*
X205320950Y-66048963D01*
X205167850Y-66215272D01*
X205167842Y-66215283D01*
X205044198Y-66404533D01*
X204953388Y-66611560D01*
X204897892Y-66830710D01*
X204879225Y-67055993D01*
X204879225Y-67056006D01*
X204897892Y-67281289D01*
X204953388Y-67500439D01*
X205044198Y-67707466D01*
X205167842Y-67896716D01*
X205167850Y-67896727D01*
X205301733Y-68042161D01*
X205320954Y-68063040D01*
X205499351Y-68201893D01*
X205527165Y-68216945D01*
X205576755Y-68266165D01*
X205591863Y-68334382D01*
X205567692Y-68399937D01*
X205527165Y-68435055D01*
X205499352Y-68450106D01*
X205320955Y-68588959D01*
X205320950Y-68588963D01*
X205167850Y-68755272D01*
X205167842Y-68755283D01*
X205044198Y-68944533D01*
X204953388Y-69151560D01*
X204897892Y-69370710D01*
X204879225Y-69595993D01*
X204879225Y-69596006D01*
X204897892Y-69821289D01*
X204953388Y-70040439D01*
X205044198Y-70247466D01*
X205167842Y-70436716D01*
X205167850Y-70436727D01*
X205320950Y-70603036D01*
X205320954Y-70603040D01*
X205499351Y-70741893D01*
X205527165Y-70756945D01*
X205576755Y-70806165D01*
X205591863Y-70874382D01*
X205567692Y-70939937D01*
X205527165Y-70975055D01*
X205499352Y-70990106D01*
X205320955Y-71128959D01*
X205320950Y-71128963D01*
X205167850Y-71295272D01*
X205167842Y-71295283D01*
X205044198Y-71484533D01*
X204953388Y-71691560D01*
X204897892Y-71910710D01*
X204879225Y-72135993D01*
X204879225Y-72136006D01*
X204897892Y-72361289D01*
X204953388Y-72580439D01*
X205044198Y-72787466D01*
X205167842Y-72976716D01*
X205167850Y-72976727D01*
X205320950Y-73143036D01*
X205320954Y-73143040D01*
X205499351Y-73281893D01*
X205527165Y-73296945D01*
X205576755Y-73346165D01*
X205591863Y-73414382D01*
X205567692Y-73479937D01*
X205527165Y-73515055D01*
X205499352Y-73530106D01*
X205320955Y-73668959D01*
X205320950Y-73668963D01*
X205167850Y-73835272D01*
X205167842Y-73835283D01*
X205044198Y-74024533D01*
X204953388Y-74231560D01*
X204897892Y-74450710D01*
X204879225Y-74675993D01*
X204879225Y-74676006D01*
X204897892Y-74901289D01*
X204953388Y-75120439D01*
X205044198Y-75327466D01*
X205167842Y-75516716D01*
X205167850Y-75516727D01*
X205320950Y-75683036D01*
X205320954Y-75683040D01*
X205499351Y-75821893D01*
X205527165Y-75836945D01*
X205576755Y-75886165D01*
X205591863Y-75954382D01*
X205567692Y-76019937D01*
X205527165Y-76055055D01*
X205499352Y-76070106D01*
X205320955Y-76208959D01*
X205320950Y-76208963D01*
X205167850Y-76375272D01*
X205167842Y-76375283D01*
X205044198Y-76564533D01*
X204953388Y-76771560D01*
X204897892Y-76990710D01*
X204879225Y-77215993D01*
X204879225Y-77216006D01*
X204897892Y-77441289D01*
X204953388Y-77660439D01*
X205044198Y-77867466D01*
X205167842Y-78056716D01*
X205167850Y-78056727D01*
X205320950Y-78223036D01*
X205320954Y-78223040D01*
X205499351Y-78361893D01*
X205527165Y-78376945D01*
X205576755Y-78426165D01*
X205591863Y-78494382D01*
X205567692Y-78559937D01*
X205527165Y-78595055D01*
X205499352Y-78610106D01*
X205320955Y-78748959D01*
X205320950Y-78748963D01*
X205167850Y-78915272D01*
X205167842Y-78915283D01*
X205044198Y-79104533D01*
X204953388Y-79311560D01*
X204897892Y-79530710D01*
X204879225Y-79755993D01*
X204879225Y-79756006D01*
X204897892Y-79981289D01*
X204953388Y-80200439D01*
X205044198Y-80407466D01*
X205167842Y-80596716D01*
X205167850Y-80596727D01*
X205320950Y-80763036D01*
X205320954Y-80763040D01*
X205499351Y-80901893D01*
X205527165Y-80916945D01*
X205576755Y-80966165D01*
X205591863Y-81034382D01*
X205567692Y-81099937D01*
X205527165Y-81135055D01*
X205499352Y-81150106D01*
X205320955Y-81288959D01*
X205320950Y-81288963D01*
X205167850Y-81455272D01*
X205167842Y-81455283D01*
X205044198Y-81644533D01*
X204953388Y-81851560D01*
X204897892Y-82070710D01*
X204879225Y-82295993D01*
X204879225Y-82296006D01*
X204897892Y-82521289D01*
X204953388Y-82740439D01*
X205044198Y-82947466D01*
X205167842Y-83136716D01*
X205167850Y-83136727D01*
X205319345Y-83301292D01*
X205320954Y-83303040D01*
X205499351Y-83441893D01*
X205527165Y-83456945D01*
X205576755Y-83506165D01*
X205591863Y-83574382D01*
X205567692Y-83639937D01*
X205527165Y-83675055D01*
X205499352Y-83690106D01*
X205320955Y-83828959D01*
X205320950Y-83828963D01*
X205167850Y-83995272D01*
X205167842Y-83995283D01*
X205044198Y-84184533D01*
X204953388Y-84391560D01*
X204897892Y-84610710D01*
X204879225Y-84835993D01*
X204879225Y-84836006D01*
X204897892Y-85061289D01*
X204953388Y-85280439D01*
X205044198Y-85487466D01*
X205167842Y-85676716D01*
X205167850Y-85676727D01*
X205320950Y-85843036D01*
X205320954Y-85843040D01*
X205499351Y-85981893D01*
X205527165Y-85996945D01*
X205576755Y-86046165D01*
X205591863Y-86114382D01*
X205567692Y-86179937D01*
X205527165Y-86215055D01*
X205499352Y-86230106D01*
X205320955Y-86368959D01*
X205320950Y-86368963D01*
X205167850Y-86535272D01*
X205167842Y-86535283D01*
X205044198Y-86724533D01*
X204953388Y-86931560D01*
X204897892Y-87150710D01*
X204879225Y-87375993D01*
X204879225Y-87376006D01*
X204897892Y-87601289D01*
X204953388Y-87820439D01*
X205044198Y-88027466D01*
X205167842Y-88216716D01*
X205167850Y-88216727D01*
X205320950Y-88383036D01*
X205320954Y-88383040D01*
X205499351Y-88521893D01*
X205527165Y-88536945D01*
X205576755Y-88586165D01*
X205591863Y-88654382D01*
X205567692Y-88719937D01*
X205527165Y-88755055D01*
X205499352Y-88770106D01*
X205320955Y-88908959D01*
X205320950Y-88908963D01*
X205167850Y-89075272D01*
X205167842Y-89075283D01*
X205044198Y-89264533D01*
X204953388Y-89471560D01*
X204897892Y-89690710D01*
X204879225Y-89915993D01*
X204879225Y-89916006D01*
X204897892Y-90141289D01*
X204953388Y-90360439D01*
X205044198Y-90567466D01*
X205167842Y-90756716D01*
X205167850Y-90756727D01*
X205320950Y-90923036D01*
X205320954Y-90923040D01*
X205499351Y-91061893D01*
X205527165Y-91076945D01*
X205576755Y-91126165D01*
X205591863Y-91194382D01*
X205567692Y-91259937D01*
X205527165Y-91295055D01*
X205499352Y-91310106D01*
X205320955Y-91448959D01*
X205320950Y-91448963D01*
X205167850Y-91615272D01*
X205167842Y-91615283D01*
X205044198Y-91804533D01*
X204953388Y-92011560D01*
X204897892Y-92230710D01*
X204879225Y-92455993D01*
X204879225Y-92456006D01*
X204897892Y-92681289D01*
X204953388Y-92900439D01*
X205044198Y-93107466D01*
X205167842Y-93296716D01*
X205167850Y-93296727D01*
X205320950Y-93463036D01*
X205320954Y-93463040D01*
X205499351Y-93601893D01*
X205527165Y-93616945D01*
X205576755Y-93666165D01*
X205591863Y-93734382D01*
X205567692Y-93799937D01*
X205527165Y-93835055D01*
X205499352Y-93850106D01*
X205320955Y-93988959D01*
X205320950Y-93988963D01*
X205167850Y-94155272D01*
X205167842Y-94155283D01*
X205044198Y-94344533D01*
X204953388Y-94551560D01*
X204897892Y-94770710D01*
X204879225Y-94995993D01*
X204879225Y-94996006D01*
X204897892Y-95221289D01*
X204953388Y-95440439D01*
X205044198Y-95647466D01*
X205167842Y-95836716D01*
X205167850Y-95836727D01*
X205320950Y-96003036D01*
X205320954Y-96003040D01*
X205499351Y-96141893D01*
X205527165Y-96156945D01*
X205576755Y-96206165D01*
X205591863Y-96274382D01*
X205567692Y-96339937D01*
X205527165Y-96375055D01*
X205499352Y-96390106D01*
X205320955Y-96528959D01*
X205320950Y-96528963D01*
X205167850Y-96695272D01*
X205167842Y-96695283D01*
X205044198Y-96884533D01*
X204953388Y-97091560D01*
X204897892Y-97310710D01*
X204879225Y-97535993D01*
X204879225Y-97536006D01*
X204897892Y-97761289D01*
X204953388Y-97980439D01*
X205044198Y-98187466D01*
X205123262Y-98308481D01*
X205167844Y-98376719D01*
X205305245Y-98525976D01*
X205336167Y-98588629D01*
X205328307Y-98658055D01*
X205284160Y-98712211D01*
X205257349Y-98726140D01*
X205142311Y-98769046D01*
X205142306Y-98769049D01*
X205027212Y-98855209D01*
X205027209Y-98855212D01*
X204941049Y-98970306D01*
X204941045Y-98970313D01*
X204890803Y-99105020D01*
X204890801Y-99105027D01*
X204884400Y-99164555D01*
X204884400Y-99826000D01*
X205805749Y-99826000D01*
X205774619Y-99879919D01*
X205740000Y-100009120D01*
X205740000Y-100142880D01*
X205774619Y-100272081D01*
X205805749Y-100326000D01*
X204884400Y-100326000D01*
X204884400Y-100987444D01*
X204890801Y-101046972D01*
X204890803Y-101046979D01*
X204941045Y-101181686D01*
X204941049Y-101181693D01*
X205027209Y-101296787D01*
X205027212Y-101296790D01*
X205142306Y-101382950D01*
X205142313Y-101382954D01*
X205277020Y-101433196D01*
X205277027Y-101433198D01*
X205336555Y-101439599D01*
X205336572Y-101439600D01*
X205998000Y-101439600D01*
X205998000Y-100518251D01*
X206051919Y-100549381D01*
X206181120Y-100584000D01*
X206314880Y-100584000D01*
X206444081Y-100549381D01*
X206498000Y-100518251D01*
X206498000Y-101439600D01*
X207159428Y-101439600D01*
X207159444Y-101439599D01*
X207218972Y-101433198D01*
X207218979Y-101433196D01*
X207353686Y-101382954D01*
X207353689Y-101382952D01*
X207443688Y-101315579D01*
X207509152Y-101291161D01*
X207577426Y-101306012D01*
X207592312Y-101315579D01*
X207682310Y-101382952D01*
X207682313Y-101382954D01*
X207817020Y-101433196D01*
X207817027Y-101433198D01*
X207876555Y-101439599D01*
X207876572Y-101439600D01*
X208538000Y-101439600D01*
X208538000Y-100518251D01*
X208591919Y-100549381D01*
X208721120Y-100584000D01*
X208854880Y-100584000D01*
X208984081Y-100549381D01*
X209038000Y-100518251D01*
X209038000Y-101439600D01*
X209699428Y-101439600D01*
X209699444Y-101439599D01*
X209758972Y-101433198D01*
X209758979Y-101433196D01*
X209893686Y-101382954D01*
X209893693Y-101382950D01*
X210008787Y-101296790D01*
X210008790Y-101296787D01*
X210094950Y-101181693D01*
X210094954Y-101181686D01*
X210145196Y-101046979D01*
X210145198Y-101046972D01*
X210151599Y-100987444D01*
X210151600Y-100987427D01*
X210151600Y-100326000D01*
X209230251Y-100326000D01*
X209261381Y-100272081D01*
X209296000Y-100142880D01*
X209296000Y-100009120D01*
X209261381Y-99879919D01*
X209230251Y-99826000D01*
X210151600Y-99826000D01*
X210151600Y-99164572D01*
X210151599Y-99164555D01*
X210145198Y-99105027D01*
X210145196Y-99105020D01*
X210094954Y-98970313D01*
X210094950Y-98970306D01*
X210008790Y-98855212D01*
X210008787Y-98855209D01*
X209893693Y-98769049D01*
X209893686Y-98769045D01*
X209778651Y-98726140D01*
X209722717Y-98684269D01*
X209698300Y-98618804D01*
X209713152Y-98550531D01*
X209730749Y-98525981D01*
X209868156Y-98376719D01*
X209991802Y-98187465D01*
X210082611Y-97980441D01*
X210138107Y-97761293D01*
X210153810Y-97571787D01*
X210156775Y-97536006D01*
X210156775Y-97535993D01*
X210138107Y-97310710D01*
X210138107Y-97310707D01*
X210082611Y-97091559D01*
X209991802Y-96884535D01*
X209868156Y-96695281D01*
X209868153Y-96695278D01*
X209868149Y-96695272D01*
X209715049Y-96528963D01*
X209715048Y-96528962D01*
X209715046Y-96528960D01*
X209536649Y-96390107D01*
X209536647Y-96390106D01*
X209536646Y-96390105D01*
X209536639Y-96390100D01*
X209508836Y-96375055D01*
X209459244Y-96325837D01*
X209444135Y-96257620D01*
X209468306Y-96192064D01*
X209508836Y-96156945D01*
X209536639Y-96141899D01*
X209536642Y-96141896D01*
X209536649Y-96141893D01*
X209715046Y-96003040D01*
X209868156Y-95836719D01*
X209991802Y-95647465D01*
X210082611Y-95440441D01*
X210138107Y-95221293D01*
X210156775Y-94996000D01*
X210156775Y-94995993D01*
X210138107Y-94770710D01*
X210138107Y-94770707D01*
X210082611Y-94551559D01*
X209991802Y-94344535D01*
X209868156Y-94155281D01*
X209868153Y-94155278D01*
X209868149Y-94155272D01*
X209715049Y-93988963D01*
X209715048Y-93988962D01*
X209715046Y-93988960D01*
X209536649Y-93850107D01*
X209536647Y-93850106D01*
X209536646Y-93850105D01*
X209536639Y-93850100D01*
X209508836Y-93835055D01*
X209459244Y-93785837D01*
X209444135Y-93717620D01*
X209468306Y-93652064D01*
X209508836Y-93616945D01*
X209536639Y-93601899D01*
X209536642Y-93601896D01*
X209536649Y-93601893D01*
X209715046Y-93463040D01*
X209847092Y-93319601D01*
X209868149Y-93296727D01*
X209868151Y-93296724D01*
X209868156Y-93296719D01*
X209991802Y-93107465D01*
X210082611Y-92900441D01*
X210138107Y-92681293D01*
X210156775Y-92456000D01*
X210156775Y-92455993D01*
X210138107Y-92230710D01*
X210138107Y-92230707D01*
X210082611Y-92011559D01*
X209991802Y-91804535D01*
X209868156Y-91615281D01*
X209868153Y-91615278D01*
X209868149Y-91615272D01*
X209715049Y-91448963D01*
X209715048Y-91448962D01*
X209715046Y-91448960D01*
X209536649Y-91310107D01*
X209536647Y-91310106D01*
X209536646Y-91310105D01*
X209536639Y-91310100D01*
X209508836Y-91295055D01*
X209459244Y-91245837D01*
X209444135Y-91177620D01*
X209468306Y-91112064D01*
X209508836Y-91076945D01*
X209536639Y-91061899D01*
X209536642Y-91061896D01*
X209536649Y-91061893D01*
X209715046Y-90923040D01*
X209868156Y-90756719D01*
X209991802Y-90567465D01*
X210082611Y-90360441D01*
X210138107Y-90141293D01*
X210156775Y-89916000D01*
X210156775Y-89915993D01*
X210138107Y-89690710D01*
X210138107Y-89690707D01*
X210082611Y-89471559D01*
X209991802Y-89264535D01*
X209868156Y-89075281D01*
X209868153Y-89075278D01*
X209868149Y-89075272D01*
X209715049Y-88908963D01*
X209715048Y-88908962D01*
X209715046Y-88908960D01*
X209536649Y-88770107D01*
X209536647Y-88770106D01*
X209536646Y-88770105D01*
X209536639Y-88770100D01*
X209508836Y-88755055D01*
X209459244Y-88705837D01*
X209444135Y-88637620D01*
X209468306Y-88572064D01*
X209508836Y-88536945D01*
X209536639Y-88521899D01*
X209536642Y-88521896D01*
X209536649Y-88521893D01*
X209715046Y-88383040D01*
X209868156Y-88216719D01*
X209991802Y-88027465D01*
X210082611Y-87820441D01*
X210138107Y-87601293D01*
X210156775Y-87376000D01*
X210156775Y-87375993D01*
X210138107Y-87150710D01*
X210138107Y-87150707D01*
X210082611Y-86931559D01*
X209991802Y-86724535D01*
X209868156Y-86535281D01*
X209868153Y-86535278D01*
X209868149Y-86535272D01*
X209715049Y-86368963D01*
X209715048Y-86368962D01*
X209715046Y-86368960D01*
X209536649Y-86230107D01*
X209536647Y-86230106D01*
X209536646Y-86230105D01*
X209536639Y-86230100D01*
X209508836Y-86215055D01*
X209459244Y-86165837D01*
X209444135Y-86097620D01*
X209468306Y-86032064D01*
X209508836Y-85996945D01*
X209536639Y-85981899D01*
X209536642Y-85981896D01*
X209536649Y-85981893D01*
X209715046Y-85843040D01*
X209868156Y-85676719D01*
X209991802Y-85487465D01*
X210082611Y-85280441D01*
X210138107Y-85061293D01*
X210156775Y-84836000D01*
X210156775Y-84835993D01*
X210138107Y-84610710D01*
X210138107Y-84610707D01*
X210082611Y-84391559D01*
X209991802Y-84184535D01*
X209868156Y-83995281D01*
X209868153Y-83995278D01*
X209868149Y-83995272D01*
X209715049Y-83828963D01*
X209715048Y-83828962D01*
X209715046Y-83828960D01*
X209536649Y-83690107D01*
X209536647Y-83690106D01*
X209536646Y-83690105D01*
X209536639Y-83690100D01*
X209508836Y-83675055D01*
X209459244Y-83625837D01*
X209444135Y-83557620D01*
X209468306Y-83492064D01*
X209508836Y-83456945D01*
X209536639Y-83441899D01*
X209536642Y-83441896D01*
X209536649Y-83441893D01*
X209715046Y-83303040D01*
X209852666Y-83153546D01*
X209868149Y-83136727D01*
X209868151Y-83136724D01*
X209868156Y-83136719D01*
X209991802Y-82947465D01*
X210082611Y-82740441D01*
X210138107Y-82521293D01*
X210156775Y-82296000D01*
X210156775Y-82295993D01*
X210138107Y-82070710D01*
X210138107Y-82070707D01*
X210082611Y-81851559D01*
X209991802Y-81644535D01*
X209981196Y-81628302D01*
X209868157Y-81455283D01*
X209868149Y-81455272D01*
X209715049Y-81288963D01*
X209715048Y-81288962D01*
X209715046Y-81288960D01*
X209536649Y-81150107D01*
X209536647Y-81150106D01*
X209536646Y-81150105D01*
X209536639Y-81150100D01*
X209508836Y-81135055D01*
X209459244Y-81085837D01*
X209444135Y-81017620D01*
X209468306Y-80952064D01*
X209508836Y-80916945D01*
X209536639Y-80901899D01*
X209536642Y-80901896D01*
X209536649Y-80901893D01*
X209715046Y-80763040D01*
X209868156Y-80596719D01*
X209991802Y-80407465D01*
X210082611Y-80200441D01*
X210138107Y-79981293D01*
X210156775Y-79756000D01*
X210156775Y-79755993D01*
X210138107Y-79530710D01*
X210138107Y-79530707D01*
X210082611Y-79311559D01*
X209991802Y-79104535D01*
X209868156Y-78915281D01*
X209868153Y-78915278D01*
X209868149Y-78915272D01*
X209715049Y-78748963D01*
X209715048Y-78748962D01*
X209715046Y-78748960D01*
X209536649Y-78610107D01*
X209536647Y-78610106D01*
X209536646Y-78610105D01*
X209536639Y-78610100D01*
X209508836Y-78595055D01*
X209459244Y-78545837D01*
X209444135Y-78477620D01*
X209468306Y-78412064D01*
X209508836Y-78376945D01*
X209536639Y-78361899D01*
X209536642Y-78361896D01*
X209536649Y-78361893D01*
X209715046Y-78223040D01*
X209868156Y-78056719D01*
X209991802Y-77867465D01*
X210082611Y-77660441D01*
X210138107Y-77441293D01*
X210156775Y-77216000D01*
X210156775Y-77215993D01*
X210138107Y-76990710D01*
X210138107Y-76990707D01*
X210082611Y-76771559D01*
X209991802Y-76564535D01*
X209868156Y-76375281D01*
X209868153Y-76375278D01*
X209868149Y-76375272D01*
X209715049Y-76208963D01*
X209715048Y-76208962D01*
X209715046Y-76208960D01*
X209536649Y-76070107D01*
X209536647Y-76070106D01*
X209536646Y-76070105D01*
X209536639Y-76070100D01*
X209508836Y-76055055D01*
X209459244Y-76005837D01*
X209444135Y-75937620D01*
X209468306Y-75872064D01*
X209508836Y-75836945D01*
X209536639Y-75821899D01*
X209536642Y-75821896D01*
X209536649Y-75821893D01*
X209715046Y-75683040D01*
X209868156Y-75516719D01*
X209991802Y-75327465D01*
X210082611Y-75120441D01*
X210138107Y-74901293D01*
X210156775Y-74676000D01*
X210156775Y-74675993D01*
X210138107Y-74450710D01*
X210138107Y-74450707D01*
X210082611Y-74231559D01*
X209991802Y-74024535D01*
X209868156Y-73835281D01*
X209868153Y-73835278D01*
X209868149Y-73835272D01*
X209715049Y-73668963D01*
X209715048Y-73668962D01*
X209715046Y-73668960D01*
X209536649Y-73530107D01*
X209536647Y-73530106D01*
X209536646Y-73530105D01*
X209536639Y-73530100D01*
X209508836Y-73515055D01*
X209459244Y-73465837D01*
X209444135Y-73397620D01*
X209468306Y-73332064D01*
X209508836Y-73296945D01*
X209536639Y-73281899D01*
X209536642Y-73281896D01*
X209536649Y-73281893D01*
X209715046Y-73143040D01*
X209868156Y-72976719D01*
X209991802Y-72787465D01*
X210082611Y-72580441D01*
X210138107Y-72361293D01*
X210156775Y-72136000D01*
X210156775Y-72135993D01*
X210138107Y-71910710D01*
X210138107Y-71910707D01*
X210082611Y-71691559D01*
X209991802Y-71484535D01*
X209868156Y-71295281D01*
X209868153Y-71295278D01*
X209868149Y-71295272D01*
X209715049Y-71128963D01*
X209715048Y-71128962D01*
X209715046Y-71128960D01*
X209536649Y-70990107D01*
X209536647Y-70990106D01*
X209536646Y-70990105D01*
X209536639Y-70990100D01*
X209508836Y-70975055D01*
X209459244Y-70925837D01*
X209444135Y-70857620D01*
X209468306Y-70792064D01*
X209508836Y-70756945D01*
X209536639Y-70741899D01*
X209536642Y-70741896D01*
X209536649Y-70741893D01*
X209715046Y-70603040D01*
X209868156Y-70436719D01*
X209991802Y-70247465D01*
X210082611Y-70040441D01*
X210138107Y-69821293D01*
X210156775Y-69596000D01*
X210156775Y-69595993D01*
X210138107Y-69370710D01*
X210138107Y-69370707D01*
X210082611Y-69151559D01*
X209991802Y-68944535D01*
X209868156Y-68755281D01*
X209868153Y-68755278D01*
X209868149Y-68755272D01*
X209715049Y-68588963D01*
X209715048Y-68588962D01*
X209715046Y-68588960D01*
X209536649Y-68450107D01*
X209536647Y-68450106D01*
X209536646Y-68450105D01*
X209536639Y-68450100D01*
X209508836Y-68435055D01*
X209459244Y-68385837D01*
X209444135Y-68317620D01*
X209468306Y-68252064D01*
X209508836Y-68216945D01*
X209536639Y-68201899D01*
X209536642Y-68201896D01*
X209536649Y-68201893D01*
X209715046Y-68063040D01*
X209868156Y-67896719D01*
X209991802Y-67707465D01*
X210082611Y-67500441D01*
X210138107Y-67281293D01*
X210156775Y-67056000D01*
X210156775Y-67055993D01*
X210138107Y-66830710D01*
X210138107Y-66830707D01*
X210082611Y-66611559D01*
X209991802Y-66404535D01*
X209970086Y-66371297D01*
X209868157Y-66215283D01*
X209868149Y-66215272D01*
X209715049Y-66048963D01*
X209715048Y-66048962D01*
X209715046Y-66048960D01*
X209536649Y-65910107D01*
X209536647Y-65910106D01*
X209536646Y-65910105D01*
X209536639Y-65910100D01*
X209508836Y-65895055D01*
X209459244Y-65845837D01*
X209444135Y-65777620D01*
X209468306Y-65712064D01*
X209508836Y-65676945D01*
X209536639Y-65661899D01*
X209536642Y-65661896D01*
X209536649Y-65661893D01*
X209715046Y-65523040D01*
X209868156Y-65356719D01*
X209991802Y-65167465D01*
X210082611Y-64960441D01*
X210138107Y-64741293D01*
X210156775Y-64516000D01*
X210156775Y-64515993D01*
X210138107Y-64290710D01*
X210138107Y-64290707D01*
X210082611Y-64071559D01*
X209991802Y-63864535D01*
X209868156Y-63675281D01*
X209868153Y-63675278D01*
X209868149Y-63675272D01*
X209715049Y-63508963D01*
X209715048Y-63508962D01*
X209715046Y-63508960D01*
X209536649Y-63370107D01*
X209536647Y-63370106D01*
X209536646Y-63370105D01*
X209536639Y-63370100D01*
X209508836Y-63355055D01*
X209459244Y-63305837D01*
X209444135Y-63237620D01*
X209468306Y-63172064D01*
X209508836Y-63136945D01*
X209536639Y-63121899D01*
X209536642Y-63121896D01*
X209536649Y-63121893D01*
X209715046Y-62983040D01*
X209868156Y-62816719D01*
X209991802Y-62627465D01*
X210082611Y-62420441D01*
X210138107Y-62201293D01*
X210156775Y-61976000D01*
X210156775Y-61975993D01*
X210138107Y-61750710D01*
X210138107Y-61750707D01*
X210082611Y-61531559D01*
X209991802Y-61324535D01*
X209868156Y-61135281D01*
X209868153Y-61135278D01*
X209868149Y-61135272D01*
X209715049Y-60968963D01*
X209715048Y-60968962D01*
X209715046Y-60968960D01*
X209536649Y-60830107D01*
X209536647Y-60830106D01*
X209536646Y-60830105D01*
X209536639Y-60830100D01*
X209508836Y-60815055D01*
X209459244Y-60765837D01*
X209444135Y-60697620D01*
X209468306Y-60632064D01*
X209508836Y-60596945D01*
X209536639Y-60581899D01*
X209536642Y-60581896D01*
X209536649Y-60581893D01*
X209715046Y-60443040D01*
X209868156Y-60276719D01*
X209991802Y-60087465D01*
X210082611Y-59880441D01*
X210138107Y-59661293D01*
X210156775Y-59436000D01*
X210156775Y-59435993D01*
X210138107Y-59210710D01*
X210138107Y-59210707D01*
X210082611Y-58991559D01*
X209991802Y-58784535D01*
X209868156Y-58595281D01*
X209868153Y-58595278D01*
X209868149Y-58595272D01*
X209715049Y-58428963D01*
X209715048Y-58428962D01*
X209715046Y-58428960D01*
X209536649Y-58290107D01*
X209536647Y-58290106D01*
X209536646Y-58290105D01*
X209536639Y-58290100D01*
X209508836Y-58275055D01*
X209459244Y-58225837D01*
X209444135Y-58157620D01*
X209468306Y-58092064D01*
X209508836Y-58056945D01*
X209536639Y-58041899D01*
X209536642Y-58041896D01*
X209536649Y-58041893D01*
X209715046Y-57903040D01*
X209868156Y-57736719D01*
X209991802Y-57547465D01*
X210082611Y-57340441D01*
X210138107Y-57121293D01*
X210145574Y-57031175D01*
X210156775Y-56896006D01*
X210156775Y-56895993D01*
X210143707Y-56738294D01*
X210138107Y-56670707D01*
X210082611Y-56451559D01*
X209991802Y-56244535D01*
X209868156Y-56055281D01*
X209868153Y-56055278D01*
X209868149Y-56055272D01*
X209715049Y-55888963D01*
X209715048Y-55888962D01*
X209715046Y-55888960D01*
X209536649Y-55750107D01*
X209510390Y-55735896D01*
X209337832Y-55642512D01*
X209337827Y-55642510D01*
X209124017Y-55569109D01*
X208942388Y-55538801D01*
X208901033Y-55531900D01*
X208674967Y-55531900D01*
X208633612Y-55538801D01*
X208451982Y-55569109D01*
X208238172Y-55642510D01*
X208238167Y-55642512D01*
X208039352Y-55750106D01*
X207860955Y-55888959D01*
X207860950Y-55888963D01*
X207707850Y-56055272D01*
X207707842Y-56055283D01*
X207621808Y-56186968D01*
X207568662Y-56232325D01*
X207499430Y-56241748D01*
X207436095Y-56212246D01*
X207414192Y-56186968D01*
X207328157Y-56055283D01*
X207328149Y-56055272D01*
X207175049Y-55888963D01*
X207175048Y-55888962D01*
X207175046Y-55888960D01*
X206996649Y-55750107D01*
X206970390Y-55735896D01*
X206797832Y-55642512D01*
X206797827Y-55642510D01*
X206584017Y-55569109D01*
X206402388Y-55538801D01*
X206361033Y-55531900D01*
X206134967Y-55531900D01*
X206093612Y-55538801D01*
X205911982Y-55569109D01*
X205698172Y-55642510D01*
X205698167Y-55642512D01*
X205499352Y-55750106D01*
X205320955Y-55888959D01*
X205320950Y-55888963D01*
X205167850Y-56055272D01*
X205167842Y-56055283D01*
X205044198Y-56244533D01*
X204953388Y-56451560D01*
X204897892Y-56670710D01*
X204879225Y-56895993D01*
X177136775Y-56895993D01*
X177123707Y-56738294D01*
X177118107Y-56670707D01*
X177062611Y-56451559D01*
X176971802Y-56244535D01*
X176848156Y-56055281D01*
X176848153Y-56055278D01*
X176848149Y-56055272D01*
X176695049Y-55888963D01*
X176695048Y-55888962D01*
X176695046Y-55888960D01*
X176516649Y-55750107D01*
X176490390Y-55735896D01*
X176317832Y-55642512D01*
X176317827Y-55642510D01*
X176104017Y-55569109D01*
X175922388Y-55538801D01*
X175881033Y-55531900D01*
X175654967Y-55531900D01*
X175613612Y-55538801D01*
X175431982Y-55569109D01*
X175218172Y-55642510D01*
X175218167Y-55642512D01*
X175019352Y-55750106D01*
X174840955Y-55888959D01*
X174840950Y-55888963D01*
X174687850Y-56055272D01*
X174687842Y-56055283D01*
X174601808Y-56186968D01*
X174548662Y-56232325D01*
X174479430Y-56241748D01*
X174416095Y-56212246D01*
X174394192Y-56186968D01*
X174308157Y-56055283D01*
X174308149Y-56055272D01*
X174155049Y-55888963D01*
X174155048Y-55888962D01*
X174155046Y-55888960D01*
X173976649Y-55750107D01*
X173950390Y-55735896D01*
X173777832Y-55642512D01*
X173777827Y-55642510D01*
X173564017Y-55569109D01*
X173382388Y-55538801D01*
X173341033Y-55531900D01*
X173114967Y-55531900D01*
X173073612Y-55538801D01*
X172891982Y-55569109D01*
X172678172Y-55642510D01*
X172678167Y-55642512D01*
X172479352Y-55750106D01*
X172300955Y-55888959D01*
X172300950Y-55888963D01*
X172147850Y-56055272D01*
X172147842Y-56055283D01*
X172061808Y-56186968D01*
X172008662Y-56232325D01*
X171939430Y-56241748D01*
X171876095Y-56212246D01*
X171854192Y-56186968D01*
X171768157Y-56055283D01*
X171768149Y-56055272D01*
X171615049Y-55888963D01*
X171615048Y-55888962D01*
X171615046Y-55888960D01*
X171436649Y-55750107D01*
X171410390Y-55735896D01*
X171237832Y-55642512D01*
X171237827Y-55642510D01*
X171024017Y-55569109D01*
X170842388Y-55538801D01*
X170801033Y-55531900D01*
X170574967Y-55531900D01*
X170533612Y-55538801D01*
X170351982Y-55569109D01*
X170138172Y-55642510D01*
X170138167Y-55642512D01*
X169939352Y-55750106D01*
X169760955Y-55888959D01*
X169760950Y-55888963D01*
X169607850Y-56055272D01*
X169607842Y-56055283D01*
X169521808Y-56186968D01*
X169468662Y-56232325D01*
X169399430Y-56241748D01*
X169336095Y-56212246D01*
X169314192Y-56186968D01*
X169228157Y-56055283D01*
X169228149Y-56055272D01*
X169075049Y-55888963D01*
X169075048Y-55888962D01*
X169075046Y-55888960D01*
X168896649Y-55750107D01*
X168870390Y-55735896D01*
X168697832Y-55642512D01*
X168697827Y-55642510D01*
X168484017Y-55569109D01*
X168302388Y-55538801D01*
X168261033Y-55531900D01*
X168034967Y-55531900D01*
X167993612Y-55538801D01*
X167811982Y-55569109D01*
X167598172Y-55642510D01*
X167598167Y-55642512D01*
X167399352Y-55750106D01*
X167220955Y-55888959D01*
X167220950Y-55888963D01*
X167067850Y-56055272D01*
X167067842Y-56055283D01*
X166981808Y-56186968D01*
X166928662Y-56232325D01*
X166859430Y-56241748D01*
X166796095Y-56212246D01*
X166774192Y-56186968D01*
X166688157Y-56055283D01*
X166688149Y-56055272D01*
X166535049Y-55888963D01*
X166535048Y-55888962D01*
X166535046Y-55888960D01*
X166356649Y-55750107D01*
X166330390Y-55735896D01*
X166157832Y-55642512D01*
X166157827Y-55642510D01*
X165944017Y-55569109D01*
X165762388Y-55538801D01*
X165721033Y-55531900D01*
X165494967Y-55531900D01*
X165453612Y-55538801D01*
X165271982Y-55569109D01*
X165058172Y-55642510D01*
X165058167Y-55642512D01*
X164859352Y-55750106D01*
X164680955Y-55888959D01*
X164680950Y-55888963D01*
X164527850Y-56055272D01*
X164527842Y-56055283D01*
X164441808Y-56186968D01*
X164388662Y-56232325D01*
X164319430Y-56241748D01*
X164256095Y-56212246D01*
X164234192Y-56186968D01*
X164148157Y-56055283D01*
X164148149Y-56055272D01*
X163995049Y-55888963D01*
X163995048Y-55888962D01*
X163995046Y-55888960D01*
X163816649Y-55750107D01*
X163790390Y-55735896D01*
X163617832Y-55642512D01*
X163617827Y-55642510D01*
X163404017Y-55569109D01*
X163222388Y-55538801D01*
X163181033Y-55531900D01*
X162954967Y-55531900D01*
X162913612Y-55538801D01*
X162731982Y-55569109D01*
X162518172Y-55642510D01*
X162518167Y-55642512D01*
X162319352Y-55750106D01*
X162140955Y-55888959D01*
X162140950Y-55888963D01*
X161987850Y-56055272D01*
X161987842Y-56055283D01*
X161901808Y-56186968D01*
X161848662Y-56232325D01*
X161779430Y-56241748D01*
X161716095Y-56212246D01*
X161694192Y-56186968D01*
X161608157Y-56055283D01*
X161608149Y-56055272D01*
X161455049Y-55888963D01*
X161455048Y-55888962D01*
X161455046Y-55888960D01*
X161276649Y-55750107D01*
X161250390Y-55735896D01*
X161077832Y-55642512D01*
X161077827Y-55642510D01*
X160864017Y-55569109D01*
X160682388Y-55538801D01*
X160641033Y-55531900D01*
X160414967Y-55531900D01*
X160373612Y-55538801D01*
X160191982Y-55569109D01*
X159978172Y-55642510D01*
X159978167Y-55642512D01*
X159779352Y-55750106D01*
X159600955Y-55888959D01*
X159600950Y-55888963D01*
X159447850Y-56055272D01*
X159447842Y-56055283D01*
X159361808Y-56186968D01*
X159308662Y-56232325D01*
X159239430Y-56241748D01*
X159176095Y-56212246D01*
X159154192Y-56186968D01*
X159068157Y-56055283D01*
X159068149Y-56055272D01*
X158915049Y-55888963D01*
X158915048Y-55888962D01*
X158915046Y-55888960D01*
X158736649Y-55750107D01*
X158710390Y-55735896D01*
X158537832Y-55642512D01*
X158537827Y-55642510D01*
X158324017Y-55569109D01*
X158142388Y-55538801D01*
X158101033Y-55531900D01*
X157874967Y-55531900D01*
X157833612Y-55538801D01*
X157651982Y-55569109D01*
X157438172Y-55642510D01*
X157438167Y-55642512D01*
X157239352Y-55750106D01*
X157060955Y-55888959D01*
X157060950Y-55888963D01*
X156907850Y-56055272D01*
X156907842Y-56055283D01*
X156784198Y-56244533D01*
X156693388Y-56451560D01*
X156637892Y-56670710D01*
X156619225Y-56895993D01*
X155292775Y-56895993D01*
X155279707Y-56738294D01*
X155274107Y-56670707D01*
X155218611Y-56451559D01*
X155127802Y-56244535D01*
X155004156Y-56055281D01*
X155004153Y-56055278D01*
X155004149Y-56055272D01*
X154851049Y-55888963D01*
X154851048Y-55888962D01*
X154851046Y-55888960D01*
X154672649Y-55750107D01*
X154646390Y-55735896D01*
X154473832Y-55642512D01*
X154473827Y-55642510D01*
X154260017Y-55569109D01*
X154078388Y-55538801D01*
X154037033Y-55531900D01*
X153810967Y-55531900D01*
X153769612Y-55538801D01*
X153587982Y-55569109D01*
X153374172Y-55642510D01*
X153374167Y-55642512D01*
X153175352Y-55750106D01*
X152996955Y-55888959D01*
X152996950Y-55888963D01*
X152843850Y-56055272D01*
X152843842Y-56055283D01*
X152757808Y-56186968D01*
X152704662Y-56232325D01*
X152635430Y-56241748D01*
X152572095Y-56212246D01*
X152550192Y-56186968D01*
X152464157Y-56055283D01*
X152464149Y-56055272D01*
X152311049Y-55888963D01*
X152311048Y-55888962D01*
X152311046Y-55888960D01*
X152132649Y-55750107D01*
X152106390Y-55735896D01*
X151933832Y-55642512D01*
X151933827Y-55642510D01*
X151720017Y-55569109D01*
X151538388Y-55538801D01*
X151497033Y-55531900D01*
X151270967Y-55531900D01*
X151229612Y-55538801D01*
X151047982Y-55569109D01*
X150834172Y-55642510D01*
X150834167Y-55642512D01*
X150635352Y-55750106D01*
X150456955Y-55888959D01*
X150456950Y-55888963D01*
X150303850Y-56055272D01*
X150303842Y-56055283D01*
X150217808Y-56186968D01*
X150164662Y-56232325D01*
X150095430Y-56241748D01*
X150032095Y-56212246D01*
X150010192Y-56186968D01*
X149924157Y-56055283D01*
X149924149Y-56055272D01*
X149771049Y-55888963D01*
X149771048Y-55888962D01*
X149771046Y-55888960D01*
X149592649Y-55750107D01*
X149566390Y-55735896D01*
X149393832Y-55642512D01*
X149393827Y-55642510D01*
X149180017Y-55569109D01*
X148998388Y-55538801D01*
X148957033Y-55531900D01*
X148730967Y-55531900D01*
X148689612Y-55538801D01*
X148507982Y-55569109D01*
X148294172Y-55642510D01*
X148294167Y-55642512D01*
X148095352Y-55750106D01*
X147916955Y-55888959D01*
X147916950Y-55888963D01*
X147763850Y-56055272D01*
X147763842Y-56055283D01*
X147677808Y-56186968D01*
X147624662Y-56232325D01*
X147555430Y-56241748D01*
X147492095Y-56212246D01*
X147470192Y-56186968D01*
X147384157Y-56055283D01*
X147384149Y-56055272D01*
X147231049Y-55888963D01*
X147231048Y-55888962D01*
X147231046Y-55888960D01*
X147052649Y-55750107D01*
X147026390Y-55735896D01*
X146853832Y-55642512D01*
X146853827Y-55642510D01*
X146640017Y-55569109D01*
X146458388Y-55538801D01*
X146417033Y-55531900D01*
X146190967Y-55531900D01*
X146149612Y-55538801D01*
X145967982Y-55569109D01*
X145754172Y-55642510D01*
X145754167Y-55642512D01*
X145555352Y-55750106D01*
X145376955Y-55888959D01*
X145376950Y-55888963D01*
X145223850Y-56055272D01*
X145223842Y-56055283D01*
X145137808Y-56186968D01*
X145084662Y-56232325D01*
X145015430Y-56241748D01*
X144952095Y-56212246D01*
X144930192Y-56186968D01*
X144844157Y-56055283D01*
X144844149Y-56055272D01*
X144691049Y-55888963D01*
X144691048Y-55888962D01*
X144691046Y-55888960D01*
X144512649Y-55750107D01*
X144486390Y-55735896D01*
X144313832Y-55642512D01*
X144313827Y-55642510D01*
X144100017Y-55569109D01*
X143918388Y-55538801D01*
X143877033Y-55531900D01*
X143650967Y-55531900D01*
X143609612Y-55538801D01*
X143427982Y-55569109D01*
X143214172Y-55642510D01*
X143214167Y-55642512D01*
X143015352Y-55750106D01*
X142836955Y-55888959D01*
X142836950Y-55888963D01*
X142683850Y-56055272D01*
X142683842Y-56055283D01*
X142597808Y-56186968D01*
X142544662Y-56232325D01*
X142475430Y-56241748D01*
X142412095Y-56212246D01*
X142390192Y-56186968D01*
X142304157Y-56055283D01*
X142304149Y-56055272D01*
X142151049Y-55888963D01*
X142151048Y-55888962D01*
X142151046Y-55888960D01*
X141972649Y-55750107D01*
X141946390Y-55735896D01*
X141773832Y-55642512D01*
X141773827Y-55642510D01*
X141560017Y-55569109D01*
X141378388Y-55538801D01*
X141337033Y-55531900D01*
X141110967Y-55531900D01*
X141069612Y-55538801D01*
X140887982Y-55569109D01*
X140674172Y-55642510D01*
X140674167Y-55642512D01*
X140475352Y-55750106D01*
X140296955Y-55888958D01*
X140242186Y-55948453D01*
X140182298Y-55984443D01*
X140112460Y-55982342D01*
X140054845Y-55942817D01*
X140034775Y-55907802D01*
X139990954Y-55790313D01*
X139990950Y-55790306D01*
X139904790Y-55675212D01*
X139904787Y-55675209D01*
X139789693Y-55589049D01*
X139789686Y-55589045D01*
X139654979Y-55538803D01*
X139654972Y-55538801D01*
X139595444Y-55532400D01*
X138934000Y-55532400D01*
X138934000Y-56453748D01*
X138880081Y-56422619D01*
X138750880Y-56388000D01*
X138617120Y-56388000D01*
X138487919Y-56422619D01*
X138434000Y-56453748D01*
X138434000Y-55532400D01*
X137772555Y-55532400D01*
X137713027Y-55538801D01*
X137713020Y-55538803D01*
X137578313Y-55589045D01*
X137578306Y-55589049D01*
X137463212Y-55675209D01*
X137463209Y-55675212D01*
X137377049Y-55790306D01*
X137377046Y-55790312D01*
X137333224Y-55907803D01*
X137291352Y-55963736D01*
X137225887Y-55988153D01*
X137157615Y-55973301D01*
X137125813Y-55948452D01*
X137071049Y-55888963D01*
X137071048Y-55888962D01*
X137071046Y-55888960D01*
X136892649Y-55750107D01*
X136866390Y-55735896D01*
X136693832Y-55642512D01*
X136693827Y-55642510D01*
X136480017Y-55569109D01*
X136298388Y-55538801D01*
X136257033Y-55531900D01*
X136030967Y-55531900D01*
X135989612Y-55538801D01*
X135807982Y-55569109D01*
X135594172Y-55642510D01*
X135594167Y-55642512D01*
X135395352Y-55750106D01*
X135216955Y-55888959D01*
X135216950Y-55888963D01*
X135063850Y-56055272D01*
X135063842Y-56055283D01*
X134977808Y-56186968D01*
X134924662Y-56232325D01*
X134855430Y-56241748D01*
X134792095Y-56212246D01*
X134770192Y-56186968D01*
X134684157Y-56055283D01*
X134684149Y-56055272D01*
X134531049Y-55888963D01*
X134531048Y-55888962D01*
X134531046Y-55888960D01*
X134352649Y-55750107D01*
X134326390Y-55735896D01*
X134153832Y-55642512D01*
X134153827Y-55642510D01*
X133940017Y-55569109D01*
X133758388Y-55538801D01*
X133717033Y-55531900D01*
X133490967Y-55531900D01*
X133449612Y-55538801D01*
X133267982Y-55569109D01*
X133054172Y-55642510D01*
X133054167Y-55642512D01*
X132855352Y-55750106D01*
X132676955Y-55888959D01*
X132676950Y-55888963D01*
X132523850Y-56055272D01*
X132523842Y-56055283D01*
X132437808Y-56186968D01*
X132384662Y-56232325D01*
X132315430Y-56241748D01*
X132252095Y-56212246D01*
X132230192Y-56186968D01*
X132144157Y-56055283D01*
X132144149Y-56055272D01*
X131991049Y-55888963D01*
X131991048Y-55888962D01*
X131991046Y-55888960D01*
X131812649Y-55750107D01*
X131786390Y-55735896D01*
X131613832Y-55642512D01*
X131613827Y-55642510D01*
X131400017Y-55569109D01*
X131218388Y-55538801D01*
X131177033Y-55531900D01*
X130950967Y-55531900D01*
X130909612Y-55538801D01*
X130727982Y-55569109D01*
X130514172Y-55642510D01*
X130514167Y-55642512D01*
X130315352Y-55750106D01*
X130136955Y-55888959D01*
X130136950Y-55888963D01*
X129983850Y-56055272D01*
X129983842Y-56055283D01*
X129860198Y-56244533D01*
X129769388Y-56451560D01*
X129713892Y-56670710D01*
X129695225Y-56895993D01*
X126992500Y-56895993D01*
X126992500Y-56138427D01*
X126992816Y-56129581D01*
X127007455Y-55924886D01*
X127009973Y-55907379D01*
X127013980Y-55888959D01*
X127052654Y-55711182D01*
X127057629Y-55694235D01*
X127127806Y-55506084D01*
X127135144Y-55490017D01*
X127231375Y-55313782D01*
X127240925Y-55298921D01*
X127361264Y-55138168D01*
X127372836Y-55124814D01*
X127514814Y-54982836D01*
X127528168Y-54971264D01*
X127688921Y-54850925D01*
X127703782Y-54841375D01*
X127880017Y-54745144D01*
X127896084Y-54737806D01*
X128084235Y-54667629D01*
X128101182Y-54662654D01*
X128297381Y-54619972D01*
X128314886Y-54617455D01*
X128519582Y-54602816D01*
X128528428Y-54602500D01*
X128589892Y-54602500D01*
X209484108Y-54602500D01*
X209545572Y-54602500D01*
X209554418Y-54602816D01*
G37*
G04 #@! TD.AperFunction*
G04 #@! TD*
M02*
